<svg width="96" height="95" viewBox="0 0 96 95" fill="none" xmlns="http://www.w3.org/2000/svg">
<g clip-path="url(#clip0_1242_3123)">
<path d="M14.5618 1.95611L12.6113 3.91218L15.4906 6.79972L18.3699 9.68726L20.3204 7.73118L22.2709 5.77511L19.3916 2.88757L16.5123 3.75658e-05L14.5618 1.95611Z" fill="black"/>
<path d="M76.6068 2.88757L73.7275 5.77511L75.678 7.73118L77.6285 9.68726L80.5078 6.79972L83.3871 3.91218L81.4366 1.95611L79.4861 3.75658e-05L76.6068 2.88757Z" fill="black"/>
<path d="M44.9537 5.42117C31.8947 6.57619 20.3775 15.63 16.0864 28.1489C13.1699 36.6066 13.7272 45.8467 17.6282 53.9318C19.4487 57.7135 22.1794 61.4021 25.2444 64.1779C27.0835 65.8545 28.1423 67.3635 28.7181 69.096C29.0897 70.2324 29.1268 70.7913 29.2011 76.6036L29.2754 82.9003H31.6346H33.9938L34.3096 84.223C35.517 89.4578 40.1053 93.8543 45.288 94.8044C46.6998 95.0652 49.3005 95.0652 50.7123 94.8044C55.895 93.8543 60.4833 89.4578 61.6907 84.223L62.0065 82.9003H64.3657H66.7249L66.8177 76.6967C66.892 69.9157 66.9478 69.5804 68.0809 67.4194C68.5453 66.5438 69.3812 65.5564 71.2203 63.7121C74.0624 60.8805 75.66 58.8313 77.3318 55.9251C83.6291 44.8593 83.1833 31.0737 76.1615 20.4923C74.7683 18.3685 73.3194 16.6733 71.1831 14.624C65.5731 9.22154 58.3842 6.01731 50.5451 5.40255C47.9816 5.19762 47.5172 5.19762 44.9537 5.42117ZM50.3222 10.9913C60.2975 11.8855 68.7682 17.6606 73.2079 26.5468C77.9448 35.9918 76.9789 47.2625 70.7187 55.9624C70.3286 56.484 68.7682 58.1979 67.245 59.7441L64.4586 62.5944H48.0001H31.5417L28.7553 59.7627C24.9844 55.9251 23.2382 53.3543 21.715 49.4049C19.3929 43.369 19.1886 36.5507 21.1762 30.4589C24.6128 19.8216 34.2538 12.0905 45.3995 11.01C47.5915 10.805 48.2045 10.7864 50.3222 10.9913ZM61.6536 68.6862C61.3935 69.7667 61.1892 72.3189 61.1892 74.7407V77.3115H48.0001H34.8111V74.7407C34.8111 72.2444 34.5696 69.096 34.3281 68.4812C34.2167 68.2018 35.2941 68.1832 48.0001 68.1832H61.7836L61.6536 68.6862ZM56.1736 83.2356C56.1736 83.9063 55.0033 85.9182 54.0374 86.9242C53.3686 87.6135 52.5699 88.1537 51.5853 88.6381C50.1736 89.3088 50.0807 89.3274 48.0001 89.3274C45.9196 89.3274 45.8267 89.3088 44.415 88.6381C42.6502 87.7812 41.2384 86.4399 40.4211 84.7818C39.3994 82.714 38.6192 82.9003 48.0001 82.9003C55.8207 82.9003 56.1736 82.9189 56.1736 83.2356Z" fill="black"/>
<path d="M46.792 23.2121C41.9622 23.8641 38.3956 25.7084 34.2717 29.7137C32.0983 31.8375 30.6865 33.4955 29.1818 35.7496L28.1602 37.2958L28.8103 38.3577C30.7794 41.4502 34.6432 45.679 37.1881 47.5047C42.7796 51.5286 48.4081 52.4601 53.9066 50.2804C58.5692 48.4175 63.752 43.7602 67.1886 38.3391L67.8573 37.2958L66.7427 35.6751C65.0337 33.1415 63.9935 31.912 61.7086 29.6951C57.4918 25.6153 53.2936 23.5102 48.7425 23.2307C47.9809 23.1748 47.1078 23.1748 46.792 23.2121ZM50.4143 29.099C52.4391 29.5833 55.0212 31.0923 57.3246 33.1788C58.7364 34.4456 61.0027 36.9978 61.0027 37.3331C61.0027 37.7616 57.9748 41.0031 56.3958 42.2698C51.7147 46.0702 47.5165 46.7968 43.0953 44.5799C40.7362 43.4062 37.7269 40.8727 35.6649 38.3204C34.9776 37.4821 34.959 37.4076 35.2005 36.9232C35.6463 36.0663 39.6588 32.1728 41.0706 31.2413C44.47 28.9872 47.2378 28.3538 50.4143 29.099Z" fill="black"/>
<path d="M45.2139 37.2586V40.053H48.0003H50.7867V37.2586V34.4642H48.0003H45.2139V37.2586Z" fill="black"/>
<path d="M1.39198 25.0005C0.946156 26.3604 0.537481 27.5713 0.500329 27.6831C0.444601 27.8694 7.48495 30.1794 8.13511 30.1794C8.28372 30.1794 8.4509 30.0304 8.50663 29.8441C8.56236 29.6765 8.89673 28.5401 9.28683 27.3292C9.65835 26.1183 9.88126 25.0564 9.80696 24.9819C9.71408 24.9074 8.06081 24.3485 6.11031 23.7523C4.1784 23.1562 2.48797 22.6346 2.39509 22.5973C2.28364 22.5601 1.83781 23.6406 1.39198 25.0005Z" fill="black"/>
<path d="M90.0188 23.7523C87.9383 24.3857 86.2107 24.9632 86.1364 25.0191C86.0807 25.075 86.3408 26.1183 86.7123 27.3292C87.1024 28.5401 87.4368 29.6765 87.4925 29.8441C87.5482 30.0304 87.7154 30.1794 87.8826 30.1794C88.1426 30.1794 95.3688 27.9998 95.4988 27.888C95.5545 27.8135 93.9941 22.765 93.8641 22.6532C93.8269 22.616 92.0994 23.1003 90.0188 23.7523Z" fill="black"/>
<path d="M4.36454 51.156C2.28402 51.7894 0.556438 52.3669 0.519286 52.4041C0.482134 52.4414 0.83508 53.615 1.29948 55.0122C1.93107 56.9311 2.22829 57.5645 2.4512 57.5645C2.80415 57.5645 9.71446 55.4035 9.86307 55.2544C9.97453 55.1426 8.39556 49.9265 8.24695 49.9451C8.19122 49.9451 6.44506 50.504 4.36454 51.156Z" fill="black"/>
<path d="M86.8417 52.5532C86.3959 53.9876 86.0801 55.1985 86.1172 55.2544C86.2658 55.3848 93.269 57.5645 93.5662 57.5645C93.7706 57.5645 94.1235 56.7634 94.6994 55.0122C95.1638 53.615 95.5167 52.4414 95.4796 52.3855C95.4239 52.3296 87.7705 49.9265 87.659 49.9265C87.6405 49.9265 87.2875 51.1001 86.8417 52.5532Z" fill="black"/>
<path d="M15.4906 73.4926L12.6113 76.3801L14.5618 78.3362L16.5123 80.2922L19.3916 77.4047L22.2709 74.5172L20.3204 72.5611L18.3699 70.605L15.4906 73.4926Z" fill="black"/>
<path d="M75.678 72.5611L73.7275 74.5172L76.6068 77.4047L79.4861 80.2922L81.4366 78.3362L83.3871 76.3801L80.5078 73.4926L77.6285 70.605L75.678 72.5611Z" fill="black"/>
</g>
<defs>
<clipPath id="clip0_1242_3123">
<rect width="95.0004" height="95" fill="white" transform="translate(0.5)"/>
</clipPath>
</defs>
</svg>
