<svg width="86" height="91" viewBox="0 0 86 91" fill="none" xmlns="http://www.w3.org/2000/svg">
<g clip-path="url(#clip0_1256_3198)">
<path d="M85.9998 36.9496C85.9998 49.5994 74.4874 59.8541 60.2863 59.8541C46.0851 59.8541 34.5728 49.5994 34.5728 36.9496C34.5728 24.2998 46.0851 0.864258 60.2863 0.864258C74.4874 0.864258 85.9998 24.2998 85.9998 36.9496Z" fill="#FFD18D"/>
<path d="M60.3061 41.0548C60.3061 51.4372 51.8895 59.8538 41.5071 59.8538C31.1247 59.8538 22.7082 51.4372 22.7082 41.0548C22.7082 30.6725 20.3205 14.9092 30.7029 14.9092C41.0853 14.9092 60.3061 30.6725 60.3061 41.0548Z" fill="#FEB549"/>
<path d="M62.8792 67.2307C62.8792 79.8805 51.3669 90.1352 37.1657 90.1352C22.9646 90.1352 0 68.4283 0 55.7785C0 43.1287 22.9646 44.3263 37.1657 44.3263C51.3669 44.3263 62.8792 54.5809 62.8792 67.2307Z" fill="#FFD18D"/>
</g>
<defs>
<clipPath id="clip0_1256_3198">
<rect width="85.9999" height="89.2712" fill="white" transform="translate(0 0.864258)"/>
</clipPath>
</defs>
</svg>
