<svg width="524" height="404" viewBox="0 0 524 404" fill="none" xmlns="http://www.w3.org/2000/svg">
<g clip-path="url(#clip0_1256_3197)">
<path d="M462.24 356.038C665.617 285.857 305.554 41.8253 221.444 5.13189C137.334 -31.5615 -50.2962 138.409 13.2786 200.83C76.8534 263.25 273.204 421.271 462.24 356.038Z" fill="#D0EED4"/>
<path d="M221.041 178.916C220.64 180.033 220.308 181.372 220.858 181.833C221.781 182.604 224.796 180.63 226.498 179.008C227.782 177.772 230.608 174.549 231.032 167.91L221.041 178.916Z" fill="#FEE9DD"/>
<path d="M293.215 51.5888C294.803 52.6586 297.755 54.2768 301.183 53.8208C309.614 52.7106 312.67 40.1221 313.048 38.4703C313.902 34.7598 315.415 28.1502 311.133 22.8105C306.439 16.9309 298.529 17.3106 297.594 17.3667L293.215 51.5888Z" fill="black"/>
<path d="M209.377 174.86C209.021 176.77 208.66 178.68 208.299 180.591C221.918 177.375 239.006 171.34 256.036 159.516C260.129 156.68 263.849 153.756 267.231 150.838C264.261 146.56 261.286 142.271 258.323 137.992C255.176 139.408 251.886 141.076 248.532 143.067C236.237 150.337 227.433 159.166 221.368 166.632C218.863 167.755 215.905 169.378 212.896 171.747C211.566 172.795 210.402 173.848 209.377 174.86Z" fill="#FEE9DD"/>
<path d="M253.795 101.863C253.267 119.119 252.791 136.38 252.315 153.64C257.4 152.777 262.444 151.862 267.54 150.959C269.248 144.14 270.721 136.362 271.466 127.794C271.673 125.673 271.833 123.508 271.948 121.288C272.028 119.809 272.062 118.319 272.097 116.795C272.183 111.495 271.971 106.491 271.576 101.778C270.211 93.2325 263.545 88.54 259.653 89.27C256.185 89.9537 253.072 95.2125 253.795 101.863Z" fill="#FEE9DD"/>
<path d="M254.482 122.203C260.106 124.062 265.838 125.931 271.467 127.795C271.673 125.673 271.834 123.509 271.948 121.289L254.482 122.203Z" fill="#E88D60"/>
<path d="M249.743 124.062C258.473 123.866 267.197 123.671 275.927 123.475C274.254 113.89 272.574 104.304 270.9 94.7258C270.235 93.5456 268.235 90.4258 264.142 88.7474C262.474 88.0573 260.938 87.803 259.768 87.7227C259.161 87.8325 255.773 88.5156 253.744 91.532C251.887 94.2646 252.415 97.0428 252.558 97.6878C251.624 106.484 250.683 115.276 249.743 124.062Z" fill="#F2ECEC"/>
<path d="M257.744 100.438C261.04 110.662 262.616 128.768 265.5 143.435C266.692 149.451 267.999 154.537 268.544 159.291C275.6 158.859 282.656 158.462 289.712 158.008C295.931 157.598 302.987 158.06 309.62 157.306C314.165 144.498 318.556 130.926 322.649 116.56C325.205 107.624 327.493 98.8899 329.55 90.3812C327.303 82.2562 323.417 80.4605 322.184 79.8513C318.436 77.9747 315.214 78.6827 309.74 79.7479C300.385 81.5708 300.162 77.0852 286.462 76.9639C283.699 76.9344 279.601 76.9274 274.809 77.8308L274.568 78.0556C269.896 82.2857 263.287 81.22 258.518 84.8906C256.26 88.5219 256.306 93.1247 257.022 97.1757C257.217 98.3217 257.475 99.4135 257.744 100.438Z" fill="#FFB68D"/>
<path d="M253.675 97.5035C254.786 97.3891 255.904 97.2856 257.022 97.1758C281.177 94.8333 305.332 92.4914 329.487 90.1501C328.759 87.0661 327.16 82.8898 323.491 79.9884C317.289 75.0874 310.64 78.3436 304.696 74.7839C300.958 72.5334 297.066 67.3554 296.338 54.5028C295.977 50.2612 295.61 46.0201 295.255 41.7744C293.174 44.789 289.81 48.8116 284.691 52.2343C282.472 53.7133 280.386 54.79 278.506 55.6015C279.125 59.5229 279.325 62.8092 279.222 65.5597C278.97 72.2398 276.93 75.7948 274.809 77.8309L274.568 78.0558C269.896 82.2858 263.287 81.2201 258.518 84.8907C257.779 85.4542 257.085 86.1333 256.443 86.969C253.766 90.4732 253.549 94.7773 253.675 97.5035Z" fill="#FEE9DD"/>
<path d="M287.976 80.5755C287.408 81.6742 286.41 82.2492 285.407 82.0429C283.986 81.7661 283.338 80.0987 283.292 79.9727L287.976 80.5755Z" fill="#EACDBD"/>
<path d="M282.574 84.126C282.294 84.3548 281.864 84.6785 281.307 84.9889C279.456 86.0252 277.84 85.9506 276.716 85.8812C272.629 85.6339 268.829 85.0184 267.545 84.8045C270.463 84.7594 273.38 84.719 276.292 84.6716L282.574 84.126Z" fill="#EACDBD"/>
<path d="M288.193 83.7462C288.652 83.93 289.363 84.1837 290.245 84.3958C293.209 85.1032 295.634 84.764 297.319 84.5056C303.447 83.5728 309.07 82.3255 310.967 81.8984C306.565 82.3481 302.163 82.7908 297.755 83.2405L288.193 83.7462Z" fill="#EACDBD"/>
<path d="M313.157 157.115C299.383 148.68 285.603 140.241 271.828 131.799C266.824 122.807 261.82 113.815 256.822 104.816C256.455 103.039 256.094 101.254 255.727 99.4767C254.615 98.8895 253.497 98.3029 252.379 97.7162C252.167 91.8528 254.42 88.5105 255.332 87.3199C257.51 84.4943 261.487 81.7548 265.684 80.8468C267.042 80.5595 268.848 79.9544 271.662 78.7702C273.416 78.0217 274.821 77.3022 275.76 76.7901C276.03 82.6067 278.231 84.396 279.039 84.9197C283.596 87.9354 293.45 83.8267 302.478 73.0166C303.636 73.6882 305.487 74.6435 307.9 75.3585C312.618 76.7606 314.177 75.6619 318.304 76.6462C319.892 77.0259 325.269 78.309 328.501 83.0153C330.525 85.9733 330.892 89.0908 330.943 90.8166C330.553 92.9475 330.17 95.0802 329.774 97.2082C324.237 117.18 318.7 137.151 313.157 157.115Z" fill="#F2ECEC"/>
<path d="M286.335 268.682C285.584 274.77 290.032 280.362 295.661 281.697C299.932 282.704 304.546 281.178 307.727 277.744C307.979 275.575 308.266 273.354 308.599 271.087C308.873 269.183 309.172 267.313 309.475 265.484C309.12 264.798 306.237 259.436 300.424 258.505C294.326 257.526 287.195 261.785 286.335 268.682Z" fill="#FFB68D"/>
<path d="M287.299 265.374C294.269 266.019 301.239 266.669 308.209 267.318C315.082 260.421 330.61 242.832 333.5 216.591C334.399 208.403 333.878 201.097 332.88 195.084C332.548 192.086 331.929 188.807 330.897 185.344C326.856 171.805 318.533 162.817 313.116 157.956C307.693 170.706 303.927 181.878 301.153 190.497C296.676 204.427 292.561 220.714 289.907 239.088C288.572 248.35 287.746 257.142 287.299 265.374Z" fill="#FFB68D"/>
<path d="M263.104 363.56C265.403 364.921 267.701 366.279 270 367.639C272.207 363.519 275.79 357.028 280.541 349.254C295.216 325.247 302.914 318.697 306.21 304.608C307.58 298.751 308.623 289.764 305.854 277.78C299.349 274.292 292.843 270.799 286.336 267.317C283.293 284.958 279.412 303.682 274.471 323.278C270.906 337.404 267.083 350.836 263.104 363.56Z" fill="#FEE9DD"/>
<path d="M227.496 373.201L265.626 389.535C266.744 387.982 268.148 385.542 268.389 382.402C268.486 381.215 268.377 380.352 268.337 379.887C268.102 377.498 268.228 373.695 270 367.638C267.701 366.278 265.402 364.921 263.104 363.559C247.879 373.731 241.465 374.322 238.467 372.792C237.653 372.378 234.81 370.652 231.468 371.275C229.697 371.607 228.356 372.493 227.496 373.201Z" fill="#FEE9DD"/>
<path d="M251.038 274.13C252.746 280.023 259.034 283.406 264.726 282.394C269.048 281.627 272.682 278.401 274.258 273.986C273.634 271.894 273.026 269.737 272.436 267.521C271.943 265.661 271.472 263.828 271.037 262.025C270.441 261.538 265.689 257.762 259.985 259.2C253.99 260.72 249.106 267.457 251.038 274.13Z" fill="#FFB68D"/>
<path d="M307.757 364.168C310.302 363.339 312.841 362.516 315.392 361.69C313.942 357.246 311.724 350.164 309.391 341.35C302.18 314.124 302.759 304.021 294.865 291.903C291.581 286.869 285.809 279.92 275.256 273.665C268.252 275.989 261.247 278.326 254.254 280.65C264.881 294.987 275.72 310.712 286.457 327.858C294.241 340.291 301.32 352.43 307.757 364.168Z" fill="#FEE9DD"/>
<path d="M301.664 381.216C306.153 380.71 310.641 380.204 315.129 379.697C320.265 371.745 325.401 363.8 330.531 355.848C329.431 354.215 327.614 352.097 324.788 350.81C323.687 350.308 322.816 350.106 322.415 350.014C319.996 349.423 316.235 348.088 310.325 344.82C308.308 349.176 306.296 353.535 304.273 357.891C308.612 367.425 307.981 371.365 306.365 373.138C305.098 374.536 302.415 375.469 301.664 378.254C301.349 379.445 301.504 380.514 301.664 381.216Z" fill="#FEE9DD"/>
<path d="M266.342 123.694C263.625 123.694 261.029 122.716 258.965 120.898C256.707 118.918 255.36 116.169 255.159 113.171C254.982 110.512 255.744 107.878 257.32 105.736L258.117 105.617L258.238 106.422C256.833 108.337 256.145 110.708 256.3 113.09C256.661 118.435 261.097 122.543 266.354 122.543L267.031 122.52C270.195 122.314 273.112 120.588 274.831 117.899L275.628 117.734L275.795 118.527C273.874 121.513 270.63 123.435 267.11 123.665L266.342 123.694Z" fill="#171930"/>
<path d="M279.222 65.5593L280.552 65.5639C285.052 65.2651 288.48 61.7679 288.21 57.7586C288.055 55.4277 286.691 53.4366 284.691 52.2339C282.472 53.7129 280.386 54.7896 278.506 55.6011C279.125 59.5225 279.325 62.8088 279.222 65.5593Z" fill="#EACDBD"/>
<path d="M297.211 51.792C291.8 58.9026 283.597 61.8196 282.525 62.1299C281.659 62.3773 280.742 62.5391 279.825 62.5391C279.825 62.5391 278.398 62.5906 277.022 62.2288C273.044 61.2561 269.02 54.9153 268.659 54.3518C266.773 51.3308 265.294 48.9779 264.939 45.5483C264.687 42.8377 265.346 41.6598 265.042 37.3089C264.887 34.8526 264.584 33.7828 264.377 32.0899L264.28 31.6322L264.125 30.1977L264.022 29.3308L263.919 28.1506C263.666 24.4152 264.022 19.7089 266.825 16.0788C266.825 16.0788 269.782 12.3394 275.75 10.4986C277.377 9.98592 279.212 9.7322 279.212 9.7322L280.439 9.57731C283.9 9.32301 292.619 9.32301 298.69 15.2569C308.474 24.8759 303.94 42.9434 297.211 51.792Z" fill="#FEE9DD"/>
<path d="M264.761 37.2235C264.584 38.3967 265.547 39.5434 266.916 39.7838C268.281 40.0306 269.536 39.2821 269.714 38.1158C269.886 36.9472 268.923 35.7965 267.559 35.5491C266.194 35.3064 264.939 36.0548 264.761 37.2235Z" fill="#171930"/>
<path d="M271.513 38.6331L271.146 38.4955C268.899 36.601 266.412 35.8999 265.087 36.7634L264.359 37.5697L263.649 37.8211L262.468 37.3494L262.152 36.601L262.892 36.2796L263.637 36.5785L264.468 35.7965C266.268 34.6232 269.174 35.3312 271.886 37.6217L271.949 38.4262L271.513 38.6331Z" fill="#171930"/>
<path d="M281.974 36.1349C281.79 37.3035 282.754 38.4427 284.129 38.6901C285.493 38.9311 286.749 38.182 286.921 37.0163C287.098 35.8476 286.135 34.7033 284.771 34.4611C283.407 34.2138 282.152 34.9663 281.974 36.1349Z" fill="#171930"/>
<path d="M289.346 37.6484L288.984 37.5224C286.434 35.4498 283.757 34.6927 282.306 35.6631L281.573 36.4815L280.862 36.7288L279.675 36.2503L279.354 35.5082L280.1 35.1868L280.856 35.4862L281.664 34.7152C283.551 33.4362 286.709 34.1916 289.701 36.6254L289.793 37.4362L289.346 37.6484Z" fill="#171930"/>
<path d="M292.188 32.7571C290.56 32.3138 288.261 31.8532 285.51 31.8081C283.149 31.7751 281.154 32.0624 279.657 32.3768L279.835 31.307C280.111 30.3591 280.632 29.6685 281.016 29.2529C282.896 29.3003 284.45 29.4373 285.59 29.5587C288.359 29.869 289.115 30.1742 289.597 30.4216C290.956 31.1007 291.758 32.1075 292.188 32.7571Z" fill="black"/>
<path d="M279.968 29.1686C279.784 29.4564 279.549 29.8812 279.366 30.4227C279.062 31.3781 279.039 32.3265 279.136 32.3444L279.71 30.899C279.864 30.4048 279.973 29.9737 280.3 29.4044L280.507 29.0767L279.968 29.1686Z" fill="black"/>
<path d="M269.427 32.8559C268.149 32.4427 266.366 32.0341 264.279 31.8312L264.125 30.3996L264.021 29.5298C265.145 29.5298 266.624 29.5298 268.355 29.6286C268.71 30.0355 269.169 30.8065 269.324 31.7798L269.427 32.8559Z" fill="black"/>
<path d="M269.398 29.6173C269.559 29.9161 269.753 30.3594 269.885 30.916C270.121 31.8899 270.063 32.8377 269.96 32.8493L269.513 31.3593C269.393 30.8536 269.324 30.4149 269.049 29.8173L268.865 29.478L269.398 29.6173Z" fill="black"/>
<path d="M276.66 44.1575C276.001 43.8402 275.353 43.7998 274.717 43.8292C274.086 43.8853 273.45 44.0067 272.837 44.4095C273.496 44.7326 274.138 44.773 274.78 44.7441C275.411 44.6811 276.041 44.5598 276.66 44.1575Z" fill="#171930"/>
<path d="M275.577 51.5669C273.582 51.5669 271.925 51.1236 270.802 50.7104L270.464 49.9729L271.197 49.6342C272.47 50.0989 274.488 50.6225 276.964 50.3347C278.655 50.1509 280.334 49.6047 281.825 48.7598L282.604 48.9777L282.386 49.7596C280.77 50.6815 278.935 51.2722 277.09 51.4814C276.568 51.5374 276.064 51.5669 275.577 51.5669Z" fill="#171930"/>
<path d="M276.173 54.7377L274.9 54.6458L274.419 53.9892L275.067 53.5101L276.351 53.587C277.566 53.5459 278.569 53.2003 279.188 52.9194L279.944 53.2073L279.658 53.9644C278.941 54.2921 277.795 54.6967 276.379 54.7308L276.173 54.7377Z" fill="#171930"/>
<path d="M297.226 193.414C292.944 217.379 288.181 241.917 282.89 266.968C276.075 299.235 268.812 330.378 261.223 360.348C267.964 362.852 274.71 365.36 281.457 367.861C292.509 351.597 306.243 325.901 309.808 292.549C310.634 284.896 310.823 277.663 310.611 270.961C315.976 263.224 347.668 216.2 329.561 177.264C327.75 173.364 325.325 169.308 322.081 165.273C313.792 174.653 305.509 184.036 297.226 193.414Z" fill="#FFD18D"/>
<path d="M256.391 182.276C250.034 205.791 245.873 233.534 247.684 264.356C247.936 268.642 248.297 272.843 248.744 276.94C264.794 302.658 280.85 328.387 296.905 354.112C298.608 353.543 300.431 352.81 302.323 351.873C308.014 349.048 312.124 345.423 314.91 342.438C313.208 337.563 311.35 332.598 309.332 327.564C301.038 306.881 291.449 288.672 281.641 272.849C279.663 272.078 277.691 271.307 275.72 270.534C280.122 250.669 284.53 230.797 288.932 210.922C289.471 209.547 290.703 208.591 292.074 208.502C293.787 208.38 295.45 209.616 295.897 211.486C303.406 199.26 310.903 187.041 318.412 174.814C319.634 171.639 320.854 168.456 322.081 165.273C318.945 161.596 315.81 157.915 312.68 154.238C309.585 149.407 306.048 142.768 303.44 134.411C299.519 121.841 299.416 110.836 299.932 103.71C285.355 103.527 270.779 103.342 256.202 103.153C255.262 107.774 254.557 112.998 254.373 118.74C253.8 136.754 258.627 151.391 262.765 160.741C259.756 169.688 257.773 177.172 256.391 182.276Z" fill="#FFD18D"/>
<path d="M295.49 211.187L294.922 210.911C294.274 210.07 293.512 209.335 292.647 208.713C289.402 206.378 285.694 206.378 283.762 206.603L282.971 205.969L283.607 205.175C285.728 204.928 289.849 204.933 293.483 207.546C294.458 208.247 295.323 209.088 296.057 210.025L295.931 211.032L295.49 211.187Z" fill="#4A4B62"/>
<path d="M284.668 205.969L283.952 205.297L282.329 180.833L282.994 180.067L283.762 180.734L285.384 205.198L284.719 205.969H284.668Z" fill="#4A4B62"/>
<path d="M273.703 273.285L273.198 273.078L273.192 272.06L275.21 270.028L276.225 270.023L276.23 271.042L274.213 273.071L273.703 273.285Z" fill="#4A4B62"/>
<path d="M309.476 273.389L309.064 273.263L306.318 271.313L306.141 270.306L307.144 270.132L309.895 272.083L310.067 273.09L309.476 273.389Z" fill="#4A4B62"/>
<path d="M271.684 315.068C271.122 314.947 270.887 314.556 270.991 314.172L281.451 273.487L282.323 272.968L282.838 273.842L272.378 314.533L271.684 315.068Z" fill="#4A4B62"/>
<path d="M294.195 347.956C293.588 347.789 293.393 347.381 293.519 347L302.444 321.091L303.355 320.649L303.796 321.564L294.877 347.473L294.195 347.956Z" fill="#4A4B62"/>
<path d="M281.984 164.631C279.462 164.631 276.945 164.469 274.435 164.148C271.174 163.732 267.889 163.024 264.679 162.042L264.203 161.15L265.092 160.671C268.227 161.626 271.432 162.316 274.613 162.72C281.652 163.624 288.8 163.231 295.862 161.534L296.733 162.069L296.2 162.939C291.483 164.061 286.725 164.631 281.984 164.631Z" fill="#4A4B62"/>
<path d="M279.583 172.853C276.609 172.853 274.04 172.547 272.091 172.215L271.507 171.386L272.338 170.799C277.892 171.748 288.766 172.415 299.17 166.178C302.827 163.98 306.089 161.133 308.857 157.703L309.866 157.599L309.963 158.613C307.091 162.162 303.71 165.126 299.903 167.41C292.75 171.696 285.402 172.853 279.583 172.853Z" fill="#4A4B62"/>
<path d="M261.225 108.406C261.225 110.051 260.187 111.386 258.904 111.386C257.619 111.386 256.588 110.051 256.588 108.406C256.588 106.756 257.619 105.421 258.904 105.421C260.187 105.421 261.225 106.756 261.225 108.406Z" fill="#575A6A"/>
<path d="M296.694 109.062C296.694 110.707 295.656 112.041 294.378 112.041C293.094 112.041 292.051 110.707 292.051 109.062C292.051 107.409 293.094 106.074 294.378 106.074C295.656 106.074 296.694 107.409 296.694 109.062Z" fill="#575A6A"/>
<path d="M257.785 365.883C250.087 371.688 245.312 371.94 242.315 370.94C240.056 370.191 238.646 368.679 235.23 368.477C232.81 368.329 228.598 368.8 227.525 371.379C227.17 372.234 227.25 373.115 227.417 373.799C240.337 379.957 253.257 386.101 266.183 392.25C267.266 390.104 268.504 386.998 268.997 383.103C269.226 381.267 269.255 379.603 269.175 378.165C264.262 379.15 262.388 378.194 261.563 377.199C259.539 374.754 262.13 369.951 259.282 366.97C258.714 366.371 258.112 366.049 257.785 365.883Z" fill="#F2ECEC" stroke="black" stroke-width="0.5547" stroke-miterlimit="10"/>
<path d="M304.318 359.686C307.855 367.178 307.281 370.439 305.986 372.021C304.548 373.787 302.146 373.529 300.575 376.336C300.312 376.803 299.085 378.988 299.796 381.278L300.174 382.177C305.431 381.642 310.687 381.108 315.943 380.57C321.096 371.866 326.244 363.15 331.397 354.439C330.284 353.167 327.814 350.67 323.83 349.394C321.583 348.668 319.577 348.571 318.179 348.623C316.619 357.235 314.567 359.514 312.836 359.79C310.532 360.145 307.832 357.087 305.568 358.322C304.892 358.691 304.513 359.3 304.318 359.686Z" fill="#F2ECEC" stroke="black" stroke-width="0.5547" stroke-miterlimit="10"/>
<path d="M311.649 96.3116C304.06 113.831 296.516 131.368 288.968 148.912C294.098 149.815 299.205 150.654 304.358 151.523C308.766 145.124 313.341 137.663 317.565 129.136C318.631 127.042 319.68 124.873 320.7 122.634C321.388 121.144 322.024 119.632 322.683 118.072C324.942 112.668 326.811 107.457 328.37 102.492C330.606 93.2456 326.278 86.0875 322.334 85.4605C318.786 84.9438 313.713 89.2299 311.649 96.3116Z" fill="#FEE9DD"/>
<path d="M303.934 117.423C308.451 121.311 313.048 125.247 317.565 129.136C318.631 127.042 319.68 124.873 320.7 122.635L303.934 117.423Z" fill="#EACDBD"/>
<path d="M298.719 117.662C306.996 120.535 315.262 123.405 323.533 126.278C325.901 115.851 328.268 105.432 330.641 95.0059C330.492 93.5743 329.907 89.672 326.755 86.5013C325.47 85.213 324.135 84.4131 323.075 83.912C322.455 83.8086 319.005 83.3254 315.852 85.6962C312.997 87.8479 312.338 90.8863 312.206 91.5983C307.712 100.283 303.218 108.976 298.719 117.662Z" fill="#F2ECEC"/>
<path d="M243.3 180.056C244.291 181.771 245.283 183.49 246.275 185.211C259.894 181.999 276.981 175.959 294.011 164.134C298.104 161.299 301.824 158.376 305.206 155.459C305.596 154.464 305.986 153.25 306.273 151.852C306.57 150.402 306.685 149.108 306.719 148.009C303.24 146.213 299.766 144.406 296.293 142.61C291.793 144.572 288.446 146.501 286.508 147.685C270.493 157.451 266.675 167.508 250.866 176.368C247.547 178.231 244.756 179.447 243.3 180.056Z" fill="#FEE9DD"/>
<path d="M258.06 83.8041C257.429 86.5488 256.885 89.7582 256.621 93.3785C256.3 97.7387 256.472 101.605 256.822 104.816C259.292 105.041 261.763 105.258 264.239 105.477C264.17 102.426 264.377 98.6195 265.316 94.3385C266.858 87.3129 269.713 82.0014 271.931 78.5967C269.323 79.2128 266.388 80.0982 263.259 81.3749C261.361 82.1523 259.625 82.9822 258.06 83.8041Z" fill="#FFD18D"/>
<path d="M291.941 105.478C292.296 101.623 293.185 96.5371 295.358 90.9095C298.504 82.7869 302.987 77.0668 306.156 73.6372C310.955 74.6781 315.752 75.7207 320.55 76.7611C316.744 80.3866 312.554 84.8791 308.375 90.3044C303.95 96.0718 300.545 101.594 297.943 106.444C295.942 106.123 293.941 105.794 291.941 105.478Z" fill="#FFD18D"/>
<path d="M259.785 10.5499C260.267 13.9032 261.614 19.2545 265.953 22.5917C269.673 25.4572 273.513 25.2214 283.367 25.1515C304.02 24.9966 307.133 25.8641 307.792 24.0817C309.161 20.3712 298.626 11.7405 288.148 8.83915C283.631 7.59192 276.867 5.72685 272 8.83915C270.871 9.56507 269.306 10.9048 266.693 11.4012C263.941 11.9185 261.476 11.2325 259.785 10.5499Z" fill="black"/>
<path d="M292.302 23.1909C290.531 30.3195 294.257 35.9927 297.943 36.4938C301.176 36.9359 305.543 33.5583 306.036 29.2722C306.3 26.9933 305.389 25.1594 304.901 24.3301L292.302 23.1909Z" fill="black"/>
<path d="M307.081 35.999C307.304 39.2963 305.515 42.1081 303.085 42.2624C300.655 42.4311 298.511 39.8823 298.287 36.5787C298.069 33.2774 299.864 30.468 302.288 30.3015C304.718 30.142 306.863 32.6902 307.081 35.999Z" fill="#FEE9DD"/>
<path d="M302.856 42.851C302.145 42.851 301.434 42.6481 300.792 42.2615L300.592 41.4801L301.371 41.2795C301.904 41.5899 302.438 41.7627 303.045 41.6933C304.289 41.6078 305.401 40.664 306.031 39.1671L306.777 38.8613L307.081 39.6052C306.289 41.5199 304.811 42.7227 303.125 42.8371L302.856 42.851Z" fill="#171930"/>
<path d="M306.823 39.1856L306.273 38.4551C306.451 37.828 306.537 37.1604 306.537 36.4819L307.099 35.8999L307.678 36.4709C307.683 37.2575 307.58 38.0285 307.38 38.7724L306.823 39.1856Z" fill="#171930"/>
<path d="M307.017 35.9223L306.45 35.4345C306.054 32.706 304.272 30.7033 302.328 30.8767L301.119 31.2518L300.34 31.038L300.551 30.256C301.09 29.9462 301.658 29.7728 302.254 29.733C304.954 29.7214 307.109 32.0494 307.579 35.2657L307.098 35.9177L307.017 35.9223Z" fill="#171930"/>
<path d="M301.969 39.784L301.424 39.0309L303.258 33.4033L303.98 33.0415L304.347 33.7651L302.513 39.3858L301.969 39.784Z" fill="#171930"/>
<path d="M302.851 36.4931L302.381 36.2504L301.211 34.5939L301.349 33.7935L302.151 33.9333L303.32 35.5892L303.183 36.3937L302.851 36.4931Z" fill="#171930"/>
<path d="M311.558 14.9502C311.558 19.9918 308.004 24.082 303.619 24.082C299.228 24.082 295.674 19.9918 295.674 14.9502C295.674 9.90525 299.228 5.81445 303.619 5.81445C308.004 5.81445 311.558 9.90525 311.558 14.9502Z" fill="black"/>
<path d="M208.052 267.147L198.921 264.599L216.668 190.193L225.799 192.746L208.052 267.147Z" fill="#8B8B8B"/>
<path d="M206.844 187.827C209.08 187.731 211.505 187.978 213.797 189.427C216.715 191.264 218.71 194.639 219.776 199.467C221.249 195.763 223.376 192.954 226.093 191.102C229.096 189.059 231.836 188.863 235.986 188.571C237.075 188.495 238.29 188.409 239.695 188.276C243.771 187.903 247.708 187.535 250.162 187.126C245.444 183.829 232.633 178.374 218.429 179.687C212.083 180.28 205.87 182.195 199.926 185.382C199.656 186.867 199.788 187.724 200.023 188.018C200.43 188.531 202.454 188.283 203.926 188.104C204.838 188 205.818 187.874 206.844 187.827ZM221.628 204.973L220.693 204.825C220.062 204.582 219.57 204.105 219.277 203.512L218.016 204.187C216.652 204.468 215.305 203.467 215.053 201.97C214.382 197.988 213.092 195.365 211.229 194.192C209.343 193 206.861 193.3 204.5 193.588C201.605 193.938 198.303 194.34 196.148 191.603C194.549 189.582 194.263 186.602 195.282 182.737C195.472 182.011 195.936 181.401 196.549 181.051C203.399 177.19 210.61 174.877 217.982 174.192C235.43 172.558 251.824 180.321 255.653 184.935C256.673 186.182 257.086 187.461 256.856 188.72C256.209 192.282 252.483 192.628 240.125 193.778C238.692 193.908 237.436 193.997 236.319 194.077C232.472 194.354 230.713 194.473 228.81 195.768C226.654 197.235 225.021 199.703 223.938 203.11C223.582 204.214 222.642 204.928 221.628 204.973Z" fill="#ADADAD"/>
<path d="M212.049 191.319C211.596 198.581 211.137 205.854 210.685 213.127C213.683 210.737 217.219 210.538 219.22 212.349C219.615 212.706 220.504 213.639 220.876 215.525C224.04 208.085 227.21 200.653 230.374 193.214C229.83 192.344 227.503 188.841 223.123 187.782C217.013 186.303 212.422 190.929 212.049 191.319Z" fill="#ADADAD"/>
<path d="M194.732 383.96H127.081L158.694 270.622C162.873 255.622 175.643 245.358 190.117 245.358H226.504C229.926 245.358 232.386 248.936 231.394 252.492L194.732 383.96Z" fill="#ADADAD"/>
<path d="M207.897 383.96H186.838L225.495 245.358H225.914C236.191 245.358 243.557 256.088 240.594 266.743L207.897 383.96Z" fill="#8B8B8B"/>
<path d="M210.988 391.095H105.213C105.506 387.752 106.555 380.882 111.163 374.278C114.7 369.207 120.501 364.478 133.427 361.21C156.613 355.342 180.229 359.974 192.748 363.247C198.83 366.942 204.906 370.635 210.988 374.323C210.988 379.916 210.988 385.508 210.988 391.095Z" fill="#5E5E5E"/>
<path d="M213.114 401.406C210.518 401.033 206.363 400.624 201.267 401.01C195.431 401.457 193.993 402.534 188.685 402.648C181.909 402.799 182.213 401.095 176.023 401.269C168.875 401.468 168.118 403.754 160.981 403.493C156.723 403.334 156.802 402.516 152.131 402.504C147.465 402.493 146.038 403.305 141.297 403.168C136.826 403.035 137.279 402.287 133.439 402.172C125.861 401.951 124.817 404.894 119.59 403.725C115.835 402.88 115.423 401.095 111.45 400.934C108.986 400.837 107.885 401.457 104.738 401.785C102.623 402.003 99.6079 402.084 95.8702 401.406C95.647 398.76 95.7274 394.744 98.0484 391.636C100.944 387.748 105.059 387.357 105.747 387.298C141.538 388.157 177.329 389.006 213.114 389.858V401.406Z" fill="#303030"/>
<path d="M210.683 270.655C209.451 273.75 206.9 275.541 204.991 274.648C203.077 273.763 202.521 270.522 203.753 267.428C204.986 264.333 207.531 262.544 209.445 263.434C211.36 264.321 211.916 267.56 210.683 270.655Z" fill="#8B8B8B"/>
<path d="M229.491 173.351C229.084 173.587 228.459 173.904 227.651 174.169C226.493 174.549 225.656 174.571 225.14 174.641C224.126 174.785 222.715 175.297 221.053 177.023C220.411 177.772 219.78 178.518 219.144 179.266C216.45 181.701 215.338 181.929 214.828 181.614L213.802 180.86L212.85 181.505L211.652 181.102C211.429 181.401 210.81 182.138 209.744 182.467C208.007 182.984 206.562 181.981 206.379 181.844C206.494 176.857 206.603 171.861 206.717 166.874C208.677 166.206 210.644 165.539 212.61 164.872C215.533 165.465 218.451 166.044 221.368 166.631L229.491 173.351Z" fill="#FEE9DD"/>
<path d="M259.899 177.242C259.492 177.485 258.856 177.805 258.053 178.071C256.901 178.439 256.064 178.466 255.537 178.543C254.528 178.68 253.118 179.196 251.455 180.923C250.819 181.671 250.183 182.42 249.541 183.161C246.859 185.602 245.735 185.827 245.23 185.515L244.21 184.762L243.253 185.4L242.061 185.004C241.837 185.297 241.218 186.038 240.146 186.355C238.415 186.885 236.97 185.872 236.787 185.746C236.896 180.756 237.011 175.762 237.12 170.769C239.086 170.102 241.052 169.44 243.018 168.773C245.93 169.353 248.854 169.946 251.776 170.528L259.899 177.242Z" fill="#FEE9DD"/>
<path d="M211.102 182.264L210.54 181.786L209.279 174.44L209.749 173.778L210.409 174.25L211.67 181.598L211.2 182.258L211.102 182.264Z" fill="#171930"/>
<path d="M213.521 181.557L212.953 181.022L212.747 177.386L213.286 176.776L213.894 177.316L214.094 180.953L213.555 181.557H213.521Z" fill="#171930"/>
<path d="M240.37 185.787L239.797 185.238L239.556 180.62L240.1 180.022L240.696 180.568L240.937 185.182L240.399 185.787H240.37Z" fill="#171930"/>
<path d="M242.291 184.606L241.729 183.916L242.743 178.968L243.42 178.525L243.861 179.203L242.846 184.152L242.291 184.606Z" fill="#171930"/>
<path d="M245.941 185.028C245.397 184.814 245.288 184.468 245.437 184.18L246.096 182.921L246.87 182.679L247.111 183.456L246.451 184.722L245.941 185.028Z" fill="#171930"/>
<path d="M292.05 148.101L291.592 147.876L290.01 145.774L290.118 144.963L290.927 145.08L292.509 147.179L292.4 147.984L292.05 148.101Z" fill="#171930"/>
<path d="M253.646 145.062L253.154 144.786L251.222 141.558L251.417 140.769L252.208 140.965L254.139 144.187L253.945 144.981L253.646 145.062Z" fill="#171930"/>
</g>
<defs>
<clipPath id="clip0_1256_3197">
<rect width="523.251" height="404" fill="white" transform="translate(0.374512)"/>
</clipPath>
</defs>
</svg>
