<svg width="440" height="511" viewBox="0 0 440 511" fill="none" xmlns="http://www.w3.org/2000/svg">
<g clip-path="url(#clip0_1242_3126)">
<path d="M253.627 116.313C268.148 133.503 282.623 150.734 297.097 167.957C291.621 170.74 286.138 173.436 280.615 176.178C273.469 170.469 265.762 163.605 258.102 155.418C256.182 153.408 254.269 151.324 252.356 149.151C251.078 147.699 249.84 146.205 248.563 144.671C244.175 139.342 240.302 134.093 236.854 129.015C231.188 119.334 233.642 109.768 237.888 107.711C241.714 105.913 248.901 109.022 253.627 116.313Z" fill="#FFEDE2"/>
<path d="M269.515 137.515C265.735 143.455 261.882 149.477 258.103 155.418C256.183 153.408 254.27 151.324 252.356 149.151L269.515 137.515Z" fill="#F9C8AF"/>
<path d="M162.63 130.903C151.826 150.659 140.968 170.387 130.111 190.116C125.568 185.975 121.106 181.793 116.583 177.591C119.348 168.846 122.979 159.172 127.86 149.056C129.036 146.544 130.3 144.005 131.639 141.425C132.532 139.715 133.478 138.017 134.452 136.279C137.838 130.257 141.34 124.752 144.829 119.7C151.813 110.929 161.588 109.816 165.016 113.068C168.051 116.014 167.727 123.862 162.63 130.903Z" fill="#FFEDE2" stroke="#1C1C1C" stroke-width="0.562362" stroke-miterlimit="10" stroke-linecap="round"/>
<path d="M148.587 153.374C141.712 151.948 134.728 150.475 127.859 149.056C129.036 146.544 130.3 144.005 131.639 141.425L148.587 153.374Z" fill="#F9C8AF"/>
<path d="M253.45 120.875C217.633 120.657 181.816 120.447 145.991 120.237C146.728 116.598 148.33 111.682 152.312 107.806C160.303 100.046 170.336 103.889 178.435 97.7923C182.714 94.5741 187.244 88.0841 187.832 73.7593L189.461 73.6369C192.741 73.4129 196.013 73.1821 199.285 72.9514C202.543 73.1821 205.816 73.4129 209.088 73.6369L210.717 73.7593C211.311 88.0841 215.828 94.5741 220.114 97.7923C228.173 103.841 237.853 100.161 246.224 107.806C250.624 111.825 252.531 117.019 253.45 120.875Z" fill="#FFEDE2" stroke="#1C1C1C" stroke-width="0.562362" stroke-miterlimit="10" stroke-linecap="round"/>
<path d="M209.008 83.3181C209.008 89.6999 204.701 94.8728 199.381 94.8728C194.074 94.8728 189.768 89.6999 189.768 83.3181C189.768 76.9364 194.074 71.7634 199.381 71.7634C204.701 71.7634 209.008 76.9364 209.008 83.3181Z" fill="#F9C8AF"/>
<path d="M231.377 118.499L232.594 118.879C233.243 119.402 233.466 120.386 233.135 121.337C209.108 121.337 185.088 121.337 161.067 121.337C160.776 120.576 160.966 119.748 161.52 119.266L162.974 118.879C172.54 116.374 180.01 116.428 185.114 116.964C189.279 117.406 190.361 118.01 194.965 118.234C203.145 118.628 206.721 117.066 213.401 116.625C217.532 116.347 223.663 116.449 231.377 118.499Z" fill="white"/>
<path d="M194.966 103.474C195.96 104.73 197.548 105.321 199.083 105.009C201.253 104.567 202.078 102.544 202.139 102.402L194.966 103.474Z" fill="#F9C8AF"/>
<path d="M202.599 107.229C203.126 107.481 203.937 107.834 204.964 108.153C208.399 109.226 211.279 109.015 213.287 108.845C220.561 108.227 227.281 107.209 229.546 106.849C224.327 107.026 219.114 107.209 213.896 107.386L202.599 107.229Z" fill="#F9C8AF"/>
<path d="M195.959 107.229C195.432 107.481 194.62 107.834 193.593 108.153C190.158 109.226 187.278 109.015 185.27 108.845C177.996 108.227 171.276 107.209 169.011 106.849C174.23 107.026 179.443 107.209 184.662 107.386L195.959 107.229Z" fill="#F9C8AF"/>
<path d="M192.505 352.686C183.939 351.05 175.374 349.413 166.808 347.784C161.805 334.654 156.755 318.218 153.429 298.944C150.427 281.557 149.535 265.936 149.609 252.881C164.719 256.934 180.241 260.301 196.189 262.894L197.603 263.118C198.015 270.382 198.238 277.925 198.238 285.719C198.224 310.336 195.912 332.801 192.505 352.686Z" fill="#FFEDE2"/>
<path d="M192.714 355.137C192.714 363.066 185.954 369.081 178.808 369.108C173.311 369.129 168.146 365.599 165.746 360.147C165.983 358.076 166.199 355.938 166.382 353.751C166.557 351.722 166.693 349.725 166.808 347.784C167.206 347.2 171.601 341.07 178.808 341.172C185.731 341.26 192.714 347.078 192.714 355.137Z" fill="#FFEDE2"/>
<path d="M191.226 480.639C187.549 479.716 183.864 478.792 180.186 477.869C180.234 475.438 180.247 471.63 179.97 466.993C177.854 431.201 162.832 417.066 161.919 388.939C161.71 382.259 162.21 372.443 165.962 360.365C174.879 358.946 183.796 357.52 192.713 356.101C193.207 382.232 192.362 402.532 191.443 416.659C190.929 424.487 189.922 437.685 190.165 455.9C190.307 466.287 190.807 474.848 191.226 480.639Z" fill="#FFEDE2"/>
<path d="M194.418 501.114C185.142 501.039 175.866 500.971 166.598 500.897C165.929 499.913 165.232 498.521 165.537 497.061C166.071 494.481 169.396 493.361 171.269 492.37C174.392 490.706 178.009 486.972 180.186 477.868C183.797 478.221 187.407 478.581 191.017 478.934C192.092 482.967 193.045 486.715 193.992 490.449C194.546 492.627 195.168 495.2 194.843 498.554C194.735 499.634 194.553 500.517 194.418 501.114Z" fill="#FFEDE2"/>
<path d="M222.873 356.128C231.026 353.032 239.179 349.929 247.333 346.834C249.997 333.031 252.147 315.971 252.099 296.404C252.059 278.76 250.246 263.22 247.928 250.375C233.737 256.988 219.033 263.003 203.775 268.325L202.422 268.794C203.267 276.024 204.342 283.492 205.688 291.164C209.94 315.414 216.092 337.132 222.873 356.128Z" fill="#FFEDE2"/>
<path d="M223.083 358.579C224.449 366.386 232.149 371.139 239.193 369.916C244.602 368.987 249.084 364.614 250.51 358.83C249.916 356.827 249.341 354.763 248.78 352.638C248.26 350.663 247.779 348.728 247.333 346.834C246.84 346.331 241.458 341.049 234.38 342.401C227.572 343.697 221.697 350.643 223.083 358.579Z" fill="#FFEDE2"/>
<path d="M246.169 481.929C249.631 480.381 253.099 478.833 256.567 477.285C256.101 474.895 255.431 471.148 254.904 466.531C250.821 430.909 263.186 414.385 259.231 386.515C258.298 379.903 256.108 370.317 250.334 359.075C241.308 359.224 232.276 359.373 223.251 359.523C227.267 385.348 231.594 405.193 234.94 418.954C236.786 426.571 240.058 439.395 242.951 457.379C244.601 467.631 245.588 476.151 246.169 481.929Z" fill="#FFEDE2"/>
<path d="M243.284 501.115C252.559 501.04 261.827 500.972 271.103 500.898C271.766 499.913 272.462 498.522 272.165 497.062C271.603 494.387 268.068 493.158 266.432 492.371C263.058 490.748 258.927 486.749 256.135 476.057C252.985 477.014 249.827 477.971 246.677 478.935C245.609 482.968 244.656 486.715 243.709 490.449C243.155 492.628 242.526 495.201 242.858 498.555C242.965 499.635 243.142 500.517 243.284 501.115Z" fill="#FFEDE2"/>
<path d="M234.981 214.496C230.864 207.388 226.314 201.753 222.238 197.435C224.888 183.552 227.545 169.675 230.202 155.785C235.313 153.205 238.794 148.038 238.794 142.098C238.794 138.174 237.28 134.589 234.786 131.867C235.489 128.201 236.185 124.541 236.888 120.875C234.886 118.506 231.919 115.709 227.755 113.618C214.51 106.992 200.678 113.401 198.447 114.48C196.013 113.401 182.174 106.992 168.931 113.618C164.766 115.709 161.798 118.506 159.797 120.875C160.5 124.541 161.203 128.201 161.9 131.867C159.405 134.589 157.89 138.174 157.89 142.098C157.89 148.038 161.372 153.205 166.483 155.785C169.14 169.675 171.797 183.552 174.454 197.435C170.371 201.753 165.827 207.388 161.71 214.496C153.043 229.472 150.447 243.804 149.608 252.881C157.566 256.174 167.639 259.466 179.552 261.408C186.089 262.48 192.16 262.969 197.602 263.119C197.846 259.975 198.839 259.975 199.083 263.119C204.532 262.969 210.596 262.48 217.14 261.408C229.046 259.466 239.126 256.174 247.083 252.881C246.245 243.804 243.641 229.472 234.981 214.496Z" fill="#FFEDE2"/>
<path d="M194.681 23.6424C192.538 23.8261 190.692 24.1113 188.962 24.4779C179.43 26.5074 172.912 35.374 173.811 45.1232L175.624 64.9062C176.353 67.35 179.146 75.5857 187.467 80.8743C192.295 83.9424 196.993 84.757 199.691 85.0086L200.198 84.9474L200.712 84.9138C203.315 84.1738 207.79 82.5103 211.975 78.6067C219.202 71.8853 220.446 63.2769 220.723 60.7376L218.911 40.9546C218.012 31.2054 210.001 23.6768 200.259 23.4319C198.487 23.3915 196.621 23.446 194.681 23.6424Z" fill="#FFEDE2" stroke="#1C1C1C" stroke-width="0.562362" stroke-miterlimit="10" stroke-linecap="round"/>
<path d="M178.76 54.5461C179.118 58.5311 177.042 61.98 174.122 62.2517C171.188 62.5235 168.524 59.5092 168.159 55.5236C167.794 51.5453 169.869 48.0965 172.797 47.8254C175.724 47.5536 178.388 50.5679 178.76 54.5461Z" fill="#FFEDE2" stroke="#1C1C1C" stroke-width="0.562362" stroke-miterlimit="10" stroke-linecap="round"/>
<path d="M226.348 50.1537C226.713 54.132 224.637 57.5808 221.71 57.8526C218.783 58.1176 216.119 55.11 215.753 51.1251C215.389 47.1461 217.464 43.6973 220.392 43.4262C223.312 43.1544 225.982 46.1687 226.348 50.1537Z" fill="#FFEDE2" stroke="#1C1C1C" stroke-width="0.562362" stroke-miterlimit="10" stroke-linecap="round"/>
<path d="M196.168 70.9692C196.891 70.4667 197.649 70.2971 198.413 70.2084C199.183 70.1478 199.961 70.1814 200.765 70.5481C200.042 71.0573 199.285 71.2268 198.514 71.3082C197.75 71.3627 196.972 71.3358 196.168 70.9692Z" fill="#171930"/>
<path d="M199.563 81.1997C198.407 81.1997 197.271 81.0026 196.162 80.6091L195.75 79.7467L196.615 79.333C197.744 79.7265 198.9 79.8826 200.104 79.8281C201.388 79.7467 202.666 79.3801 203.795 78.7559L204.714 79.0344L204.444 79.9505C203.139 80.6636 201.666 81.0914 200.192 81.1795L199.563 81.1997Z" fill="#171930"/>
<path d="M204.958 75.3616C205.262 75.959 205.586 76.8617 205.235 77.6017C205.066 77.9615 204.593 78.5858 200.496 78.98C195.952 79.4213 195.189 78.7762 194.918 78.5044C194.147 77.7241 194.032 76.5832 194.046 75.8433C194.735 75.6327 195.736 75.3475 196.947 75.0287C198.299 74.6688 198.975 74.4925 199.604 74.3768C201.34 74.058 204.701 73.725 205.066 74.7098L204.958 75.3616Z" fill="#F9C8AF"/>
<path d="M216.558 50.2628C214.523 50.1202 211.704 50.1202 208.432 50.7377C205.633 51.2604 203.334 52.0683 201.638 52.8015L201.604 51.4918C201.705 50.3032 202.151 49.3668 202.503 48.7762C204.741 48.3887 206.62 48.1782 207.999 48.0497C211.339 47.7577 212.306 47.934 212.942 48.1035C214.713 48.5925 215.895 49.5841 216.558 50.2628Z" fill="#171930"/>
<path d="M201.246 48.9322C201.097 49.3123 200.921 49.8753 200.84 50.5547C200.692 51.7561 200.894 52.8903 201.023 52.8829L201.354 51.0431C201.422 50.4188 201.442 49.8753 201.692 49.1219L201.861 48.6941L201.246 48.9322Z" fill="#171930"/>
<path d="M177.82 55.5379C179.795 55.0286 182.573 54.5127 185.899 54.5194C188.752 54.5194 191.152 54.8928 192.95 55.3065L192.748 54.0102C192.436 52.8559 191.828 52.0211 191.368 51.5051C189.104 51.532 187.218 51.6679 185.838 51.7971C182.492 52.1226 181.579 52.4758 180.991 52.761C179.335 53.5622 178.348 54.7569 177.82 55.5379Z" fill="#171930"/>
<path d="M192.64 51.4305C192.85 51.7763 193.127 52.2922 193.337 52.9508C193.695 54.1051 193.702 55.2527 193.573 55.2729L192.911 53.5212C192.735 52.9171 192.62 52.3945 192.235 51.7016L191.991 51.3081L192.64 51.4305Z" fill="#171930"/>
<path d="M190.949 62.9782C191.085 64.3969 189.847 65.7073 188.185 65.9178C186.521 66.1149 185.061 65.1234 184.926 63.7047C184.791 62.2853 186.028 60.9689 187.691 60.7651C189.354 60.568 190.814 61.5528 190.949 62.9782Z" fill="#171930"/>
<path d="M180.64 62.3811L179.971 61.7696L180.572 61.0229C183.337 60.731 186.122 60.4189 188.935 60.0725L192.011 59.6924L192.768 60.2763L192.18 61.0364L189.098 61.4239C186.278 61.7629 183.479 62.0824 180.714 62.3744L180.64 62.3811Z" fill="#171930"/>
<path d="M205.999 61.6946C206.451 63.0393 208.122 63.7315 209.724 63.2357C211.32 62.7265 212.252 61.2264 211.792 59.8757C211.34 58.5242 209.669 57.832 208.074 58.3345C206.472 58.837 205.546 60.3371 205.999 61.6946Z" fill="#171930"/>
<path d="M203.89 60.4597L203.241 59.9774L203.694 59.1291C204.674 58.8298 205.668 58.5244 206.655 58.219C209.359 57.3707 212.03 56.5151 214.673 55.646L215.532 56.0805L215.099 56.9362C212.449 57.8046 209.772 58.667 207.061 59.5159C206.06 59.8213 205.073 60.1267 204.086 60.4254L203.89 60.4597Z" fill="#171930"/>
<path d="M198.232 77.1468C194.913 77.1468 192.303 76.0268 190.91 75.2593L190.64 74.3431L191.559 74.0646C193.1 74.9129 196.285 76.2508 200.24 75.6394C203.431 75.1577 205.723 73.6637 207.095 72.4966L208.048 72.5712L207.967 73.5285C206.466 74.8113 203.945 76.4472 200.436 76.984C199.672 77.0923 198.935 77.1468 198.232 77.1468Z" fill="#171930"/>
<path d="M151.671 229.391C149.947 241.916 149.373 252.338 149.183 259.711C148.189 297.247 155.14 327.486 159.189 344.614C160.101 348.484 160.913 351.648 161.447 353.671C159.615 364.703 158.364 377.29 158.438 391.146C158.621 428.018 168.005 458.031 176.476 478.188C178.166 479.546 181.762 482.011 185.995 481.46C185.995 481.46 189.929 480.951 193.505 476.932C201.909 467.509 195.69 369.734 195.013 359.455C197.853 323.901 200.692 288.34 203.532 252.793C186.244 244.992 168.958 237.192 151.671 229.391Z" fill="#FFD18D" stroke="#1C1C1C" stroke-width="0.562362" stroke-miterlimit="10" stroke-linecap="round"/>
<path d="M230.08 158.079H162.569C159.77 147.97 156.971 137.868 154.179 127.766C150.589 125.96 146.993 124.154 143.409 122.355C143.957 119.721 145.417 114.575 149.67 109.775C150.711 108.6 153.158 105.885 157.188 103.862C161.974 101.452 164.631 102.212 171.588 100.094C175.029 99.0416 177.713 97.8335 179.382 97.0182C185.284 105.647 195.486 109.375 204.031 106.503C212.557 103.638 215.924 95.3688 216.438 94.0449C218.087 95.4367 220.771 97.4191 224.442 98.9535C231.473 101.907 234.245 99.9107 240.478 102.735C246.738 105.559 250.186 110.379 251.248 111.913C253.81 115.593 254.959 119.158 255.507 121.472C247.036 133.673 238.558 145.872 230.08 158.079Z" fill="white" stroke="#1C1C1C" stroke-width="0.562362" stroke-miterlimit="10" stroke-linecap="round"/>
<path d="M275.484 136.008C267.115 142.084 258.758 148.154 250.396 154.229C244.182 143.265 237.962 132.301 231.75 121.344C231.425 119.667 230.763 115.057 233.244 110.4C234.258 108.506 235.502 107.141 236.516 106.218C237.186 105.892 240.924 104.161 245.285 105.756C249.239 107.209 251.011 110.42 251.403 111.18C259.428 119.45 267.452 127.732 275.484 136.008Z" fill="white" stroke="#1C1C1C" stroke-width="0.562362" stroke-miterlimit="10" stroke-linecap="round"/>
<path d="M152.538 154.641C143.905 148.965 135.265 143.29 126.632 137.614C134.609 127.872 142.587 118.13 150.571 108.387C152.011 107.484 156.06 105.21 161.28 105.882C163.403 106.147 165.113 106.826 166.337 107.451C166.878 107.967 169.825 110.859 169.893 115.516C169.954 119.745 167.601 122.549 167.04 123.188C162.206 133.67 157.372 144.152 152.538 154.641Z" fill="white" stroke="#1C1C1C" stroke-width="0.562362" stroke-miterlimit="10" stroke-linecap="round"/>
<path d="M243.987 225.242C254.33 260.172 259.894 299.46 255.486 341.613C255.162 344.743 254.783 347.832 254.364 350.88C257.44 361.845 260.151 374.16 261.949 387.704C266.581 422.532 263.531 452.702 259.143 475.174C256.676 476.64 252.863 478.378 248.118 478.446C248.118 478.446 245.23 478.48 242.357 477.686C232.879 475.065 222.569 369.197 221.758 360.779C218.012 348.952 214.463 336.25 211.292 322.72C205.661 298.693 202.226 276.249 200.205 255.983C184.027 247.124 167.849 238.258 151.671 229.391C152.611 225.684 153.868 221.617 155.552 217.32C158.506 209.798 162.007 203.572 165.266 198.643C163.137 184.108 161.007 169.587 158.877 155.058C158.127 152.132 157.343 147.59 157.891 142.098C158.526 135.614 160.723 130.719 162.258 127.888C174.42 125.098 190.402 122.804 209.041 123.733C218.979 124.236 227.924 125.56 235.678 127.196C237.226 129.932 240.079 135.865 239.849 143.734C239.72 148.316 238.592 152.016 237.598 154.494C235.218 168.643 232.838 182.791 230.459 196.946C234.968 206.376 239.478 215.806 243.987 225.242Z" fill="#FFD18D" stroke="#1C1C1C" stroke-width="0.562362" stroke-miterlimit="10" stroke-linecap="round"/>
<path d="M152.753 105.674C156.058 114.269 159.358 122.871 162.657 131.465C165.51 130.536 168.363 129.612 171.216 128.689C170.601 118.98 169.992 109.279 169.377 99.5708C166.443 99.8157 162.339 100.528 157.918 102.626C155.89 103.583 154.172 104.656 152.753 105.674Z" fill="#FFD18D" stroke="#1C1C1C" stroke-width="0.562362" stroke-miterlimit="10" stroke-linecap="round"/>
<path d="M232.379 99.8225C229.384 110.115 226.388 120.4 223.394 130.685C226.335 131.48 229.276 132.267 232.216 133.054C238.104 123.713 243.993 114.365 249.882 105.022C249.328 104.5 248.455 103.753 247.265 103.047C245.413 101.961 243.682 101.513 238.808 100.739C237.05 100.46 234.88 100.141 232.379 99.8225Z" fill="#FFD18D" stroke="#1C1C1C" stroke-width="0.562362" stroke-miterlimit="10" stroke-linecap="round"/>
<path d="M171.851 132.389C171.851 134.976 169.761 137.074 167.185 137.074C164.603 137.074 162.514 134.976 162.514 132.389C162.514 129.796 164.603 127.698 167.185 127.698C169.761 127.698 171.851 129.796 171.851 132.389Z" fill="#99A1D0"/>
<path d="M232.4 132.389C232.4 134.976 230.31 137.074 227.728 137.074C225.152 137.074 223.063 134.976 223.063 132.389C223.063 129.796 225.152 127.698 227.728 127.698C230.31 127.698 232.4 129.796 232.4 132.389Z" fill="#99A1D0"/>
<path d="M202.132 273.417L201.287 272.549L201.578 260.505L202.443 259.677L203.268 260.546L202.978 272.589L202.132 273.417Z" fill="black"/>
<path d="M202.422 261.373L201.808 261.109L201.835 259.914L209.772 252.269L210.968 252.297L210.941 253.491L203.004 261.136L202.422 261.373Z" fill="black"/>
<path d="M171.459 359.923L171.039 359.808L165.752 356.759L165.441 355.606L166.591 355.286L171.884 358.341L172.195 359.496L171.459 359.923Z" fill="black"/>
<path d="M189.247 365.083C188.536 364.886 188.3 364.403 188.449 363.962L189.449 360.975L190.524 360.438L191.051 361.518L190.051 364.506L189.247 365.083Z" fill="black"/>
<path d="M227.261 367.072L226.497 366.59L225.313 364.092L225.712 362.965L226.835 363.365L228.025 365.857L227.626 366.991L227.261 367.072Z" fill="black"/>
<path d="M250.139 358.403C249.388 358.158 249.186 357.663 249.354 357.228L251.321 352.367L252.417 351.905L252.883 353.005L250.923 357.866L250.139 358.403Z" fill="black"/>
<path d="M191.606 152.084C192.545 154.229 193.478 156.382 194.418 158.527C181.857 169.274 164.205 181.365 141.117 189.356C135.574 191.271 130.206 192.784 125.081 193.973C120.592 193.158 116.915 189.927 115.549 185.588C113.48 179.01 117.983 173.829 118.186 173.605C123.675 172.302 128.083 171.297 130.788 170.687C159.229 164.271 168.911 163.103 182.837 156.728C186.92 154.861 190.023 153.048 191.606 152.084Z" fill="#FFEDE2" stroke="#1C1C1C" stroke-width="0.562362" stroke-miterlimit="10" stroke-linecap="round"/>
<path d="M197.737 150.889C197.425 151.127 195.262 152.716 192.943 152.044C190.348 151.29 188.475 147.963 189.286 144.229C191.017 142.518 191.287 141.283 191.159 140.448C191.044 139.674 190.571 139.043 190.855 138.282C191.084 137.644 191.7 137.284 192.187 137.074C200.279 139.979 208.365 142.878 216.45 145.784C215.76 147.481 215.071 149.192 214.381 150.889C212.495 149.925 207.141 147.515 201.219 149.321C199.873 149.735 198.717 150.292 197.737 150.889Z" fill="white"/>
<path d="M217.669 152.668L212.104 150.394L214.613 144.209L220.183 146.49L217.669 152.668Z" fill="white"/>
<path d="M177.165 214.862L161.737 208.541C162.251 180.665 166.592 173.027 170.851 171.792C172.068 171.439 174.15 171.358 176.888 169.918C181.283 167.604 183.804 163.666 185.251 160.645C186.792 156.863 188.334 153.082 189.868 149.307C190.714 149.884 192.126 150.692 194.04 151.045C195.041 151.229 195.939 151.242 196.65 151.194C195.453 154.772 194.256 158.343 193.059 161.921C193.384 165.058 193.776 169.701 193.904 175.343C194.134 185.716 194.256 190.903 192.593 196.185C191.497 199.681 188.226 207.7 177.165 214.862Z" fill="#D0EED4" stroke="#1C1C1C" stroke-width="0.562362" stroke-miterlimit="10" stroke-linecap="round"/>
<path d="M177.93 156.66C170.236 157.95 162.542 159.24 154.849 160.523C154.017 162.138 151.394 167.726 152.902 174.807C154.125 180.516 157.377 184.114 158.777 185.499C168.093 179.145 177.416 172.797 186.732 166.456C191.674 166.273 196.622 166.09 201.564 165.906C202.464 162.077 203.37 158.248 204.275 154.413C206.77 155.934 209.224 155.451 209.88 154.27C210.475 153.184 209.515 151.589 209.393 151.385C206.229 149.85 203.058 148.316 199.901 146.782C194.986 149.416 192.694 149.232 191.552 148.356C190.666 147.684 190.125 146.34 189.118 146.388C188.361 146.415 187.773 147.189 187.381 147.868C184.23 150.801 181.08 153.734 177.93 156.66Z" fill="#1E1E1E" stroke="#1C1C1C" stroke-width="0.562362" stroke-miterlimit="10" stroke-linecap="round"/>
<path d="M179.687 32.4209C179.687 38.5309 188.746 43.4872 199.914 43.4872C211.089 43.4872 220.148 38.5309 220.148 32.4209C220.148 26.311 211.089 21.3479 199.914 21.3479C188.746 21.3479 179.687 26.311 179.687 32.4209Z" fill="#1C1C1C"/>
<path d="M185.075 36.2838L184.041 36.3793C181.452 37.1872 181.877 41.9733 179.16 47.418C178.511 48.7082 176.374 52.9986 174.65 52.6999C172.365 52.3064 172.136 44.105 172.108 42.985C172.034 39.4003 171.966 36.1553 173.893 32.7946C175.827 29.4338 180.343 24.9396 183.669 26.3792C185.9 27.3566 187.022 30.7711 186.86 34.4917L185.075 36.2838Z" fill="#1C1C1C"/>
<path d="M214.476 39.448C214.476 44.1117 216.078 47.8935 218.045 47.8935C220.019 47.8935 221.615 44.1117 221.615 39.448C221.615 34.7836 220.019 31.0024 218.045 31.0024C216.078 31.0024 214.476 34.7836 214.476 39.448Z" fill="#1C1C1C"/>
<path d="M156.586 20.8455C156.586 31.9596 166.599 40.9682 178.957 40.9682C191.308 40.9682 201.321 31.9596 201.321 20.8455C201.321 9.73214 191.308 0.7229 178.957 0.7229C166.599 0.7229 156.586 9.73214 156.586 20.8455Z" fill="#1C1C1C"/>
<path d="M260.982 482.845C263.443 485.153 265.904 487.455 268.365 489.763C269.243 489.132 272.536 486.891 274.753 488.004C277.336 489.294 278.255 495.004 275.26 501.834C263.571 501.834 251.876 501.834 240.187 501.834C240.227 500.347 240.376 498.697 240.687 496.932C241.559 491.997 243.391 488.093 245 485.371C251.916 489.138 254.587 489.138 255.594 488.127C256.696 487.013 255.83 484.596 257.473 483.347C258.555 482.519 260.035 482.655 260.982 482.845Z" fill="white" stroke="#1C1C1C" stroke-width="0.562362" stroke-miterlimit="10" stroke-linecap="round"/>
<path d="M176.644 482.845C174.183 485.153 171.723 487.455 169.254 489.763C168.383 489.132 165.09 486.891 162.873 488.004C160.29 489.294 159.364 495.004 162.366 501.834C174.055 501.834 185.751 501.834 197.439 501.834C197.392 500.347 197.25 498.697 196.939 496.932C196.067 491.997 194.235 488.093 192.626 485.371C185.703 489.138 183.04 489.138 182.032 488.127C180.923 487.013 181.789 484.596 180.153 483.347C179.064 482.519 177.59 482.655 176.644 482.845Z" fill="white" stroke="#1C1C1C" stroke-width="0.562362" stroke-miterlimit="10" stroke-linecap="round"/>
<path d="M52.9121 348.225H63.1813V253.417H52.9121V348.225Z" fill="#1C1C1C"/>
<path d="M66.1895 462.057H74.0794V359.129H66.1895V462.057Z" fill="#1C1C1C" stroke="#1C1C1C" stroke-width="0.562362" stroke-miterlimit="10" stroke-linecap="round"/>
<path d="M118.348 495.29C117.51 491.983 116.314 488.772 114.786 485.751C111.831 479.919 104.889 469.308 91.5359 463.816C85.0055 461.12 77.6975 460.041 70.4298 460.72L69.9697 455.648C78.0419 454.895 86.1686 456.103 93.4565 459.097C108.329 465.227 116.036 476.979 119.309 483.442C121.006 486.803 122.331 490.368 123.257 494.033L118.348 495.29Z" fill="#1C1C1C"/>
<path d="M102.136 487.869C102.136 495.092 107.97 500.951 115.164 500.951C122.357 500.951 128.191 495.092 128.191 487.869C128.191 480.645 122.357 474.786 115.164 474.786C107.97 474.786 102.136 480.645 102.136 487.869Z" fill="#1C1C1C"/>
<path d="M22.9293 495.29L18.0146 494.033C18.9409 490.36 20.2722 486.796 21.9694 483.442C25.2413 476.979 32.9489 465.227 47.8152 459.097C55.0963 456.103 63.2156 454.902 71.308 455.648L70.8418 460.72C63.5674 460.054 56.2661 461.12 49.7417 463.815C36.3897 469.308 29.4402 479.919 26.4925 485.751C24.9641 488.765 23.7674 491.976 22.9293 495.29Z" fill="#1C1C1C"/>
<path d="M58.7531 494.902L53.71 494.421C54.0476 490.87 54.5414 487.401 55.1697 484.122C56.4007 477.699 59.341 465.995 65.1281 459.729C69.2725 455.228 73.3557 455.058 76.0464 455.71L74.8638 460.659C72.8761 460.17 70.8412 461.025 68.8467 463.184C63.7289 468.731 61.0583 480.347 60.1455 485.079C59.5509 488.209 59.0773 491.515 58.7531 494.902Z" fill="#1C1C1C"/>
<path d="M39.1341 487.869C39.1341 495.092 33.3 500.951 26.107 500.951C18.9133 500.951 13.0791 495.092 13.0791 487.869C13.0791 480.645 18.9133 474.786 26.107 474.786C33.3 474.786 39.1341 480.645 39.1341 487.869Z" fill="#1C1C1C"/>
<path d="M76.2091 489.404C76.2091 496.628 70.3743 502.487 63.1813 502.487C55.9883 502.487 50.1602 496.628 50.1602 489.404C50.1602 482.18 55.9883 476.321 63.1813 476.321C70.3743 476.321 76.2091 482.18 76.2091 489.404Z" fill="#1C1C1C"/>
<path d="M15.4112 363.467H126.738C130.91 363.467 134.33 360.038 134.33 355.843C134.33 351.654 130.91 348.225 126.738 348.225H15.4112C11.2399 348.225 7.81934 351.654 7.81934 355.843C7.81934 360.038 11.2399 363.467 15.4112 363.467Z" fill="#ADADAD" stroke="#1C1C1C" stroke-width="0.562362" stroke-miterlimit="10" stroke-linecap="round"/>
<path d="M11.4629 312.563H101.378C107.673 312.563 112.784 307.438 112.784 301.11V272.203C112.784 265.875 107.673 260.743 101.378 260.743H11.4629C5.16184 260.743 0.0507812 265.875 0.0507812 272.203V301.11C0.0507812 307.438 5.16184 312.563 11.4629 312.563Z" fill="#ADADAD" stroke="#1C1C1C" stroke-width="0.562362" stroke-miterlimit="10" stroke-linecap="round"/>
<path d="M13.8359 368.756C28.9054 371.566 47.2192 373.8 68.069 373.909C90.2709 374.024 109.674 371.696 125.433 368.756C125.433 366.998 125.433 365.232 125.433 363.467H13.8359V368.756Z" fill="#1C1C1C"/>
<path d="M15.3369 311.558H439.949V290.96H15.3369V311.558Z" fill="black" stroke="#1C1C1C" stroke-width="0.562362" stroke-miterlimit="10" stroke-linecap="round"/>
<path d="M301.668 510.416C345.004 510.416 388.346 510.416 431.688 510.416V309.664H298.288C299.417 376.583 300.54 443.496 301.668 510.416Z" fill="black" stroke="#1C1C1C" stroke-width="0.562362" stroke-miterlimit="10" stroke-linecap="round"/>
<path d="M33.0565 510.416C37.4445 510.416 41.825 510.416 46.2129 510.416V311.559H26.6748C28.7978 377.839 30.9275 444.128 33.0565 510.416Z" fill="black" stroke="#1C1C1C" stroke-width="0.562362" stroke-miterlimit="10" stroke-linecap="round"/>
<path d="M430.18 312.21H307.679L306.833 311.361L307.679 310.512H430.18L431.025 311.361L430.18 312.21Z" fill="black"/>
<path d="M45.4002 312.406H26.6935L25.8486 311.558L26.6935 310.709H45.4002L46.2451 311.558L45.4002 312.406Z" fill="black"/>
<path d="M234.974 268.536H387.406C392.902 268.536 398.054 264.062 398.912 258.536L413.86 161.813C414.705 156.286 410.939 151.805 405.442 151.805H253.012C247.509 151.805 242.357 156.286 241.506 161.813L226.558 258.536C225.706 264.062 229.471 268.536 234.974 268.536Z" fill="white" stroke="#1C1C1C" stroke-width="0.562362" stroke-miterlimit="10" stroke-linecap="round"/>
<path d="M292.467 248.163H367.868L373.749 191.304H298.348L292.467 248.163Z" fill="#ADADAD"/>
<path d="M328.912 290.96H341.879V239.479H328.912V290.96Z" fill="#ADADAD"/>
<path d="M295.828 290.96H362.933C364.062 290.96 364.981 290.037 364.981 288.896C364.981 287.769 364.062 286.839 362.933 286.839H295.828C294.705 286.839 293.779 287.769 293.779 288.896C293.779 290.037 294.705 290.96 295.828 290.96Z" fill="#ADADAD"/>
<path d="M328.338 149.939C343.766 154.962 347.147 157.087 346.937 158.052C346.673 159.274 340.927 157.488 333.219 159.749C323.153 162.702 322.456 168.826 314.621 169.749C306.927 170.659 305.474 165.003 298.653 166.165C289.492 167.719 288.674 178.493 280.426 179.186C274.653 179.668 269.278 174.868 266.709 170.503C263.254 164.617 263.464 157.101 267.277 151.072C287.633 150.692 307.982 150.319 328.338 149.939Z" fill="#D0EED4"/>
<path d="M277.749 150.054C277.025 151.093 272.577 157.583 273.861 158.852C275.294 160.272 283.056 154.365 283.759 153.822C287.801 154.657 293.805 155.73 301.167 156.34C309.686 157.047 322.977 157.386 323.213 155.71C323.335 154.854 320.083 153.129 303.926 149.293C299.287 148.038 294.657 146.782 290.019 145.519C285.929 147.033 281.839 148.54 277.749 150.054Z" fill="#1E1E1E"/>
</g>
<defs>
<clipPath id="clip0_1242_3126">
<rect width="439.899" height="509.693" fill="white" transform="translate(0.0507812 0.7229)"/>
</clipPath>
</defs>
</svg>
