<svg width="26" height="23" viewBox="0 0 26 23" fill="none" xmlns="http://www.w3.org/2000/svg">
<g clip-path="url(#clip0_1272_3207)">
<path d="M7.54 0.0979004H18.46C22.62 0.0979004 26 2.9579 26 6.4779V15.7179C26 17.41 25.2056 19.0328 23.7916 20.2292C22.3776 21.4257 20.4597 22.0979 18.46 22.0979H7.54C3.38 22.0979 0 19.2379 0 15.7179V6.4779C0 4.78582 0.794391 3.16304 2.20841 1.96656C3.62244 0.770077 5.54027 0.0979004 7.54 0.0979004ZM7.28 2.2979C6.03879 2.2979 4.84841 2.71511 3.97074 3.45776C3.09307 4.2004 2.6 5.20764 2.6 6.2579V15.9379C2.6 18.1269 4.693 19.8979 7.28 19.8979H18.72C19.9612 19.8979 21.1516 19.4807 22.0293 18.738C22.9069 17.9954 23.4 16.9882 23.4 15.9379V6.2579C23.4 4.0689 21.307 2.2979 18.72 2.2979H7.28ZM19.825 3.9479C20.256 3.9479 20.6693 4.09277 20.974 4.35063C21.2788 4.60849 21.45 4.95823 21.45 5.3229C21.45 5.68757 21.2788 6.03731 20.974 6.29517C20.6693 6.55303 20.256 6.6979 19.825 6.6979C19.394 6.6979 18.9807 6.55303 18.6759 6.29517C18.3712 6.03731 18.2 5.68757 18.2 5.3229C18.2 4.95823 18.3712 4.60849 18.6759 4.35063C18.9807 4.09277 19.394 3.9479 19.825 3.9479ZM13 5.5979C14.7239 5.5979 16.3772 6.17736 17.5962 7.20881C18.8152 8.24026 19.5 9.63921 19.5 11.0979C19.5 12.5566 18.8152 13.9555 17.5962 14.987C16.3772 16.0184 14.7239 16.5979 13 16.5979C11.2761 16.5979 9.62279 16.0184 8.40381 14.987C7.18482 13.9555 6.5 12.5566 6.5 11.0979C6.5 9.63921 7.18482 8.24026 8.40381 7.20881C9.62279 6.17736 11.2761 5.5979 13 5.5979ZM13 7.7979C11.9657 7.7979 10.9737 8.14558 10.2423 8.76445C9.51089 9.38332 9.1 10.2227 9.1 11.0979C9.1 11.9731 9.51089 12.8125 10.2423 13.4314C10.9737 14.0502 11.9657 14.3979 13 14.3979C14.0343 14.3979 15.0263 14.0502 15.7577 13.4314C16.4891 12.8125 16.9 11.9731 16.9 11.0979C16.9 10.2227 16.4891 9.38332 15.7577 8.76445C15.0263 8.14558 14.0343 7.7979 13 7.7979Z" fill="black"/>
</g>
<defs>
<clipPath id="clip0_1272_3207">
<rect width="26" height="22" fill="white" transform="translate(0 0.0979004)"/>
</clipPath>
</defs>
</svg>
