<svg width="110" height="110" viewBox="0 0 110 110" fill="none" xmlns="http://www.w3.org/2000/svg">
<g clip-path="url(#clip0_1242_3122)">
<path d="M43.8607 15.0079C30.1486 16.2524 17.7372 23.0875 9.59914 33.8418C6.97936 37.3151 4.4339 42.0143 2.89176 46.1749C1.96276 48.7195 0.866536 53.1401 0.439195 56.0376C-0.0253047 59.3066 -0.0253047 65.9003 0.439195 68.9464C2.0185 79.2549 6.51486 88.3747 13.5567 95.5628C17.4956 99.5933 21.2674 102.379 25.9867 104.757C37.8222 110.756 51.5714 111.611 63.8713 107.097C68.1633 105.537 73.5887 102.491 77.1746 99.649C79.1069 98.126 82.8787 94.374 84.458 92.4424C93.6179 81.1866 97.111 66.2718 93.9524 52.0442C93.2092 48.7566 92.9119 47.9208 92.2244 47.2336C91.6484 46.6578 91.537 46.6206 90.5894 46.6949C89.4188 46.7878 88.7685 47.2707 88.4527 48.2366C88.2855 48.738 88.3598 49.2581 88.8986 51.357C89.9019 55.2389 90.3107 58.415 90.3107 62.4456C90.2921 69.1879 89.0472 74.8529 86.2231 80.778C83.0087 87.5389 78.085 93.3711 72.0094 97.5873C64.7818 102.621 56.5322 105.203 47.6696 105.203C44.065 105.203 42.3928 105.054 39.1228 104.404C26.1353 101.804 14.8944 93.1667 9.13464 81.3166C5.04704 72.9026 3.7836 63.7272 5.49296 54.6445C6.77498 47.7165 9.84068 41.0485 14.2256 35.6249C15.712 33.7675 18.982 30.4799 20.71 29.0869C24.2588 26.2265 29.6098 23.329 33.9575 21.8988C39.1599 20.19 43.136 19.6328 48.8401 19.7814C52.8348 19.8743 55.3803 20.2457 59.0591 21.2301C60.8614 21.7131 61.2516 21.7688 61.7904 21.5831C62.7937 21.2487 63.3697 20.4315 63.3697 19.317C63.3697 18.5184 63.2954 18.3141 62.7565 17.7754C62.3664 17.3854 61.7718 17.0696 61.0472 16.8467C59.2449 16.3266 56.1235 15.658 54.0425 15.3422C52.2031 15.0822 45.5886 14.8593 43.8607 15.0079Z" fill="black"/>
<path d="M77.0071 20.2644C76.6169 20.5616 73.1424 23.9606 69.2778 27.8239C63.3879 33.749 62.2546 34.9749 62.0873 35.6064C61.9759 36.0336 61.883 38.0953 61.883 40.5285V44.689L53.7263 52.8801C46.5916 60.0124 45.5511 61.1454 45.4396 61.7398C45.2538 62.6871 45.4396 63.3186 46.0714 63.9501C46.7031 64.5816 47.3348 64.7674 48.2824 64.5816C48.877 64.4702 49.9918 63.43 57.1451 56.2977L65.3388 48.1437H69.5008C71.9347 48.1437 73.9971 48.0509 74.4245 47.9394C75.0562 47.7723 76.2825 46.6393 82.2095 40.7513C86.0741 36.888 89.4743 33.4147 89.7715 33.0246C90.3847 32.1888 90.4776 31.1858 90.0317 30.3128C89.5486 29.3656 89.2327 29.2913 84.9222 29.1984L80.9275 29.1055L80.8346 25.1122C80.7417 20.803 80.6673 20.4873 79.7198 20.0043C78.8465 19.5586 77.8432 19.6514 77.0071 20.2644ZM76.524 32.6903C77.0442 33.6004 77.7689 33.8419 80.0914 33.8419H82.2281L77.4902 38.5782L72.7523 43.3145H69.7423H66.7138V40.3056V37.278L71.4145 32.5788L76.0967 27.8982L76.1896 30.0714C76.2453 31.3715 76.3754 32.4303 76.524 32.6903Z" fill="black"/>
<path d="M42.839 29.4957C30.4833 31.4088 20.4501 39.7856 16.3811 51.5243C13.5198 59.8268 14.0772 68.928 17.9604 76.8404C25.1694 91.6252 42.2816 98.8876 57.9817 93.8355C60.36 93.074 64.0016 91.2909 66.1569 89.8422C73.4403 84.9758 78.5312 77.3419 80.2963 68.6679C80.6865 66.6991 80.9838 61.0155 80.7608 59.7711C80.4821 58.2852 78.9028 57.3193 77.6394 57.858C77.3049 58.0065 76.8219 58.3409 76.5803 58.6195C76.1344 59.0838 76.1158 59.1953 76.0972 62.4086C76.0601 64.8789 75.9672 66.1605 75.6699 67.5907C73.3288 79.0693 64.9121 87.6133 53.411 90.1579C51.8689 90.4922 50.9771 90.5665 47.7627 90.5665C44.5112 90.5665 43.6937 90.5108 42.133 90.1579C36.2989 88.8577 31.7653 86.406 27.6777 82.3197C23.5716 78.2335 20.9332 73.2928 19.7627 67.5164C19.261 65.0275 19.3167 59.1024 19.8556 56.6321C20.4501 53.976 21.2491 51.71 22.4196 49.4068C26.47 41.5315 33.6048 36.1637 42.4303 34.362C43.8609 34.0648 45.1429 33.972 47.6512 33.9348L50.9771 33.9162L51.5902 33.229C52.3706 32.3932 52.4449 31.4273 51.7946 30.4801C51.0514 29.3656 50.4568 29.1985 47.2982 29.2171C45.7747 29.2356 43.768 29.3471 42.839 29.4957Z" fill="black"/>
<path d="M45.0868 43.5189C39.0483 44.4476 33.6787 48.2367 30.966 53.5117C26.321 62.5571 29.4982 73.6086 38.175 78.6235C41.4265 80.4995 44.6594 81.2982 48.4126 81.1496C51.4783 81.0196 53.3549 80.5552 56.0304 79.255C62.2547 76.2275 66.4724 69.8381 66.5838 63.2444C66.621 61.387 66.6024 61.3498 66.0822 60.7926C64.7258 59.3624 62.5891 59.8639 62.0689 61.7213C61.9574 62.0742 61.8831 62.78 61.8831 63.3001C61.8831 64.6003 61.27 66.922 60.4896 68.5008C58.6873 72.1784 55.2686 74.983 51.3482 76.0232C49.6203 76.4875 46.5546 76.5804 44.8824 76.2089C39.5685 75.0573 35.388 71.0825 33.9759 65.8261C33.4557 63.8573 33.4557 60.6812 33.9759 58.7123C35.3137 53.6974 39.2898 49.7783 44.3064 48.5153C45.1239 48.311 46.2016 48.1438 46.7218 48.1438C48.5984 48.1438 49.6203 47.568 49.9733 46.3236C50.2149 45.5249 49.9362 44.6148 49.2487 43.9647C48.747 43.4818 48.5241 43.4075 47.4279 43.3889C46.7404 43.3517 45.6813 43.426 45.0868 43.5189Z" fill="black"/>
</g>
<defs>
<clipPath id="clip0_1242_3122">
<rect width="110" height="110" fill="white"/>
</clipPath>
</defs>
</svg>
