<svg width="542" height="384" viewBox="0 0 542 384" fill="none" xmlns="http://www.w3.org/2000/svg">
<g clip-path="url(#clip0_1256_3188)">
<path d="M477.867 367.991C687.976 295.454 315.995 43.2294 229.101 5.30423C142.207 -32.6212 -51.6329 143.055 14.046 207.572C79.7249 272.088 282.574 435.414 477.867 367.991Z" fill="#D0EED4"/>
<path d="M213.06 215.789C211.284 214.778 209.507 213.768 207.725 212.751C210.922 198.592 216.986 180.817 229.008 163.042C231.897 158.784 234.87 154.888 237.843 151.362C239.146 150.298 240.454 149.227 241.757 148.163C244.89 152.277 248.017 156.386 251.143 160.503C249.165 165.177 247.211 168.673 246.003 170.696C236.096 187.393 225.775 191.438 216.791 207.909C214.902 211.37 213.67 214.279 213.06 215.789Z" fill="#FEE9DD"/>
<path d="M235.421 186.307C229.712 183.809 224.009 181.31 218.301 178.812C213.806 188.029 209.306 197.247 204.811 206.464C209.749 209.515 214.683 212.567 219.621 215.61C224.886 205.84 230.15 196.069 235.421 186.307Z" fill="black"/>
<path d="M278.123 116.432C267.843 133.266 257.515 150.066 247.181 166.865C243.386 163.041 239.649 159.199 235.877 155.334C238.654 147.801 242.243 139.48 246.933 130.846C248.076 128.699 249.284 126.529 250.563 124.334C251.416 122.871 252.316 121.426 253.24 119.939C256.461 114.819 259.748 110.15 263.016 105.881C269.495 98.5009 278.094 97.9364 280.953 100.929C283.488 103.635 282.878 110.49 278.123 116.432Z" fill="#FFB68D"/>
<path d="M264.889 135.503C258.937 133.963 252.89 132.381 246.934 130.846C248.076 128.7 249.284 126.529 250.563 124.334L264.889 135.503Z" fill="#E88D60"/>
<path d="M267.766 140.075C260.453 134.748 253.133 129.412 245.813 124.084C253.204 115.895 260.595 107.707 267.985 99.5253C269.282 98.7941 272.924 96.9793 277.46 97.7834C279.302 98.104 280.776 98.7757 281.818 99.3702C282.274 99.8391 284.726 102.498 284.59 106.578C284.472 110.283 282.292 112.636 281.771 113.173C277.105 122.135 272.438 131.101 267.766 140.075Z" fill="#BBC4FE"/>
<path d="M205.498 126.042C197.32 130.971 189.148 135.901 180.97 140.825C179.413 151.761 177.85 162.698 176.286 173.632C179.17 173.978 183.439 174.215 188.449 173.365C194.951 172.259 199.44 169.888 204.971 166.979C211.793 163.399 218.834 160.21 225.473 156.299C234.029 151.256 248.479 145.095 274.186 140.624L290.423 110.325C290.82 108.671 292.478 102.618 298.394 98.2224C299.199 97.6205 300.005 97.11 300.81 96.6705C305.713 93.9762 310.356 94.0136 311.848 94.0712C311.576 92.1761 311.304 90.2896 311.025 88.3921C310.599 85.4673 310.178 82.5468 309.746 79.627C298.767 80.3704 287.782 81.1188 276.797 81.8689C272.261 81.8083 265.35 82.3078 258.031 85.5856C245.737 91.0864 242.172 99.9882 229.813 110.722C224.78 115.094 216.928 120.951 205.498 126.042Z" fill="#FEE9DD"/>
<path d="M255.976 124.97C249.35 128.028 246.436 135.9 249.486 142.555C252.523 149.215 260.364 152.128 266.996 149.078C273.623 146.021 276.531 138.148 273.487 131.493C270.443 124.833 262.603 121.914 255.976 124.97Z" fill="#FFB68D"/>
<path d="M213.606 251.618C221.234 248.004 228.855 244.375 236.482 240.761C235.049 230.324 232.746 218.637 229.08 206.121C222.139 182.423 212.529 163.263 203.782 148.877C193.567 161.751 183.357 174.627 173.137 187.501C175.482 197.419 178.845 204.758 181.469 209.61C184.4 215.041 187.349 219.09 206.269 242.545C209.277 246.266 211.794 249.384 213.606 251.618Z" fill="#FFD18D"/>
<path d="M182.32 254.682C190.741 254.235 199.162 253.789 207.589 253.348C210.206 243.144 212.486 231.459 213.824 218.476C216.359 193.911 214.706 172.522 212.054 155.876C205.859 147.717 199.665 139.564 193.477 131.406C189.521 131.643 181.012 132.748 173.579 139.03C163.193 147.817 159.219 163.102 163.193 178.176C164.845 183.986 166.953 192.586 168.451 203.567C168.682 205.257 168.605 204.997 168.812 206.316C169.642 211.691 171.602 218.888 178.956 243.489C180.331 248.073 181.491 251.922 182.32 254.682Z" fill="#FFD18D"/>
<path d="M206.274 350.542C210.117 350.786 213.967 351.034 217.804 351.286C218.2 332.725 219.888 311.431 223.945 288.143C226.864 271.432 230.565 256.191 234.55 242.567C226.118 242.442 217.685 242.316 209.253 242.193C206.866 246.776 203.982 253.02 201.436 260.686C199.162 267.543 196.124 276.7 195.674 287.4C194.933 304.847 201.761 310.177 205.16 338.016C205.806 343.304 206.114 347.664 206.274 350.542Z" fill="#FFB68D"/>
<path d="M203.485 375.942H252.221C252.393 375.87 253.891 375.234 254.27 373.698C254.625 372.23 253.814 370.56 252.221 369.779C249.367 369.507 245.346 368.918 240.685 367.538C236.167 366.195 231.234 364.732 226.177 360.813C223.974 359.101 220.694 356.109 217.804 351.287C213.966 351.036 210.117 350.787 206.274 350.543C206.286 359.277 204.367 364.232 202.555 367.164C201.844 368.311 199.914 371.136 200.879 373.515C201.394 374.792 202.579 375.524 203.485 375.942Z" fill="#FEE9DD"/>
<path d="M300.276 83.6535C300.946 88.5132 301.869 92.5811 302.71 95.7069C302.912 96.446 304.078 100.666 306.956 104.467C307.726 105.489 308.632 106.502 309.994 106.656C311.955 106.887 313.228 105.496 313.34 105.366L314.133 105.394C314.601 105.657 314.536 106.37 315.205 106.674C315.827 106.895 316.698 106.917 317.136 106.365L317.397 105.424C317.533 105.531 318.54 106.346 319.694 106.026L320.665 105.176C320.872 104.676 321.145 104.093 321.506 103.473C323.828 99.4609 327.724 97.0681 329.648 96.6759C329.868 96.6293 330.768 96.462 331.952 96.0697L333.167 95.5935C336.151 94.2806 337.981 92.3531 339.029 91.2235C341.676 88.3808 343.044 85.3611 343.766 83.2674C344.696 80.7986 345.827 76.6309 344.986 71.7485C343.476 62.9001 335.085 52.4102 324.485 52.7651C313.719 53.1414 305.754 64.5059 305.139 70.7844C305.05 71.7528 304.919 74.7033 303.451 78.26C302.444 80.6987 301.177 82.5129 300.276 83.6535Z" fill="#FEE9DD"/>
<path d="M321.418 102.117L322.798 102.8L323.87 103.837C324.065 103.948 324.551 104.187 325.184 104.122L326.523 103.502C327.15 102.842 327.097 101.867 327.097 101.481C327.097 100.608 327.453 99.1326 329.081 96.54C327.589 97.1462 326.096 97.764 324.604 98.3708C323.538 99.6199 322.478 100.868 321.418 102.117Z" fill="#FEE9DD"/>
<path d="M331.082 94.8098L330.578 94.5284C329.915 93.4528 329.205 92.417 328.464 91.448C327.742 90.5023 326.984 89.6062 326.214 88.761L326.244 87.9287L327.085 87.9569C327.878 88.8211 328.66 89.7552 329.406 90.7278C330.17 91.722 330.904 92.7933 331.585 93.899L331.396 94.7191L331.082 94.8098Z" fill="#171930"/>
<path d="M327.707 92.2948C326.635 92.9966 326.156 94.1556 326.63 94.8868C327.104 95.6192 328.359 95.6351 329.431 94.934C330.497 94.2322 330.977 93.0732 330.503 92.3414C330.029 91.6163 328.779 91.593 327.707 92.2948Z" fill="#171930"/>
<path d="M316.882 104.852L316.563 104.763C316.154 104.501 315.449 103.913 315.26 102.884L315.378 101.481L316.13 101.112L316.497 101.874L316.426 102.67C316.533 103.258 316.959 103.604 317.202 103.764L317.38 104.58L316.882 104.852Z" fill="#171930"/>
<path d="M317.965 103.77C317.243 103.651 316.65 103.597 316.26 103.575C316.336 103.92 316.585 104.798 317.397 105.423C317.479 105.496 318.865 106.525 320.026 105.888L320.849 104.775C320.719 104.204 319.487 104.009 317.965 103.77Z" fill="#E88D60"/>
<path d="M335.76 91.6162C335.808 91.7161 336.139 92.5202 335.719 93.3513C335.37 94.0415 334.742 94.2805 334.594 94.3344L335.76 91.6162Z" fill="#171930"/>
<path d="M335.648 91.4012L335.008 92.6749C334.629 93.5366 334.623 93.7431 334.481 93.7799C333.954 93.8988 333.279 91.3479 331.704 89.1347C330.585 87.5596 329.27 86.5372 328.293 85.9127L329.489 85.8594C333.167 86.1493 335.316 90.6701 335.648 91.4012Z" fill="#171930"/>
<path d="M314.204 105.792L313.66 105.435L313.05 103.997L313.37 103.216L314.145 103.533L314.755 104.972L314.436 105.751L314.204 105.792Z" fill="#171930"/>
<path d="M298.549 249.09H386.582C389.342 217.187 392.102 185.288 394.861 153.379C359.65 153.158 324.439 152.939 289.222 152.719C292.331 184.843 295.44 216.974 298.549 249.09Z" fill="#8B8B8B"/>
<path d="M287.238 155.375H397.596C399.456 155.375 400.984 153.949 400.984 152.207C400.984 150.464 399.456 149.036 397.596 149.036H287.238C285.378 149.036 283.856 150.464 283.856 152.207C283.856 153.949 285.378 155.375 287.238 155.375Z" fill="#8B8B8B"/>
<path d="M393.522 151.385C390.152 148.549 384.775 144.493 377.409 140.902C371.676 138.107 348.789 127.354 321.904 134.818C308.088 138.653 298.323 145.88 292.359 151.385H393.522Z" fill="#8B8B8B"/>
<path d="M367.336 272.252C363.931 279.407 359.774 290.473 358.607 304.543C356.315 332.267 367.158 353.206 371.588 360.805C375.543 361.726 379.494 362.642 383.449 363.553C382.105 367.845 380.76 372.141 379.416 376.429C349.855 376.51 320.287 376.594 290.714 376.67C289.772 371.866 288.831 367.056 287.889 362.249C290.649 362.119 293.408 361.989 296.162 361.859C299.934 358.6 314.893 344.897 318.765 320.576C322.988 294.078 310.942 274.412 308.473 270.552C328.092 271.116 347.711 271.683 367.336 272.252Z" fill="#8B8B8B"/>
<path d="M382.744 364.136H291.128L290.388 363.392L291.128 362.649H382.744L383.484 363.392L382.744 364.136Z" fill="#5E5E5E"/>
<path d="M363.416 251.648H370.8V238.112H363.416V251.648Z" fill="white"/>
<path d="M309.366 251.648H316.751V238.112H309.366V251.648Z" fill="white"/>
<path d="M393.522 156.119H293.81L293.07 155.376L293.81 154.633H393.522L394.262 155.376L393.522 156.119Z" fill="#5E5E5E"/>
<path d="M388.594 149.929H297.504L296.765 149.186L297.504 148.442H388.594L389.334 149.186L388.594 149.929Z" fill="#5E5E5E"/>
<path d="M305.874 198.526C300.644 216.134 304.014 231.368 306.548 239.468C317.847 240.383 330.2 240.973 343.477 240.978C355.634 240.985 367.01 240.505 377.498 239.73C380.66 232.232 385.794 216.756 381.075 198.526C376.811 182.052 362.604 156.007 343.477 156.072C323.627 156.137 310.108 184.289 305.874 198.526Z" fill="white"/>
<path d="M300.835 78.6324C303.203 81.8869 310.819 81.483 318.938 78.0802C319.856 79.2459 321.194 80.6795 323.054 81.9868C331.391 87.8455 345.45 87.7156 348.89 81.4946C352.266 75.3809 344.236 65.4691 342.43 63.2436C340.073 60.3348 332.398 50.8691 322.118 52.0747C316.125 52.7832 312.228 56.7671 309.173 59.9003C304.672 64.505 297.666 74.2869 300.835 78.6324Z" fill="black"/>
<path d="M287.966 69.4881C287.966 75.5105 292.993 80.3935 299.2 80.3935C305.4 80.3935 310.427 75.5105 310.427 69.4881C310.427 63.4645 305.4 58.5815 299.2 58.5815C292.993 58.5815 287.966 63.4645 287.966 69.4881Z" fill="black"/>
<path d="M314.899 78.7701C312.05 80.645 310.854 83.8786 312.234 85.9852C313.607 88.1015 317.036 88.2964 319.891 86.424C322.739 84.5449 323.935 81.3161 322.555 79.2047C321.182 77.0883 317.753 76.8977 314.899 78.7701Z" fill="#FEE9DD"/>
<path d="M313.885 87.9344C312.848 87.5489 312.185 87.0071 311.735 86.3109C310.782 84.8497 310.847 82.8682 311.925 81.0191L312.742 80.8101L312.95 81.6252C312.103 83.0698 312.02 84.58 312.725 85.663C313.05 86.1625 313.518 86.5431 314.11 86.7865L314.43 87.5673L313.885 87.9344Z" fill="#171930"/>
<path d="M312.907 81.2137L312.546 81.0954L312.434 80.257C312.907 79.6392 313.482 79.0747 314.139 78.5801L314.968 78.7057L314.844 79.5319C314.275 79.9597 313.784 80.447 313.381 80.9845L312.907 81.2137Z" fill="#171930"/>
<path d="M323.1 81.2816L322.514 80.7631L322.063 79.5251C320.956 77.8249 318.244 77.5687 315.757 78.9489L314.951 78.7117L315.188 77.9039C318.227 76.2381 321.613 76.6585 323.053 78.8772C323.39 79.3951 323.604 79.9829 323.686 80.6142L323.171 81.2816H323.1Z" fill="#171930"/>
<path d="M315.443 85.6095L315.106 85.5028L314.958 84.6828L318.44 79.6582L319.263 79.5093L319.411 80.3293L315.929 85.3539L315.443 85.6095Z" fill="#171930"/>
<path d="M317.593 82.8253L317 82.2491L317.575 81.6436L319.665 81.5786L320.275 82.1541L319.7 82.7609L317.61 82.8253H317.593Z" fill="#171930"/>
<path d="M123.061 321.83C125.791 324.56 128.521 327.285 131.257 330.014C143.71 316.295 158.929 301.363 177.239 286.508C190.386 275.845 203.159 266.819 215.08 259.183C208.815 253.52 202.544 247.859 196.272 242.193C191.476 244.073 185.216 246.867 178.276 250.964C172.076 254.621 163.785 259.509 156.436 267.269C144.45 279.925 146.103 288.446 130.416 311.668C127.443 316.067 124.82 319.559 123.061 321.83Z" fill="#FFB68D"/>
<path d="M104.312 339.118C112.182 349.609 120.052 360.104 127.922 370.601C132.292 370.838 136.657 371.075 141.021 371.314C141.199 371.379 142.745 371.885 144.029 370.975C145.261 370.113 145.741 368.311 145.06 366.675C138.682 364.94 135.816 361.697 134.614 360.02C133.702 358.761 131.92 355.841 131.315 342.71C131.072 337.369 131.15 332.969 131.256 330.015C128.52 327.285 125.791 324.56 123.06 321.831C117.34 328.42 112.655 330.881 109.363 331.894C108.078 332.286 104.78 333.141 103.945 335.569C103.5 336.869 103.909 338.203 104.312 339.118Z" fill="#FEE9DD"/>
<path d="M236.481 240.76C234.054 277.242 231.62 313.731 229.192 350.215C222.204 352.399 211.812 354.348 200.222 351.541C198.298 351.076 196.486 350.512 194.792 349.887C193.335 331.162 192.921 309.449 194.792 285.43C196.137 268.215 198.458 252.451 201.211 238.333C212.972 239.142 224.721 239.952 236.481 240.76Z" fill="#FFD18D"/>
<path d="M215.146 264.499C190.79 289.91 166.433 315.332 142.077 340.742C140.2 339.344 138.293 337.811 136.369 336.115C128.978 329.592 123.595 322.658 119.698 316.502C126.894 300.442 141.26 274.638 168.63 253.04C179.669 244.322 190.523 238.112 200.01 233.648L215.146 264.499Z" fill="#FFD18D"/>
<path d="M213.226 161.651C234.391 153.467 255.55 145.29 276.714 137.109C282.488 126.447 288.256 115.789 294.029 105.127C290.192 97.2474 286.349 89.363 282.511 81.4841C277.454 80.8706 267.594 80.406 256.509 84.8018C248.935 87.8093 243.54 91.9979 240.218 95.0477C224.252 107.719 208.287 120.393 192.328 133.06C199.292 142.591 206.256 152.118 213.226 161.651Z" fill="#F2ECEC"/>
<path d="M217.527 174.928C226.711 173.573 244.714 169.582 262.106 155.863C272.517 147.652 279.25 138.69 283.389 132.065C281.92 131.993 276.301 131.542 271.978 126.998C269.763 124.667 268.739 122.165 268.247 120.61C262.23 128.402 247.947 144.534 224.142 151.898C215.004 154.727 206.678 155.578 200.01 155.642C205.843 162.073 211.688 168.5 217.527 174.928Z" fill="#FFD18D"/>
<path d="M194.792 286.173L194.057 285.509L190.273 248.24L190.931 247.425L191.748 248.087L195.532 285.36L194.869 286.169L194.792 286.173Z" fill="#414257"/>
<path d="M190.132 247.176L189.421 246.646L172.432 190.675L172.923 189.755L173.847 190.248L190.843 246.219L190.351 247.141L190.132 247.176Z" fill="#414257"/>
<path d="M181.634 246.955L181.018 246.616L179.904 244.911L180.118 243.882L181.142 244.096L182.255 245.803L182.037 246.829L181.634 246.955Z" fill="#414257"/>
<path d="M210.976 350.013L210.242 349.174C211.599 338.314 212.777 327.302 213.748 316.437C216.135 289.779 217.39 262.661 217.479 235.859L218.219 235.116L218.959 235.859C218.871 262.71 217.615 289.867 215.223 316.57C214.251 327.457 213.073 338.482 211.711 349.358L210.976 350.013Z" fill="#414257"/>
<path d="M215.803 230.869L215.127 230.43L192.091 179.311L192.026 178.895L194.662 159.95L195.497 159.313L196.13 160.156L193.525 178.888L216.477 229.816L216.11 230.804L215.803 230.869Z" fill="#414257"/>
<path d="M200.01 376.773H257.167C255.367 370.511 252.619 368.12 250.475 367.075C247.74 365.742 245.691 366.473 241.261 365.535C237.069 364.643 233.901 362.928 231.934 361.674C229.542 360.194 226.735 358.898 225.183 359.986C223.532 361.133 224.656 364.052 223.703 366.081C222.353 368.959 216.555 370.642 200.01 367.955C199.72 368.334 197.659 371.136 198.607 374.33C198.938 375.435 199.53 376.25 200.01 376.773Z" fill="#F2ECEC" stroke="black" stroke-width="0.540637" stroke-miterlimit="10"/>
<path d="M101.168 335.431C102.098 337.406 103.092 339.396 104.147 341.408C110.684 353.878 118.241 364.421 125.868 373.246C132.625 373.304 139.382 373.365 146.138 373.425C146.452 373.063 148.525 370.517 147.814 367.513C147.204 364.944 144.93 363.655 143.971 363.107C140.021 360.865 137.706 363.107 135.349 361.197C133.815 359.95 133.424 357.113 132.648 351.438C132.05 347.104 132.24 345.545 131.138 344.934C129.32 343.935 127.005 347.271 124.127 347.627C120.781 348.049 116.115 344.534 109.548 331.043C108.943 330.72 107.652 330.144 106.089 330.381C103.78 330.746 101.831 332.736 101.168 335.431Z" fill="#F2ECEC" stroke="black" stroke-width="0.540637" stroke-miterlimit="10"/>
<path d="M315.473 218.947C313.655 219.886 311.837 220.826 310.019 221.765C299.963 211.335 288.464 196.51 280.226 176.683C278.248 171.931 276.638 167.299 275.311 162.869C275.139 161.192 274.968 159.515 274.796 157.831C279.936 157.452 285.07 157.064 290.21 156.683C293.029 160.906 294.871 164.462 295.901 166.586C304.393 184.049 302.125 194.939 310.942 211.499C312.79 214.979 314.543 217.602 315.473 218.947Z" fill="#FEE9DD"/>
<path d="M346.366 270.696C345.614 270.696 344.88 270.308 344.466 269.614L306.281 205.93C305.648 204.878 305.985 203.502 307.039 202.873C308.087 202.229 309.455 202.576 310.083 203.635L348.267 267.318C348.901 268.371 348.563 269.744 347.509 270.373L346.366 270.696Z" fill="#5E5E5E"/>
<path d="M303.575 185.365C310.024 198.341 316.467 211.317 322.91 224.286C324.449 225.436 326.759 227.456 328.672 230.651C331.165 234.802 331.68 238.76 331.799 240.818C331.005 239.357 330.211 237.893 329.412 236.43C327.825 235.835 326.232 235.241 324.639 234.639C325.882 237.215 327.126 239.785 328.369 242.353C329.24 243.875 330.111 245.404 330.975 246.925C327.688 247.366 324.39 247.805 321.103 248.251C317.977 246.372 314.85 244.505 311.724 242.627C310.598 238.607 309.473 234.586 308.348 230.567C304.635 227.666 299.531 222.966 295.018 216.027C289.41 207.386 287.231 199.149 286.295 194.041C292.057 191.151 297.819 188.262 303.575 185.365Z" fill="black"/>
<path d="M281.67 252.028H400.48C401.901 252.028 403.068 250.858 403.068 249.429V248.751C403.068 247.324 401.901 246.154 400.48 246.154H281.67C280.243 246.154 279.077 247.324 279.077 248.751V249.429C279.077 250.858 280.243 252.028 281.67 252.028Z" fill="#ADADAD"/>
<path d="M400.983 251.892C400.983 279.537 377.064 301.958 347.568 301.958H334.735C305.233 301.958 281.32 279.537 281.32 251.892H400.983Z" fill="#8B8B8B"/>
<path d="M339.913 302.664C332.647 302.664 325.381 301.73 318.246 299.881L317.719 298.977L318.619 298.443C327.194 300.666 335.957 301.546 344.686 301.035C349.069 300.785 353.439 300.196 357.667 299.275L358.55 299.839L357.981 300.726C353.676 301.665 349.234 302.266 344.769 302.522C343.153 302.617 341.53 302.664 339.913 302.664Z" fill="#5E5E5E"/>
<path d="M398.781 255.711H285.982L285.242 254.968L285.982 254.224H398.781L399.521 254.968L398.781 255.711Z" fill="#5E5E5E"/>
<path d="M200.721 149.257C238.265 100.578 263.604 79.2111 276.75 85.1324C283.525 88.1846 287.061 98.4893 287.357 116.044L288.819 116.557C289.305 114.058 289.791 110.306 289.423 105.786C289.115 102.053 288.689 96.7701 285.367 91.6346C281.879 86.2405 276.312 82.7145 271.486 81.4948C261.111 78.8881 251.02 86.1988 241.901 93.572C229.352 103.711 211.895 119.41 192.489 142.479C195.231 144.737 197.978 146.997 200.721 149.257Z" fill="#FFD18D"/>
<path d="M279.653 101.368C283.561 120.713 287.422 140.075 291.283 159.438C285.906 159.248 280.565 158.993 275.175 158.754C272.09 151.339 269.07 142.8 266.636 133.266C266.009 130.918 265.411 128.505 264.86 126.016C264.487 124.358 264.173 122.692 263.836 120.976C262.71 115.022 261.947 109.355 261.437 103.997C261.159 94.162 267.069 87.8626 271.19 88.0899C274.886 88.3339 279.09 93.7623 279.653 101.368Z" fill="#FEE9DD"/>
<path d="M282.921 124.37C277.526 127.331 272.031 130.312 266.636 133.266C266.009 130.918 265.41 128.505 264.859 126.016L282.921 124.37Z" fill="#EACDBD"/>
<path d="M288.132 125.745C279.16 126.855 270.188 127.975 261.217 129.08C261.063 118.037 260.903 106.994 260.749 95.9463C261.205 94.5243 262.632 90.701 266.499 88.1851C268.068 87.156 269.596 86.6381 270.769 86.3599C271.42 86.3942 275.014 86.6498 277.685 89.7253C280.113 92.5201 280.119 95.7299 280.101 96.4801C282.778 106.239 285.454 115.991 288.132 125.745Z" fill="#F2ECEC"/>
<path d="M259.363 129.675L258.771 129.127L256.74 104.532L257.279 103.891L257.918 104.437L259.949 129.039L259.411 129.675H259.363Z" fill="#171930"/>
<path d="M289.221 160.644L288.642 159.95L288.973 158.07L289.66 157.589L290.14 158.284L289.808 160.156L289.221 160.644Z" fill="#171930"/>
<path d="M275.707 160.645L275.311 160.496L273.492 158.837L273.451 157.998L274.292 157.957L276.11 159.611L276.145 160.454L275.707 160.645Z" fill="#171930"/>
</g>
<defs>
<clipPath id="clip0_1256_3188">
<rect width="540.57" height="384" fill="white" transform="translate(0.714844)"/>
</clipPath>
</defs>
</svg>
