<svg width="32" height="35" viewBox="0 0 32 35" fill="none" xmlns="http://www.w3.org/2000/svg">
<g clip-path="url(#clip0_1272_3205)">
<path d="M31.9998 14.3184C31.9998 19.0253 27.7162 22.8409 22.432 22.8409C17.1479 22.8409 12.8643 19.0253 12.8643 14.3184C12.8643 9.61152 17.1479 0.891357 22.432 0.891357C27.7162 0.891357 31.9998 9.61152 31.9998 14.3184Z" fill="#FFD18D"/>
<path d="M22.4394 15.846C22.4394 19.7092 19.3076 22.8409 15.4444 22.8409C11.5812 22.8409 8.4495 19.7092 8.4495 15.846C8.4495 11.9828 7.56109 6.11743 11.4243 6.11743C15.2875 6.11743 22.4394 11.9828 22.4394 15.846Z" fill="#FEB549"/>
<path d="M23.3968 25.5858C23.3968 30.2927 19.1132 34.1084 13.829 34.1084C8.54491 34.1084 0 26.0314 0 21.3246C0 16.6177 8.54491 17.0633 13.829 17.0633C19.1132 17.0633 23.3968 20.879 23.3968 25.5858Z" fill="#FFD18D"/>
</g>
<defs>
<clipPath id="clip0_1272_3205">
<rect width="31.9998" height="33.2171" fill="white" transform="translate(0 0.891357)"/>
</clipPath>
</defs>
</svg>
