<svg width="302" height="512" viewBox="0 0 302 512" fill="none" xmlns="http://www.w3.org/2000/svg">
<g clip-path="url(#clip0_1242_3125)">
<path d="M165.448 35.9389C167.21 35.1944 168.653 35.018 169.062 35.5862C169.485 36.1872 168.666 37.4613 167.977 38.5256C167.242 39.6624 166.027 41.2302 164.044 42.7781L165.448 35.9389Z" fill="#1E1E1E"/>
<path d="M165.11 41.6153C166.871 40.8645 168.321 40.6882 168.724 41.2626C169.154 41.8573 168.328 43.1309 167.632 44.202C166.904 45.332 165.688 46.8998 163.699 48.4477L165.11 41.6153Z" fill="#1E1E1E"/>
<path d="M165.11 47.2853C166.871 46.5408 168.321 46.3577 168.724 46.9326C169.154 47.5337 168.328 48.8072 167.632 49.872C166.904 51.0021 165.688 52.5761 163.699 54.1178L165.11 47.2853Z" fill="#1E1E1E"/>
<path d="M165.448 52.3407C167.21 51.5962 168.653 51.4199 169.062 51.9881C169.485 52.5891 168.666 53.8631 167.977 54.9274C167.242 56.0575 166.027 57.632 164.044 59.18L165.448 52.3407Z" fill="#1E1E1E"/>
<path d="M79.8605 134.788C101.436 134.22 123.011 133.71 144.593 133.201C144.97 134.99 145.334 137.845 144.762 141.248C144.002 145.762 141.98 148.949 140.79 150.563C132.223 152.503 122.459 154.162 111.733 154.998C109.081 155.233 106.37 155.416 103.594 155.547C101.741 155.632 99.8822 155.664 97.9645 155.697C91.3469 155.788 85.0933 155.54 79.2296 155.083C68.5885 153.509 62.9329 145.892 63.96 141.457C64.9152 137.492 71.5719 133.952 79.8605 134.788Z" fill="#FFEDE2"/>
<path d="M105.252 135.611C107.411 142.039 109.575 148.577 111.734 154.998C109.081 155.233 106.371 155.416 103.595 155.547L105.252 135.611Z" fill="#E88D60"/>
<path d="M107.722 130.209C107.215 140.17 106.708 150.125 106.201 160.087C94.2791 158.153 82.3568 156.22 70.4283 154.292C68.9851 153.528 65.1434 151.249 63.1605 146.572C62.3612 144.671 62.088 142.914 62.0166 141.588C62.1788 140.889 63.1345 137.029 66.9568 134.71C70.4283 132.607 73.8799 133.207 74.686 133.37C85.6984 132.319 96.7104 131.267 107.722 130.209Z" fill="white" stroke="#1C1C1C" stroke-width="0.697634" stroke-miterlimit="10" stroke-linecap="round"/>
<path d="M32.296 97.2223C29.579 95.3801 26.1727 95.0013 22.9161 94.6685C20.9463 94.466 18.8659 94.2897 17.0785 95.1323C14.4846 96.3667 13.2822 99.3389 12.3067 102.049C11.2149 105.087 10.1095 108.215 10.2331 111.449C10.3697 114.819 11.8713 118.04 14.0033 120.646C16.1421 123.253 18.8789 125.297 21.7456 127.061C22.4541 127.492 23.267 127.929 24.0731 127.721C24.7102 127.55 25.1779 127.008 25.7113 126.604C26.4715 126.022 27.3949 125.715 28.2724 125.323C31.1198 124.043 33.4728 121.77 35.111 119.105C36.7493 116.439 37.7113 113.389 38.2055 110.299C38.5304 108.268 38.6472 106.132 37.9454 104.205C36.6387 100.632 32.745 98.5876 28.981 98.2151L32.296 97.2223Z" fill="#1C1C1C"/>
<path d="M50.2183 369.856C42.1382 367.622 34.0513 365.388 25.9707 363.154C22.1942 350.175 18.6122 334.027 16.9156 315.28C15.3817 298.369 15.7326 283.319 16.8051 270.804C30.9766 275.866 45.5961 280.302 60.6775 284.031L62.017 284.358C61.848 291.36 61.4836 298.611 60.8793 306.084C58.9678 329.69 55.0224 351.056 50.2183 369.856Z" fill="#FFEDE2"/>
<path d="M52.3571 369.849C52.9744 377.452 46.9549 383.749 40.11 384.33C34.8444 384.775 29.6242 381.796 26.9004 376.759C26.9656 374.748 27.0047 372.69 27.0109 370.574C27.024 368.607 27.0047 366.687 26.9593 364.812C27.2972 364.231 31.0351 358.006 37.9514 357.536C44.595 357.085 51.7392 362.121 52.3571 369.849Z" fill="#FFEDE2"/>
<path d="M60.639 490.317C57.0372 489.717 53.4359 489.122 49.8414 488.522C49.698 486.19 49.4185 482.539 48.7944 478.11C43.9971 443.948 28.5064 431.57 25.464 404.664C24.7361 398.269 24.4629 388.818 27.1215 376.943C35.553 374.885 43.9971 372.827 52.4348 370.77C54.925 395.794 55.6852 415.318 55.8933 428.95C56.0106 436.488 56.0622 449.226 57.7072 466.679C58.6431 476.627 59.787 484.799 60.639 490.317Z" fill="#FFEDE2"/>
<path d="M63.187 511.723C54.268 511.66 45.3558 511.587 36.4367 511.519C35.7933 510.575 35.1239 509.229 35.4164 507.826C35.9492 505.264 39.3362 504.116 40.9291 503.318C44.1534 501.695 47.8392 497.595 49.711 486.569C53.2799 487.373 56.8552 488.167 60.4309 488.965C61.2109 494.819 62.0431 498.727 62.7772 501.471C63.1479 502.859 63.954 505.634 63.5963 509.26C63.4925 510.298 63.3236 511.154 63.187 511.723Z" fill="#FFEDE2"/>
<path d="M144.541 67.1687C146.758 67.5151 148.981 67.8548 151.198 68.2007C153.421 83.9822 154.097 104.623 148.669 127.577C147.369 133.083 145.822 138.243 144.145 143.038C143.67 143.913 142.786 145.279 141.278 146.539C139.842 147.741 138.418 148.355 137.495 148.675C133.978 145.402 130.467 142.136 126.944 138.87C127.159 133.286 127.809 128.935 128.257 126.381C131.937 105.355 140.959 97.1572 143.781 76.7183C144.373 72.4271 144.502 68.965 144.541 67.1687Z" fill="#FFEDE2"/>
<path d="M126.522 364.957C127.887 371.782 123.323 378.497 117.07 380.483C112.324 381.992 106.987 380.659 103.1 377.041C102.625 374.604 102.112 372.116 101.546 369.574C101.072 367.445 100.585 365.355 100.084 363.31C100.428 362.5 103.236 356.191 109.731 354.642C116.55 353.009 124.974 357.223 126.522 364.957Z" fill="#FFEDE2"/>
<path d="M125.125 361.246C117.311 362.585 109.491 363.931 101.671 365.276C90.9252 352.166 78.4242 333.831 68.7903 309.996C64.5842 299.584 61.5617 289.714 59.3838 280.745C73.9777 279.733 88.5716 278.721 103.165 277.708C109.413 293.085 115.439 311.172 119.989 331.76C122.271 342.114 123.935 351.977 125.125 361.246Z" fill="#FFEDE2"/>
<path d="M153.214 480.096C150.594 481.624 147.967 483.16 145.348 484.688C142.715 480.083 138.451 472.832 132.815 464.164C115.412 437.39 106.481 430.204 102.288 414.319C100.546 407.715 99.0828 397.551 101.839 383.853C109.107 379.692 116.375 375.525 123.636 371.364C127.614 391.254 132.607 412.379 138.867 434.489C143.411 450.526 148.241 465.738 153.214 480.096Z" fill="#FFEDE2"/>
<path d="M186.231 506.297H139.205C138.724 504.179 138.347 501.007 139.485 497.61C139.914 496.327 140.408 495.471 140.661 495.017C141.968 492.623 143.522 488.595 144.353 481.474C147.201 480.697 150.042 479.92 152.882 479.135C164.577 497.48 171.11 501.231 174.965 500.96C175.96 500.892 179.71 500.349 182.935 502.509C184.631 503.641 185.639 505.17 186.231 506.297Z" fill="#FFEDE2"/>
<path d="M44.8745 233.898C60.9184 235.564 76.8966 235.152 92.83 233.781C92.2382 227.719 92.9468 221.069 93.233 213.074C93.8373 196.104 92.3617 175.528 94.208 163.509C94.3378 162.275 94.4291 161.001 94.4484 159.681C94.5198 155.011 93.7466 149.851 90.5739 146.18C84.5674 142.927 77.358 145.318 71.3776 141.418L71.0658 141.215C65.5338 141.065 60.9445 141.81 57.863 142.339C42.5345 144.958 43.0871 150.027 32.2895 149.675C25.9707 149.465 22.2396 149.25 18.3781 152.026C17.1044 152.941 13.074 155.651 12.04 164.894C15.8431 174.333 19.971 183.706 24.4237 193.269C31.1127 207.626 37.9775 221.141 44.8745 233.898Z" fill="#FFEDE2"/>
<path d="M94.8251 243.944C94.0513 242.2 93.8563 241.867 93.4794 241.005C92.6149 239.032 92.0883 237.06 91.7181 235.074C75.6872 234.982 59.696 233.898 43.8148 230.9C38.1983 235.661 30.3455 243.592 24.1378 255.447C18.9697 265.33 16.7725 274.442 15.7646 280.837C22.584 285.364 39.1279 295.024 62.2962 295.71C82.2662 296.298 97.406 289.936 104.687 286.285C104.485 281.699 103.919 274.762 102.145 266.532C99.9019 256.166 96.6906 248.164 94.8251 243.944Z" fill="#FFEDE2"/>
<path d="M98.7515 177.331C99.3688 184.013 94.4802 189.931 87.8303 190.545C81.1867 191.172 75.297 186.26 74.6796 179.578C74.0618 172.902 78.9504 166.984 85.6008 166.364C92.2439 165.743 98.1336 170.655 98.7515 177.331Z" fill="#FFEDE2"/>
<path d="M86.6801 191.25C83.0788 191.25 79.6918 189.742 77.2412 187.012L77.2933 186.09L78.21 186.136C80.6543 188.866 84.1382 190.238 87.7724 189.898C90.8147 189.611 93.5641 188.161 95.5146 185.796C97.4646 183.432 98.3812 180.447 98.1018 177.396C97.8484 174.692 96.6523 172.158 94.7346 170.263L94.7216 169.342L95.6444 169.329C97.7832 171.439 99.1159 174.261 99.3954 177.272C99.7139 180.675 98.6868 184 96.5157 186.632C94.3446 189.259 91.2824 190.879 87.896 191.198L86.6801 191.25Z" fill="#171930"/>
<path d="M61.3405 180.825C61.9583 187.508 57.0697 193.419 50.4261 194.04C43.7824 194.66 37.8927 189.748 37.2754 183.073C36.6575 176.397 41.5399 170.479 48.1898 169.858C54.8334 169.238 60.7231 174.15 61.3405 180.825Z" fill="#FFEDE2"/>
<path d="M49.3072 194.745C45.16 194.745 41.2271 192.701 38.835 189.239L38.9976 188.331L39.9012 188.494C42.2543 191.898 46.304 193.759 50.3672 193.387C55.7949 192.884 60.1377 188.566 60.6836 183.119L61.3984 182.537L61.9771 183.249C61.3661 189.317 56.5296 194.125 50.484 194.693L49.3072 194.745Z" fill="#171930"/>
<path d="M94.7347 162.791C90.6714 161.295 87.3626 160.465 85.4387 160.035C63.5056 155.109 49.8935 162.778 12.0469 164.894C12.3065 161.301 13.3467 156.344 16.9417 152.425C23.0066 145.814 31.0283 148.257 37.0416 143.188C40.8316 140 44.2635 133.488 42.7749 118.948C42.424 114.127 42.0663 109.307 41.7154 104.486C44.582 107.491 49.0676 111.39 55.4125 114.304C58.1556 115.558 60.6906 116.387 62.9399 116.962C62.9467 121.476 63.3169 125.186 63.928 128.256C65.4035 135.696 68.3223 139.308 71.0659 141.216L71.3777 141.418C79.7508 146.859 88.8643 142.888 90.5739 146.18C90.9837 146.977 90.6 147.48 90.3789 149.126C89.9759 152.17 90.4895 156.664 94.7347 162.791Z" fill="#FFEDE2" stroke="#1C1C1C" stroke-width="0.697634" stroke-miterlimit="10" stroke-linecap="round"/>
<path d="M63.9272 128.256L62.4324 128.504C57.342 128.981 52.8762 125.676 52.4539 121.13C52.213 118.491 53.3898 116.008 55.4118 114.297C58.1549 115.558 60.6899 116.387 62.9392 116.962C62.946 121.475 63.3162 125.186 63.9272 128.256Z" fill="#E88D60"/>
<path d="M76.0775 98.104C77.404 101.788 77.0401 104.93 76.5718 108.947C76.4874 109.672 75.4279 118.21 71.8391 121.143C70.5846 122.175 69.1352 122.828 69.1352 122.828C68.1602 123.266 67.1721 123.54 66.1382 123.716C64.916 123.925 55.107 124.977 46.0837 120.326C34.9028 114.565 21.479 98.2933 26.8358 83.6293C30.1315 74.589 39.0631 70.3234 42.6904 68.8474L44.0685 68.3966C44.0685 68.3966 46.0581 67.7956 47.9821 67.5081C54.9704 66.4501 59.8001 68.8474 59.8001 68.8474C64.4614 71.1659 67.0809 75.8364 68.6539 79.7686C68.9595 80.5267 69.2259 81.2581 69.46 81.9442C69.7264 82.7148 69.9475 83.4269 70.1425 84.0342C70.715 85.8633 70.9225 87.1176 71.9497 89.7173C73.7766 94.3418 75.0248 95.1907 76.0775 98.104Z" fill="#FFEDE2" stroke="#1C1C1C" stroke-width="0.697634" stroke-miterlimit="10" stroke-linecap="round"/>
<path d="M28.3045 109.006C29.6893 112.494 32.8876 114.5 35.4555 113.468C38.0166 112.442 38.9723 108.784 37.5875 105.289C36.2032 101.801 33.0044 99.7959 30.4433 100.822C27.8754 101.854 26.9202 105.511 28.3045 109.006Z" fill="#FFEDE2"/>
<path d="M34.0378 114.395C32.6921 114.395 31.2942 113.814 30.0658 112.71L30.0137 111.789L30.9303 111.737C32.3021 112.965 33.9012 113.389 35.2141 112.867C35.8189 112.625 36.3257 112.2 36.7287 111.612L37.6261 111.442L37.8018 112.344C37.2621 113.147 36.5275 113.742 35.6953 114.075L34.0378 114.395Z" fill="#171930"/>
<path d="M29.8445 112.213L29.357 111.998C28.7981 111.351 28.3168 110.607 27.9336 109.79L28.2454 108.921L29.1099 109.228C29.4415 109.94 29.8513 110.58 30.3388 111.129L30.2736 112.05L29.8445 112.213Z" fill="#171930"/>
<path d="M28.0639 108.967L27.4398 108.503C26.3152 104.858 27.505 101.292 30.2027 100.221C30.8268 99.9661 31.4963 99.8613 32.1981 99.9134L32.7967 100.613L32.1006 101.22L30.684 101.429C28.6229 102.252 27.7652 105.133 28.6813 108.124L28.2527 108.941L28.0639 108.967Z" fill="#171930"/>
<path d="M35.1104 110.443L34.6422 110.234L30.0205 105.374L30.0466 104.453L30.9632 104.473L35.5786 109.339L35.5588 110.26L35.1104 110.443Z" fill="#171930"/>
<path d="M32.6015 107.504L31.9648 106.74L32.3548 104.473L33.102 103.938L33.6354 104.695L33.2454 106.962L32.6015 107.504Z" fill="#171930"/>
<path d="M52.1807 94.7989C53.0191 95.8439 52.7204 97.5165 51.5175 98.5354C50.3151 99.5606 48.6576 99.5345 47.8255 98.4895C46.9866 97.4445 47.2858 95.7724 48.495 94.7467C49.6973 93.7278 51.3486 93.7539 52.1807 94.7989Z" fill="#171930"/>
<path d="M43.074 100.501C42.4561 100.266 42.3263 99.8743 42.489 99.5477C44.6408 95.3019 48.1962 92.7804 51.0044 93.6428C51.6614 93.8322 52.2657 94.2177 52.8121 94.7796L53.163 94.2569L54.0666 94.0805L54.2417 94.9883L53.3971 96.2295L52.8637 96.517L52.3308 96.2425C51.8235 95.5304 51.2515 95.0802 50.6342 94.897C48.8072 94.355 45.7393 96.014 43.6527 100.142L43.074 100.501Z" fill="#171930"/>
<path d="M70.5978 86.3464C71.6703 87.1499 71.8007 88.8481 70.8841 90.1352C69.9737 91.4217 68.3683 91.8136 67.2958 91.0101C66.2296 90.2072 66.0992 88.5152 67.0158 87.2219C67.9262 85.9348 69.5316 85.543 70.5978 86.3464Z" fill="#171930"/>
<path d="M63.0307 94.1718L62.3936 93.3814C63.4077 88.796 66.1836 85.5237 69.0434 85.5237C69.8563 85.5498 70.5388 85.7653 71.202 86.1769L71.4163 85.5759L72.2485 85.1841L72.6385 86.0199L72.1312 87.4306L71.6895 87.8423L71.1045 87.7118C70.4413 87.1499 69.7781 86.8494 69.1279 86.8364C67.1518 86.8301 64.6491 89.2008 63.6678 93.6626L63.0307 94.1718Z" fill="#171930"/>
<path d="M38.4648 96.6411C40.0577 95.5763 42.3587 94.2569 45.3103 93.2249C47.8453 92.3364 50.0883 91.9316 51.8105 91.7354L51.2323 90.6445C50.6014 89.7174 49.8021 89.1685 49.2364 88.855C47.2342 89.5802 45.6028 90.2855 44.426 90.8339C41.5593 92.1538 40.8508 92.7543 40.4154 93.192C39.1932 94.4134 38.6927 95.7787 38.4648 96.6411Z" fill="#1C1C1C"/>
<path d="M50.3415 88.3843L51.427 89.5274C52.1033 90.4357 52.4604 91.4478 52.3567 91.5136L51.2253 90.1613L50.062 88.7568L49.7236 88.4761L50.3415 88.3843Z" fill="#1C1C1C"/>
<path d="M68.6539 79.7686C68.9594 80.5266 69.2258 81.2581 69.46 81.9441C68.7451 82.2707 68.0037 82.6427 67.2435 83.0742C64.9097 84.3936 63.1219 85.8174 61.8283 86.9866L61.3992 85.8304C61.1327 84.7463 61.25 83.7728 61.3861 83.1394C63.2522 82.1137 64.8576 81.3494 66.0474 80.8203C67.1913 80.3111 68.0235 79.9845 68.6539 79.7686Z" fill="#1C1C1C"/>
<path d="M60.3067 83.6617C60.2936 84.0473 60.3067 84.6024 60.4433 85.2363C60.6769 86.3465 61.1904 87.294 61.3077 87.2481L61.0476 85.5039C60.911 84.9358 60.7681 84.4459 60.7681 83.7009L60.7874 83.2637L60.3067 83.6617Z" fill="#1C1C1C"/>
<path d="M63.4209 102.429C63.9407 101.776 64.5779 101.423 65.2411 101.142C65.9236 100.887 66.6254 100.698 67.4513 100.822C66.9309 101.468 66.2938 101.828 65.6243 102.108C64.9486 102.357 64.24 102.546 63.4209 102.429Z" fill="#171930"/>
<path d="M71.5274 106.406C71.7616 107.275 69.4471 108.777 67.4188 109.581C64.8186 110.607 61.9588 110.77 61.8545 110.365L62.6543 109.685C64.2988 108.229 63.9542 106.302 65.0726 105.962L66.3531 105.531L66.7885 105.302C67.5946 104.839 67.5685 104.663 67.9194 104.591C68.6478 104.551 70.0519 105.492 70.0519 105.492C71.1828 106.263 71.4492 106.119 71.5274 106.406Z" fill="#E88D60"/>
<path d="M66.5213 115.924L65.8711 115.283L66.5082 114.617C67.6459 114.591 68.7315 114.349 69.7456 113.905L71.0068 113.193L71.9167 113.37L71.741 114.284L70.2722 115.101C69.1022 115.617 67.8472 115.897 66.5343 115.924H66.5213Z" fill="#171930"/>
<path d="M56.8037 146.663C57.6421 147.793 58.8575 148.257 59.9498 147.852C61.4905 147.277 61.9197 145.292 61.9457 145.148L56.8037 146.663Z" fill="#E88D60"/>
<path d="M63.4922 149.668C63.8431 149.877 64.389 150.165 65.0652 150.412C67.3208 151.236 69.1217 150.863 70.3699 150.582C74.9009 149.564 79.0418 148.192 80.4392 147.715C77.1695 148.192 73.8998 148.675 70.6233 149.152L63.4922 149.668Z" fill="#E88D60"/>
<path d="M57.1413 150.262C56.6538 150.549 55.9061 150.961 54.9571 151.353C51.7651 152.685 48.983 152.744 47.046 152.764C40.0254 152.823 33.5048 152.444 31.3076 152.307C36.3135 152.006 41.3252 151.712 46.3374 151.419L57.1413 150.262Z" fill="#E88D60"/>
<path d="M62.3486 110.9C62.589 111.182 64.2465 113.062 66.8926 113.017C67.3733 113.01 69.8239 112.971 71.1566 110.92C72.0993 109.464 72.1253 107.53 71.2478 105.91C70.1816 106.55 69.096 107.19 67.9844 107.824C66.0735 108.915 64.1944 109.94 62.3486 110.9Z" fill="#E88D60"/>
<path d="M61.3855 111.018L60.2869 110.979L59.6826 110.286L60.326 109.679C62.335 109.816 64.272 109.555 66.1114 108.915C68.1918 108.183 70.1226 106.955 71.6763 105.361L72.5929 105.348L72.606 106.269C70.9093 108.013 68.8092 109.346 66.5343 110.143C64.8768 110.731 63.1473 111.018 61.3855 111.018Z" fill="#171930"/>
<path d="M52.1362 64.5167C57.7459 62.0865 63.5448 63.4127 66.0476 67.0575C67.7244 69.5007 67.4908 72.3618 67.3151 73.5962C59.7355 77.6917 54.301 81.0881 54.7557 82.2181L55.4773 82.7607C55.6332 83.4593 51.7008 85.2165 38.6341 89.1226C38.6017 88.9332 38.3353 87.5418 37.048 86.8432C35.9301 86.2422 34.4937 86.4117 33.4404 87.3002C34.7601 93.6819 36.086 100.064 37.4124 106.452C33.7069 105.211 30.0081 103.97 26.3025 102.729C22.9093 97.706 22.4739 93.5447 22.513 91.2001C22.6752 79.8474 34.4608 68.5141 52.1362 64.5167Z" fill="#1C1C1C"/>
<path d="M38.8488 233.108C32.6603 237.863 22.9483 246.707 16.6039 260.725C13.2362 268.165 10.4478 277.884 10.5839 297.997C10.6882 313.445 12.5344 336.816 21.4274 365.041C33.4925 365.818 45.5508 366.596 57.6227 367.38C58.7083 346.948 59.7938 326.516 60.8794 306.083C62.0171 300.035 62.7126 292.66 62.0171 284.358C59.846 258.406 45.5446 240.482 38.8488 233.108Z" fill="#FFD18D" stroke="#1C1C1C" stroke-width="0.697634" stroke-miterlimit="10" stroke-linecap="round"/>
<path d="M21.4268 365.041C23.9941 404.978 26.562 444.914 29.1361 484.851C36.0076 484.864 44.3672 484.309 53.7023 482.428C60.677 481.023 66.8071 479.149 72.008 477.228C67.0151 439.095 62.0227 400.974 57.0303 362.847C45.1602 363.578 33.2901 364.31 21.4268 365.041Z" fill="#FFD18D" stroke="#1C1C1C" stroke-width="0.697634" stroke-miterlimit="10" stroke-linecap="round"/>
<path d="M57.1935 299.689C59.1826 300.655 61.1717 301.628 63.1546 302.595C65.7678 314.744 70.6627 330.84 80.3226 347.973C85.913 357.902 91.9326 366.093 97.4839 372.664C108.08 371.632 118.676 370.606 129.279 369.574C121.445 335.334 113.619 301.08 105.792 266.832C102.002 256.728 98.1992 246.622 94.4092 236.518C75.8892 235.381 57.3687 234.244 38.8486 233.108C44.9657 255.303 51.0827 277.493 57.1935 299.689Z" fill="#FFD18D" stroke="#1C1C1C" stroke-width="0.697634" stroke-miterlimit="10" stroke-linecap="round"/>
<path d="M145.628 480.698L145.628 480.698C137.57 482.854 130.667 481.932 126.783 481.091C120.199 470.869 112.883 457.284 107.209 440.446C98.0147 413.159 97.0857 388.999 97.8191 372.983C103.289 372.45 108.759 371.919 114.23 371.388C119.156 370.91 124.084 370.431 129.014 369.952C132.804 384.783 136.593 399.613 140.382 414.443C145.638 435.016 150.894 455.587 156.152 476.158C153.59 477.732 150.062 479.515 145.628 480.698Z" fill="#FFD18D" stroke="black" stroke-width="0.7"/>
<path d="M92.2438 223.93C86.8745 228.111 73.6201 237.171 55.3858 237.242C49.1123 237.268 43.6778 236.217 39.3617 234.963C29.3702 212.408 19.3724 189.846 9.38086 167.291C9.94657 164.483 11.4221 159.152 15.6407 153.979C18.7092 150.23 22.0571 147.976 24.3126 146.722C29.6105 144.246 34.9022 141.784 40.1938 139.315C42.7742 140.549 50.3282 143.743 59.2405 141.392C62.8027 140.451 65.5786 138.89 67.5156 137.538C75.9278 139.034 84.3327 140.536 92.7444 142.032C95.8519 154.992 95.5917 161.06 94.6428 164.175C94.3372 165.181 92.9462 169.198 94.8248 172.347C95.2799 173.118 95.7867 173.581 95.8712 173.667C97.7305 175.496 97.4448 188.357 92.2438 223.93Z" fill="white" stroke="#1C1C1C" stroke-width="0.697634" stroke-miterlimit="10" stroke-linecap="round"/>
<path d="M37.7891 239.907C41.247 235.629 45.245 229.6 48.1445 221.755C55.321 202.362 50.9919 184.836 48.8724 177.945C63.6159 170.72 78.3595 163.503 93.1093 156.278C95.04 159.943 97.2632 164.874 98.9729 170.923C100.683 176.998 101.02 186.221 97.77 224.414C96.7752 236.041 96.5218 239.17 93.9153 242.324C82.0645 256.643 45.245 242.808 37.7891 239.907Z" fill="#FFD18D" stroke="#1C1C1C" stroke-width="0.697634" stroke-miterlimit="10" stroke-linecap="round"/>
<path d="M21.3418 148.636C25.6908 151.085 31.301 154.848 36.8393 160.517C44.4908 168.336 48.7422 176.423 51.063 181.851C53.9489 180.224 56.8354 178.598 59.7218 176.978C57.0955 171.08 52.7075 163.045 45.4527 155.011C40.1418 149.132 34.7725 144.873 30.339 141.882C27.342 144.129 24.3388 146.389 21.3418 148.636Z" fill="#FFD18D" stroke="#1C1C1C" stroke-width="0.697634" stroke-miterlimit="10" stroke-linecap="round"/>
<path d="M66.1709 135.239C69.2065 136.493 79.9843 141.392 86.472 153.744C92.4008 165.018 91.1396 175.639 90.5869 179.081C93.4212 178.846 96.2555 178.618 99.083 178.376C99.4277 173.581 99.4277 163.921 94.3378 153.555C91.1072 146.964 87.0117 142.594 84.9574 140.582C80.9077 136.617 76.8705 134.095 73.9001 132.528C73.0612 132.397 70.9745 132.169 68.7513 133.26C67.5161 133.867 66.6714 134.67 66.1709 135.239Z" fill="#FFD18D" stroke="#1C1C1C" stroke-width="0.697634" stroke-miterlimit="10" stroke-linecap="round"/>
<path d="M61.9454 179.153C61.9454 182.06 59.9948 184.418 57.5896 184.418C55.1844 184.418 53.2344 182.06 53.2344 179.153C53.2344 176.246 55.1844 173.889 57.5896 173.889C59.9948 173.889 61.9454 176.246 61.9454 179.153Z" fill="#FFD18D"/>
<path d="M96.7363 161.974C96.7363 164.881 94.7858 167.239 92.3806 167.239C89.9691 167.239 88.0186 164.881 88.0186 161.974C88.0186 159.068 89.9691 156.709 92.3806 156.709C94.7858 156.709 96.7363 159.068 96.7363 161.974Z" fill="#FFD18D"/>
<path d="M62.0163 301.838L61.2363 301.243L61.7953 300.237L73.3531 296.965L74.3542 297.533L73.7952 298.533L62.2306 301.805L62.0163 301.838Z" fill="#373737"/>
<path d="M73.9383 297.598L73.126 296.756L74.4456 252.946L75.284 252.155L76.0708 252.998L74.7512 296.808L73.9383 297.598Z" fill="#373737"/>
<path d="M30.0981 373.102L29.7018 372.997L26.6203 371.286L26.3018 370.175L27.4071 369.855L30.4881 371.573L30.8066 372.677L30.0981 373.102Z" fill="#373737"/>
<path d="M57.8366 369.823L57.0498 369.215L57.6223 368.216L59.1693 367.791L60.1704 368.366L59.5984 369.366L58.0446 369.79L57.8366 369.823Z" fill="#373737"/>
<path d="M97.3992 375.538L96.7881 375.264L96.86 374.114L101.267 370.162L102.418 370.227L102.346 371.377L97.9388 375.329L97.3992 375.538Z" fill="#373737"/>
<path d="M101.671 366.093L100.975 365.701C94.7348 355.347 89.1183 344.485 84.275 333.42C80.29 324.314 76.7539 314.882 73.7637 305.378L74.2903 304.359L75.3107 304.888C78.2878 314.333 81.7984 323.713 85.7574 332.76C90.574 343.766 96.1644 354.558 102.366 364.852L102.093 365.975L101.671 366.093Z" fill="#373737"/>
<path d="M131.626 471.507L130.923 471.095C119.846 451.59 111.792 430.747 106.988 409.152C104.648 398.642 103.068 387.864 102.288 377.106L103.036 376.23L103.907 376.982C104.687 387.668 106.253 398.368 108.574 408.793C113.339 430.231 121.335 450.924 132.334 470.285L132.029 471.396L131.626 471.507Z" fill="#373737"/>
<path d="M40.5324 241.762L39.8691 241.423L38.1855 239.032L38.3805 237.889L39.512 238.085L41.2018 240.476L41.0068 241.612L40.5324 241.762Z" fill="#373737"/>
<path d="M46.7139 240.567L46.142 240.326L43.6455 237.817V236.668H44.7962L47.2922 239.17V240.326L46.7139 240.567Z" fill="#373737"/>
<path d="M70.5717 244.095C66.0668 244.095 61.575 243.52 57.1739 242.39L56.5889 241.397L57.5769 240.809C63.4145 242.311 69.3954 242.788 75.3691 242.239C80.8818 241.73 86.2709 240.345 91.3739 238.131L92.4464 238.556L92.024 239.627C86.7585 241.913 81.2004 243.343 75.5124 243.866C73.8674 244.016 72.2167 244.095 70.5717 244.095Z" fill="#373737"/>
<path d="M64.5389 511.723H34.4345C33.9538 510.554 33.5048 508.895 34.0705 507.267C35.0195 504.508 38.1333 503.908 41.1172 501.821C43.2299 500.344 45.7978 497.767 47.7087 492.925C46.8703 491.731 46.5971 490.88 46.8964 490.385C47.6894 489.075 52.4414 490.197 61.1456 493.734C62.2765 497.35 63.408 500.96 64.5389 504.575C64.5389 506.96 64.5389 509.339 64.5389 511.723Z" fill="white" stroke="#1C1C1C" stroke-width="0.697634" stroke-miterlimit="10" stroke-linecap="round"/>
<path d="M186.543 507.45C170.343 507.45 154.15 507.45 137.951 507.45C137.515 505.807 136.768 502.008 138.133 497.558C139.147 494.224 140.915 491.96 142.013 490.75C142.904 490.734 144.204 490.859 144.906 491.751C145.725 492.79 145.146 494.12 145.537 494.381C146.076 494.736 148.306 492.925 155.593 483.65C155.99 483.532 156.601 483.414 157.277 483.578C159.273 484.068 159.721 486.51 161.073 488.569C162.353 490.52 164.752 491.689 169.563 494.016C171.487 494.95 174.133 496.092 177.422 497.104C182.837 497.767 186.738 500.72 187.18 504.095C187.271 504.794 187.271 505.958 186.543 507.45Z" fill="white" stroke="#1C1C1C" stroke-width="0.697634" stroke-miterlimit="10" stroke-linecap="round"/>
<path d="M28.5965 168.853C26.8024 190.46 24.9499 212.075 23.1036 233.683C17.4939 231.821 11.9421 229.907 6.33863 227.987C5.35059 219.214 4.77862 209.285 5.12326 198.482C5.18166 195.804 5.29845 193.073 5.46739 190.291C5.5847 188.429 5.75989 186.567 5.92934 184.653C6.56597 178.03 7.48936 171.818 8.58795 166.011C11.3049 155.547 19.457 150.733 23.7408 152.235C27.5501 153.633 30.326 160.661 28.5965 168.853Z" fill="#FFEDE2" stroke="#1C1C1C" stroke-width="0.697634" stroke-miterlimit="10" stroke-linecap="round"/>
<path d="M25.0081 194.125C18.4166 195.575 11.7145 197.025 5.12305 198.482C5.18144 195.804 5.29824 193.073 5.46717 190.291L25.0081 194.125Z" fill="#E88D60"/>
<path d="M30.0853 197.181C20.2893 195.588 10.4928 193.994 0.696289 192.4C3.90757 180.701 7.11885 169.003 10.3301 157.304C11.2405 155.938 13.9184 152.353 18.7616 150.889C20.731 150.295 22.4995 150.217 23.8192 150.282C24.4949 150.523 28.2067 151.902 30.0853 155.971C31.7825 159.668 30.8137 163.052 30.5666 163.836C30.4039 174.947 30.2418 186.064 30.0853 197.181Z" fill="white" stroke="#1C1C1C" stroke-width="0.697634" stroke-miterlimit="10" stroke-linecap="round"/>
<path d="M155.379 101.586C153.019 101.56 150.412 101.41 147.611 101.044C143.008 100.436 139.004 99.4106 135.688 98.3196C137.093 86.0331 138.49 73.7528 139.901 61.4663H156.945C156.419 74.8375 155.899 88.2149 155.379 101.586Z" fill="#1E1E1E"/>
<path d="M165.617 54.9343C166.741 68.8737 171.617 73.949 167.814 78.802C164.655 82.8261 158.225 84.1846 153.448 82.6429C141.246 78.7045 141.285 56.2997 141.285 54.9343C141.285 45.3581 144.34 30.3477 153.448 27.219C156.256 26.2522 160.995 25.9585 164.044 28.6104C168.867 32.7909 164.395 39.8519 165.617 54.9343Z" fill="#F9CA02"/>
<path d="M140.654 71.6367C139.237 63.8896 137.82 56.1426 136.409 48.3955C137.072 47.122 138.171 45.3059 139.926 43.4966C142.357 41.0012 146.394 38.1469 147.519 39.0484C148.877 40.1393 145.575 46.3968 144.535 48.311C144.782 53.8371 144.821 59.7811 144.535 66.0975C144.372 69.7814 144.112 73.3286 143.781 76.7182L140.654 71.6367Z" fill="#1E1E1E"/>
<path d="M85.4707 204.798C86.1272 206.954 86.7773 209.109 87.4338 211.271C74.244 220.129 56.0426 229.698 33.1016 234.747C27.5957 235.956 22.3046 236.805 17.2731 237.36C16.1093 237.314 14.5425 237.073 12.8913 236.289C8.10067 234.002 6.61208 228.986 6.33887 227.986C8.73781 225.315 11.143 222.65 13.5545 219.985C18.6444 217.751 22.8312 216.451 25.3141 215.746C45.7653 209.965 57.0306 214.563 76.5778 208.253C80.6864 206.927 83.8455 205.543 85.4707 204.798Z" fill="#FFEDE2" stroke="#1C1C1C" stroke-width="0.697634" stroke-miterlimit="10" stroke-linecap="round"/>
<path d="M294.01 306.273H243.254C259.954 280.021 277.356 251.443 294.01 222.859V306.273ZM198.972 306.273H114.808C113.073 298.682 111.337 291.092 109.601 283.502C141.084 259.693 178.267 229.352 198.354 229.352C201.435 229.352 204.12 230.07 206.311 231.632C218.395 240.228 211.284 271.425 198.972 306.273ZM99.1288 207.313C100.819 183.83 100.416 176.364 99.0897 171.341C98.8295 167.657 98.1079 163.235 96.4243 158.499C99.6815 159.028 102.944 159.558 106.202 160.087C106.279 158.519 106.357 156.958 106.442 155.39C108.23 155.285 109.998 155.155 111.734 154.998C117.408 154.561 122.811 153.881 127.914 153.065C120.34 169.009 109.822 188.05 99.1288 207.313ZM107.527 134.089C107.593 132.796 107.657 131.503 107.722 130.209C104.849 130.484 101.969 130.764 99.096 131.032C111.506 121.874 124.266 112.788 132.048 112.043C130.553 116.244 129.22 120.868 128.258 126.381C127.965 128.067 127.582 130.529 127.296 133.606C120.704 133.763 114.113 133.926 107.527 134.089ZM92.5957 131.659V8.9751H294.01V65.5555C259.798 91.9186 225.741 120.124 214.027 120.124C212.733 120.124 211.713 119.777 210.991 119.052C202.033 110.045 251.282 51.9558 276.147 8.9751H171.572C137.749 33.3132 110.979 62.2958 92.5957 87.7443V131.659Z" fill="#FAFAFA"/>
<path d="M111.733 154.998C110.212 150.465 108.684 145.873 107.156 141.307C107.28 138.896 107.403 136.493 107.527 134.089C114.112 133.926 120.704 133.763 127.295 133.605C127.146 135.206 127.023 136.963 126.944 138.87C128.686 140.477 130.422 142.091 132.158 143.711C130.877 146.676 129.453 149.812 127.913 153.065C122.81 153.881 117.408 154.56 111.733 154.998Z" fill="#FFF3F0"/>
<path d="M106.441 155.39C106.676 150.7 106.916 146.003 107.156 141.307C108.684 145.873 110.212 150.465 111.733 154.998C109.997 155.155 108.229 155.285 106.441 155.39Z" fill="#E5B7AB"/>
<path d="M106.202 160.087C102.944 159.558 99.6815 159.028 96.4243 158.499C96.0343 157.402 95.5922 156.292 95.0916 155.168C94.7861 151.843 94.0713 147.565 92.7448 142.032C92.6995 142.019 92.6473 142.013 92.5957 142.006V131.659V135.84C94.7345 134.266 96.9118 132.652 99.096 131.032C101.969 130.764 104.849 130.484 107.722 130.209C107.657 131.503 107.593 132.796 107.527 134.089C107.404 136.493 107.28 138.896 107.157 141.307C106.916 146.003 106.676 150.7 106.442 155.39C106.357 156.958 106.279 158.519 106.202 160.087Z" fill="white"/>
<path d="M132.158 143.711C130.422 142.091 128.686 140.477 126.944 138.87C127.023 136.963 127.146 135.206 127.295 133.606C127.581 130.529 127.965 128.067 128.257 126.381C129.22 120.868 130.552 116.244 132.047 112.043C132.385 112.011 132.71 111.998 133.035 111.998C134.583 111.998 135.902 112.383 136.942 113.245C141.447 117.027 138.762 128.315 132.158 143.711Z" fill="#FFF3F0"/>
<path d="M114.808 306.273H92.5957V243.709V295.991C97.965 292.222 103.679 287.976 109.601 283.502C111.337 291.092 113.073 298.682 114.808 306.273Z" fill="#FFD18D"/>
<path d="M95.0916 155.168C94.8575 154.632 94.6041 154.097 94.3377 153.555C93.7788 152.412 93.1937 151.34 92.5957 150.328V142.006C92.6473 142.013 92.6995 142.019 92.7448 142.032C94.0713 147.565 94.7861 151.843 95.0916 155.168Z" fill="#CDD4FE"/>
<path d="M92.5957 243.709V178.912C94.76 178.735 96.9249 178.559 99.0829 178.376C99.2065 176.619 99.291 174.202 99.0897 171.341C100.416 176.364 100.819 183.83 99.1288 207.313C96.9509 211.232 94.7668 215.164 92.5957 219.083V243.709Z" fill="#FFD18D"/>
<path d="M92.5957 178.912V167.233C94.9034 167.095 96.7366 164.796 96.7366 161.974C96.7366 159.152 94.9034 156.853 92.5957 156.716V150.328C93.1937 151.34 93.7788 152.412 94.3377 153.555C94.6041 154.097 94.8575 154.632 95.0916 155.168C95.5922 156.292 96.0343 157.402 96.4243 158.499C98.1079 163.235 98.8295 167.657 99.0897 171.341C99.291 174.202 99.2065 176.619 99.0829 178.376C96.9249 178.559 94.76 178.736 92.5957 178.912Z" fill="#FFD18D"/>
<path d="M92.5957 167.233V156.716C94.9034 156.853 96.7366 159.152 96.7366 161.974C96.7366 164.796 94.9034 167.095 92.5957 167.233Z" fill="#BBC1E6"/>
<path d="M243.254 306.273H198.972C211.284 271.425 218.395 240.228 206.311 231.632C204.12 230.07 201.435 229.352 198.354 229.352C178.267 229.352 141.084 259.693 109.601 283.502C108.334 277.943 107.059 272.391 105.792 266.832C102.385 257.76 98.9792 248.687 95.5729 239.614C96.7168 236.87 97.0422 232.905 97.7701 224.414C98.3227 217.921 98.7711 212.264 99.1288 207.313C109.822 188.05 120.34 169.009 127.914 153.065C132.451 152.333 136.754 151.477 140.791 150.563C141.981 148.949 144.002 145.769 144.756 141.255C146.199 136.97 147.526 132.41 148.67 127.577C150.828 118.465 152.018 109.718 152.531 101.494C153.513 101.546 154.462 101.579 155.379 101.586C155.612 95.4522 155.853 89.3251 156.094 83.1918C156.581 83.244 157.069 83.2638 157.563 83.2638C161.444 83.2638 165.5 81.7482 167.814 78.802C171.37 74.2625 167.34 69.5331 165.877 57.5403C166.826 56.5673 167.502 55.6595 167.977 54.9275C168.666 53.8632 169.485 52.5892 169.062 51.9882C168.9 51.7597 168.568 51.6553 168.12 51.6553C167.528 51.6553 166.722 51.8447 165.819 52.1906C166.625 51.3287 167.21 50.5253 167.632 49.8721C168.328 48.8072 169.153 47.5337 168.724 46.9327C168.562 46.7042 168.23 46.5931 167.782 46.5931C167.177 46.5931 166.358 46.7887 165.435 47.1544C165.435 47.0699 165.442 46.9911 165.442 46.9066C166.443 45.9007 167.145 44.9533 167.632 44.202C168.328 43.1309 169.153 41.8574 168.724 41.2626C168.562 41.0341 168.23 40.923 167.782 40.923C167.262 40.923 166.592 41.067 165.832 41.3346C165.832 41.2825 165.838 41.2303 165.845 41.1781C166.813 40.1915 167.495 39.2639 167.977 38.5257C168.666 37.4614 169.485 36.1873 169.062 35.5863C168.9 35.3578 168.568 35.2535 168.12 35.2535C167.639 35.2535 167.021 35.3708 166.319 35.6061C166.443 32.5489 166.033 30.3347 164.044 28.6104C162.276 27.0755 159.942 26.5266 157.745 26.5266C156.146 26.5266 154.631 26.8141 153.448 27.219C148.351 28.9693 145.153 34.437 143.32 40.5964C142.124 41.4458 140.902 42.4976 139.927 43.4966C138.172 45.306 137.073 47.1221 136.41 48.3956C137.43 53.9869 138.451 59.5849 139.471 65.1762C138.21 76.2284 136.949 87.2675 135.688 98.3196C136.234 98.4965 136.8 98.6791 137.385 98.8491C135.604 103.134 133.725 107.315 132.048 112.043C124.266 112.788 111.506 121.874 99.096 131.032C96.9316 131.241 94.7668 131.45 92.5957 131.659V87.7443C110.979 62.2958 137.749 33.3132 171.572 8.9751H276.147C251.282 51.9558 202.033 110.045 210.991 119.052C211.713 119.777 212.733 120.124 214.027 120.124C225.741 120.124 259.798 91.9186 294.01 65.5555V222.859C277.356 251.443 259.954 280.021 243.254 306.273Z" fill="#F9FAFF"/>
<path d="M165.845 41.1781C166.046 39.0484 166.254 37.213 166.319 35.6061C167.021 35.3708 167.639 35.2534 168.12 35.2534C168.569 35.2534 168.9 35.3578 169.062 35.5863C169.485 36.1873 168.666 37.4613 167.977 38.5257C167.495 39.2639 166.813 40.1915 165.845 41.1781Z" fill="#878787"/>
<path d="M165.441 46.9065C165.519 44.8551 165.669 43.0066 165.831 41.3345C166.592 41.0668 167.262 40.9229 167.781 40.9229C168.23 40.9229 168.561 41.034 168.724 41.2625C169.153 41.8573 168.327 43.1308 167.632 44.2019C167.144 44.9531 166.442 45.9006 165.441 46.9065Z" fill="#878787"/>
<path d="M165.454 52.3346C165.376 50.4793 165.382 48.755 165.435 47.1544C166.358 46.7887 167.177 46.593 167.781 46.593C168.23 46.593 168.561 46.7041 168.724 46.9327C169.153 47.5337 168.327 48.8072 167.632 49.872C167.209 50.5252 166.624 51.3287 165.818 52.1906C165.701 52.2365 165.577 52.2824 165.454 52.3346Z" fill="#878787"/>
<path d="M165.876 57.5403C165.779 56.7045 165.688 55.8358 165.616 54.9343C165.545 54.0395 165.493 53.1771 165.454 52.3346C165.577 52.2824 165.701 52.2365 165.818 52.1906C166.722 51.8447 167.528 51.6553 168.119 51.6553C168.568 51.6553 168.899 51.7596 169.062 51.9881C169.484 52.5892 168.665 53.8632 167.976 54.9275C167.502 55.6595 166.825 56.5673 165.876 57.5403Z" fill="#878787"/>
<path d="M127.913 153.065C129.453 149.812 130.877 146.676 132.158 143.711C133.939 145.363 135.714 147.016 137.495 148.675C138.418 148.355 139.842 147.741 141.278 146.539C142.786 145.279 143.67 143.913 144.145 143.038C144.353 142.45 144.555 141.856 144.756 141.255C144.002 145.769 141.98 148.949 140.791 150.563C136.754 151.477 132.45 152.333 127.913 153.065Z" fill="#F9EBE7"/>
<path d="M92.5957 135.84V131.659C94.7668 131.45 96.9316 131.241 99.096 131.032C96.9118 132.652 94.7345 134.266 92.5957 135.84Z" fill="#EBEEFF"/>
<path d="M137.495 148.675C135.714 147.016 133.939 145.363 132.158 143.711C138.763 128.315 141.448 117.027 136.943 113.245C135.903 112.383 134.583 111.998 133.036 111.998C132.711 111.998 132.386 112.011 132.048 112.043C133.725 107.315 135.604 103.134 137.385 98.8491C140.343 99.7371 143.768 100.541 147.611 101.043C149.326 101.266 150.971 101.41 152.531 101.494C152.018 109.718 150.828 118.465 148.67 127.577C147.526 132.41 146.2 136.97 144.756 141.255C144.555 141.856 144.353 142.45 144.145 143.038C143.671 143.913 142.787 145.279 141.279 146.539C139.842 147.741 138.418 148.355 137.495 148.675Z" fill="#F9EBE7"/>
<path d="M92.5957 295.991V243.709C93.0634 243.278 93.5055 242.821 93.9154 242.324C94.6172 241.475 95.1506 240.626 95.5729 239.614C98.9792 248.687 102.385 257.76 105.792 266.832C107.059 272.391 108.334 277.943 109.601 283.502C103.679 287.977 97.965 292.222 92.5957 295.991Z" fill="#FFD18D"/>
<path d="M92.5957 243.709V219.083C94.7668 215.164 96.9509 211.232 99.1288 207.313C98.7711 212.264 98.3227 217.921 97.7701 224.414C97.0422 232.905 96.7168 236.87 95.5729 239.614C95.1506 240.626 94.6172 241.475 93.9154 242.324C93.5055 242.821 93.0634 243.278 92.5957 243.709Z" fill="#FFD18D"/>
<path d="M155.379 101.586C154.462 101.579 153.513 101.546 152.532 101.494C150.972 101.41 149.327 101.266 147.611 101.044C143.769 100.541 140.343 99.7372 137.385 98.8492C136.8 98.6791 136.234 98.4965 135.688 98.3196C136.95 87.2675 138.21 76.2284 139.472 65.1763C139.869 67.332 140.259 69.481 140.655 71.6367L143.782 76.7183C143.925 75.2752 144.048 73.8055 144.165 72.316C145.94 76.9797 148.807 81.1472 153.448 82.643C154.287 82.9174 155.177 83.1005 156.094 83.1918C155.854 89.3252 155.613 95.4523 155.379 101.586Z" fill="#878787"/>
<path d="M157.562 83.2638C157.068 83.2638 156.581 83.2439 156.093 83.1918C155.176 83.1005 154.286 82.9173 153.447 82.6429C148.806 81.1471 145.939 76.9796 144.165 72.316C144.314 70.2912 144.444 68.2205 144.535 66.0976C144.821 59.7811 144.782 53.8371 144.535 48.3111C145.575 46.3969 148.877 40.1394 147.519 39.0484C147.376 38.9311 147.181 38.8784 146.947 38.8784C146.095 38.8784 144.73 39.5973 143.319 40.5964C145.153 34.4369 148.351 28.9693 153.447 27.2189C154.631 26.8141 156.145 26.5266 157.744 26.5266C159.941 26.5266 162.275 27.0755 164.043 28.6104C166.032 30.3347 166.442 32.5488 166.319 35.6061C166.254 37.213 166.045 39.0484 165.844 41.1781C165.837 41.2303 165.831 41.2824 165.831 41.3346C165.669 43.0067 165.519 44.8552 165.441 46.9066C165.441 46.9911 165.434 47.0699 165.434 47.1544C165.382 48.7551 165.376 50.4793 165.454 52.3346C165.493 53.1772 165.545 54.0396 165.616 54.9343C165.688 55.8358 165.779 56.7045 165.877 57.5403C167.339 69.5331 171.369 74.2625 167.814 78.802C165.5 81.7482 161.443 83.2638 157.562 83.2638Z" fill="#F8EFC9"/>
<path d="M143.781 76.7181L140.654 71.6365C140.258 69.4808 139.868 67.3318 139.471 65.176C138.45 59.5848 137.43 53.9867 136.409 48.3954C137.072 47.1219 138.171 45.3058 139.926 43.4965C140.901 42.4974 142.123 41.4456 143.319 40.5962C144.73 39.5971 146.095 38.8782 146.947 38.8782C147.181 38.8782 147.376 38.9309 147.519 39.0483C148.877 40.1392 145.575 46.3967 144.535 48.3109C144.782 53.837 144.821 59.7809 144.535 66.0974C144.444 68.2203 144.314 70.291 144.164 72.3158C144.047 73.8053 143.924 75.275 143.781 76.7181Z" fill="#878787"/>
<path d="M98.2765 303.32H289.739V11.6139H98.2765V303.32ZM301.304 314.934H86.7119V0H301.304V314.934Z" fill="#DDDDDD" stroke="#1C1C1C" stroke-width="0.697634" stroke-miterlimit="10" stroke-linecap="round"/>
<path d="M94.448 147.996C93.2582 147.996 92.2832 147.016 92.2832 145.821V115.035C92.2832 113.84 93.2582 112.86 94.448 112.86C95.6441 112.86 96.6191 113.84 96.6191 115.035V145.821C96.6191 147.016 95.6441 147.996 94.448 147.996Z" fill="#FFD18D"/>
<path d="M89.6767 213.884C85.3669 217.568 78.9574 222.212 70.3439 225.805C64.4995 228.248 59.1302 229.587 54.7489 230.345C51.9339 223.989 49.1256 217.64 46.3174 211.284C57.3361 208.018 68.3547 204.752 79.3797 201.48C81.824 196.515 84.2683 191.558 86.7121 186.593C87.0698 187.149 87.6157 188.024 88.2267 189.141C89.5464 191.518 89.696 192.316 90.3984 192.583C90.8275 192.753 92.0621 192.956 94.7343 190.042C97.6854 191.015 100.637 191.982 103.588 192.949C105.148 196.222 106.715 199.488 108.281 202.754C107.293 212.206 105.785 217.046 103.77 217.274C102.574 217.405 101.208 215.935 99.6615 212.865C96.3334 213.205 93.0048 213.544 89.6767 213.884Z" fill="#1E1E1E" stroke="#1C1C1C" stroke-width="0.697634" stroke-miterlimit="10" stroke-linecap="round"/>
</g>
<defs>
<clipPath id="clip0_1242_3125">
<rect width="300.608" height="511.723" fill="white" transform="translate(0.696289)"/>
</clipPath>
</defs>
</svg>
