<svg width="484" height="345" viewBox="0 0 484 345" fill="none" xmlns="http://www.w3.org/2000/svg">
<g clip-path="url(#clip0_1256_3196)">
<path d="M57.3541 328.461C-130.183 263.716 201.838 38.5854 279.398 4.73437C356.957 -29.1168 529.974 127.688 471.351 185.274C412.727 242.861 231.669 388.641 57.3541 328.461Z" fill="#D0EED4"/>
<path d="M253.368 332.872C263.242 332.872 272.93 330.413 280.626 325.255C290.838 318.419 297.635 306.561 301.415 288.987C309.893 249.58 295.326 213.857 284.685 187.77C277.264 169.569 271.398 155.19 276.995 149.362C281.012 145.184 290.135 145.943 297.086 147.324L298.909 138.066C285.468 135.396 275.811 136.994 270.229 142.812C260.377 153.077 267.264 169.961 275.985 191.353C286.726 217.68 300.088 250.451 292.228 286.996C288.993 302.05 283.491 311.996 275.409 317.405C259.901 327.796 233.304 324.427 220.681 310.483C213.292 302.325 213.503 294.431 213.815 282.484C214.095 271.869 214.439 258.651 208.725 241.917C198.117 210.848 168.85 175.524 129.662 171.384C109.206 169.223 80.3361 174.468 66.355 196.347C61.5348 203.894 58.913 212.733 58.5586 222.628L67.9567 222.962C68.242 214.786 70.3668 207.548 74.268 201.444C86.7474 181.904 114.339 179.25 128.679 180.778C162.206 184.319 189.85 215.752 199.829 244.972C204.999 260.106 204.687 271.863 204.422 282.234C204.084 294.921 203.793 305.871 213.726 316.83C223.171 327.262 238.473 332.872 253.368 332.872Z" fill="#5E5E5E"/>
<path d="M20.5552 328.949H72.9625C79.1361 328.949 84.147 323.917 84.147 317.718V234.075C84.147 227.875 79.1361 222.845 72.9625 222.845H20.5552C14.3815 222.845 9.37598 227.875 9.37598 234.075V317.718C9.37598 323.917 14.3815 328.949 20.5552 328.949Z" fill="#8B8B8B"/>
<path d="M12.3886 338.677H81.1291C87.091 338.677 91.9222 333.827 91.9222 327.839V322.478C91.9222 316.492 87.091 311.64 81.1291 311.64H12.3886C6.43168 311.64 1.60059 316.492 1.60059 322.478V327.839C1.60059 333.827 6.43168 338.677 12.3886 338.677Z" fill="black"/>
<path d="M9.81452 235.588H83.7029C88.2432 235.588 91.9222 231.889 91.9222 227.334C91.9222 222.775 88.2432 219.076 83.7029 219.076H9.81452C5.27939 219.076 1.60059 222.775 1.60059 227.334C1.60059 231.889 5.27939 235.588 9.81452 235.588Z" fill="#303030"/>
<path d="M17.8379 329.47C17.8379 337.378 24.2177 343.791 32.0933 343.791C39.969 343.791 46.3539 337.378 46.3539 329.47C46.3539 321.56 39.969 315.153 32.0933 315.153C24.2177 315.153 17.8379 321.56 17.8379 329.47Z" fill="black"/>
<path d="M24.5771 329.47C24.5771 333.635 27.9389 337.017 32.0934 337.017C36.248 337.017 39.6149 333.635 39.6149 329.47C39.6149 325.298 36.248 321.916 32.0934 321.916C27.9389 321.916 24.5771 325.298 24.5771 329.47Z" fill="white"/>
<path d="M19.9941 259.337C19.9941 265.126 24.6667 269.82 30.4334 269.82C36.1948 269.82 40.8673 265.126 40.8673 259.337C40.8673 253.55 36.1948 248.858 30.4334 248.858C24.6667 248.858 19.9941 253.55 19.9941 259.337Z" fill="white"/>
<path d="M27.416 284.352C27.416 286.029 28.7639 287.388 30.4341 287.388C32.1044 287.388 33.4523 286.029 33.4523 284.352C33.4523 282.679 32.1044 281.321 30.4341 281.321C28.7639 281.321 27.416 282.679 27.416 284.352Z" fill="white"/>
<path d="M360.73 322.977L369.615 319.895L308.153 141.511L299.268 144.601L360.73 322.977Z" fill="#5E5E5E"/>
<path d="M368.66 317.123C376.45 319.788 384.882 322.278 393.92 324.428C397.366 325.245 400.744 325.983 404.053 326.64C404.84 327.007 412.018 330.451 411.548 333.281C411.151 335.633 405.501 337.252 397.446 336.966C382.17 336.966 366.889 336.966 351.613 336.966C354.388 331.529 357.158 326.099 359.933 320.658C357.702 316.068 355.466 311.472 353.23 306.874C357.374 305.664 361.518 304.449 365.663 303.238C366.667 307.868 367.661 312.495 368.66 317.123Z" fill="#FFD18D"/>
<path d="M305.029 137.205C303.528 140.758 302.017 144.309 300.51 147.849C294.849 145.959 289.045 144.102 283.099 142.302C272.094 138.957 261.38 136.011 250.999 133.421C249.646 132.526 247.928 131.193 246.242 129.277C244.715 127.552 243.662 125.874 242.954 124.521C245.317 119.335 247.674 114.15 250.037 108.963C255.714 110.73 260.011 112.71 262.723 114.074C277.607 121.57 282.402 129.685 296.942 134.919C300.415 136.166 303.328 136.851 305.029 137.205Z" fill="black"/>
<path d="M291.151 342.171C276.24 342.028 261.329 341.879 246.424 341.735C245.974 340.015 245.631 337.432 246.678 334.676C247.074 333.631 247.529 332.941 247.761 332.563C248.966 330.621 250.399 327.346 251.165 321.566C253.934 321.242 256.699 320.929 259.469 320.61C263.735 324.587 268.011 328.568 272.276 332.542C276.409 333.805 279.761 334.744 282.007 335.36C287.62 336.89 290.797 337.601 291.415 339.793C291.669 340.691 291.415 341.56 291.151 342.171Z" fill="#FEE9DD"/>
<path d="M316.03 59.7432C313.498 62.2169 310.961 64.6999 308.408 67.178C304.348 71.1489 300.289 75.1193 296.229 79.0962L278.475 61.2919C287.936 53.9787 297.392 46.6639 306.854 39.3491C307.953 43.0745 309.486 47.3108 311.653 51.8186C313.075 54.7583 314.56 57.4017 316.03 59.7432Z" fill="#FEE9DD"/>
<path d="M316.029 59.7434C313.497 62.217 310.96 64.7001 308.407 67.1782C305.167 63.7508 306.541 56.9501 311.542 51.9243C313.111 54.4389 314.565 57.0928 316.029 59.7434Z" fill="#EACDBD"/>
<path d="M219.768 179.997C217.326 163.628 214.884 147.264 212.437 130.899C222.76 117.704 233.077 104.509 243.4 91.318C247.946 85.5375 254.066 78.77 262.085 72.0772C271.531 64.1957 280.68 58.8553 288.032 55.2681C291.743 60.5759 295.453 65.8881 299.164 71.202C298.746 77.6028 297.61 85.8299 294.772 95.034C291.716 104.949 287.652 112.848 284.153 118.575C275.241 126.275 266.334 133.985 257.433 141.691C244.875 154.461 232.321 167.228 219.768 179.997Z" fill="#FEE9DD"/>
<path d="M266.164 214.182C271.587 227.669 272.856 239.551 268.812 242.116C264.478 244.87 252.892 237.578 241.702 222.811C229.508 200.827 217.308 178.841 205.109 156.86C216.96 148.394 228.805 139.922 240.656 131.457C245.223 138.448 249.974 146.925 254.124 156.887C263.527 179.467 265.842 200.014 266.164 214.182Z" fill="#FFB68D"/>
<path d="M191.488 226.564C184.088 239.064 175.441 247.282 170.964 245.608C166.148 243.815 164.906 230.136 169.822 212.253C179.844 189.191 189.865 166.122 199.887 143.056C213.773 147.387 227.658 151.718 241.549 156.048C238.784 163.937 234.947 172.859 229.566 182.222C217.388 203.416 202.509 217.717 191.488 226.564Z" fill="#FFB68D"/>
<path d="M264.389 329.147C259.574 328.796 254.759 328.45 249.944 328.106C251.027 314.901 249.056 305.016 246.994 298.351C243.627 287.405 240.826 286.466 239.33 276.296C237.401 263.163 240.334 251.243 240.878 249.093C241.703 245.865 242.02 245.632 243.31 240.876C245.62 232.393 246.73 225.323 247.316 220.638C254.573 228.365 261.831 236.099 269.088 243.833C268.126 249.182 267.265 254.703 266.524 260.383C263.263 285.356 263.02 308.488 264.389 329.147Z" fill="#FEE9DD"/>
<path d="M124.123 335.588C119.682 335.058 115.248 334.527 110.808 334.003C104.502 324.152 98.1964 314.299 91.8906 304.442C92.7836 302.876 94.3167 300.739 96.9015 299.49C97.9 299.001 98.704 298.811 99.1264 298.694C101.331 298.116 104.613 296.721 109.122 293.047C111.353 294.718 113.583 296.395 115.808 298.069C116.199 303.911 116.585 309.746 116.976 315.585C117.907 320.053 119.513 323.152 120.819 325.176C123.451 329.242 126.797 331.886 125.941 334.04C125.608 334.89 124.746 335.346 124.123 335.588Z" fill="#FEE9DD"/>
<path d="M113.567 307.674C110.296 304.104 107.029 300.531 103.768 296.963C113.573 288.099 118.895 279.555 121.956 273.284C126.977 263.003 125.592 260.392 131.454 251.963C139.023 241.082 149.299 234.425 151.17 233.243C153.971 231.464 154.357 231.512 158.553 228.943C166.023 224.367 171.668 219.988 175.294 216.983C175.288 227.61 175.288 238.236 175.283 248.858C170.922 252.091 166.525 255.509 162.106 259.123C142.67 275.047 126.681 291.698 113.567 307.674Z" fill="#FEE9DD"/>
<path d="M312.53 59.7703C310.062 56.2937 306.029 49.0635 306.119 36.7013C306.124 35.9947 306.351 25.5179 315.236 19.9342C320.945 16.3453 327.441 16.5211 332.198 18.2506C342.156 21.871 347.299 33.3098 345.592 39.165C345.301 40.1458 344.905 40.979 344.514 41.6425C340.988 47.1682 339.435 49.6523 339.371 49.8016L339.08 50.2202L338.731 50.4341C337.981 50.8737 337.23 51.3088 336.474 51.7484C332.727 55.8619 331.226 57.6511 330.845 58.267C330.052 59.4513 329.725 59.9506 329.223 60.1684L328.9 60.4216L329.064 61.1393L327.996 61.6181C327.843 61.6386 326.611 61.7812 326.141 61.0807L325.945 60.4813L326.21 62.3335L325.581 62.5099L325.021 62.3805C324.312 62.2379 322.779 65.725 321.426 66.4095C319.438 67.413 315.401 63.8098 312.53 59.7703Z" fill="#FEE9DD"/>
<path d="M334.604 59.4602C333.969 60.1032 332.838 59.9268 332.41 59.8583C331.258 59.6786 330.502 58.9935 330.216 58.7077C330.158 58.3677 330.111 57.7689 330.46 57.279C330.75 56.8748 331.141 56.8876 331.628 56.5204C331.94 56.286 332.336 55.8675 332.611 55.0774C333.996 53.7919 335.391 52.5125 336.781 51.2231C336.433 52.4605 336.136 53.4624 335.925 54.1485C335.243 56.4148 335.185 56.4353 335.085 57.0551C334.852 58.5004 335.069 58.988 334.604 59.4602Z" fill="#FEE9DD"/>
<path d="M335.434 49.7264L334.916 49.3073C334.831 48.9197 334.339 46.9293 332.458 45.9219C331.369 45.343 330.301 45.3098 329.598 45.4116L329.012 44.9449L329.477 44.35C330.322 44.2544 331.639 44.2814 332.954 44.993C335.19 46.1806 335.814 48.4304 335.946 49.0894L335.539 49.7159L335.434 49.7264Z" fill="#171930"/>
<path d="M334.482 49.6046C333.748 50.3383 332.717 50.5064 332.183 49.9712C331.655 49.4343 331.813 48.3998 332.553 47.6617C333.283 46.9231 334.319 46.76 334.847 47.2963C335.381 47.8315 335.223 48.8621 334.482 49.6046Z" fill="#171930"/>
<path d="M326.141 61.6045L325.792 61.4718C325.205 60.9537 324.714 60.3997 324.286 59.7799C323.747 59.0042 323.318 58.1605 323.022 57.2631L323.361 56.5952L324.027 56.9352C324.286 57.7253 324.672 58.4845 325.153 59.1684C325.539 59.7257 325.972 60.2194 326.49 60.6861L326.532 61.4303L326.141 61.6045Z" fill="#171930"/>
<path d="M331.327 41.2608C331.327 41.2608 332.114 41.462 332.923 41.9287C334.107 42.6253 336.322 44.5577 338.901 47.3752C339.255 47.232 340.001 46.8881 340.556 46.1063L341.037 45.1299C339.747 43.8837 338.272 42.5297 336.623 41.1325C336.163 40.7471 335.09 39.8597 333.505 39.3118C332.696 39.0365 332.299 39.0365 332.077 39.0525L331.174 39.4445L330.381 40.4851C330.417 40.8422 330.814 41.1552 331.327 41.2608Z" fill="#171930"/>
<path d="M239.435 229.776C236.94 241.492 234.799 256.762 235.127 274.618C235.476 293.404 238.441 309.273 241.592 321.236C244.277 322.723 250.033 325.419 257.65 325.166C262.275 325.01 265.985 323.822 268.422 322.802C269.992 290.287 271.556 257.766 273.126 225.255C266.921 199.876 260.72 174.507 254.515 149.138C241.655 156.677 228.795 164.214 215.93 171.751C223.769 191.094 231.602 210.434 239.435 229.776Z" fill="#FFD18D"/>
<path d="M239.037 183.554C222.657 201.033 206.261 218.804 189.88 236.857C186.012 241.12 182.164 245.381 178.326 249.637C159.261 269.246 140.201 288.848 121.135 308.445C120.416 308.35 112.435 307.081 108.798 299.698C106.039 294.097 107.636 288.752 108.011 287.599C110.987 276.507 118.487 255.064 137.981 236.857C146.136 229.235 154.387 224.06 161.285 220.529C173.886 193.714 186.487 166.899 199.088 140.089C205.547 134.649 212.012 129.208 218.476 123.761C230.491 132.222 242.505 140.678 254.514 149.137C249.36 160.607 244.201 172.084 239.037 183.554Z" fill="#FFD18D"/>
<path d="M209.566 131.261C211.929 134.143 214.852 137.195 218.478 140.09C231.587 150.56 246.027 152.876 253.733 153.465C260.763 148.368 269.2 141.209 277.429 131.437C289.533 117.062 296.341 102.764 300.205 92.5837C300.433 86.5748 300.66 80.556 300.887 74.541C295.025 68.6604 289.168 62.7748 283.307 56.8926C273.253 61.972 260.933 69.4671 248.448 80.4913C228.029 98.5218 216.174 118.018 209.566 131.261Z" fill="#F2ECEC"/>
<path d="M209.665 151.887C223.905 144.744 240.132 135.02 256.719 121.75C264.324 115.66 271.106 109.542 277.137 103.608C282.196 107.964 287.254 112.322 292.317 116.681C281.011 132.801 269.705 148.916 258.399 165.03C252.838 164.408 246.808 163.454 240.412 162.015C228.451 159.335 218.144 155.625 209.665 151.887Z" fill="#FFD18D"/>
<path d="M280.178 112.356C282.651 107.902 286.029 100.699 287.62 91.3081C287.9 89.6583 291.949 64.4661 282.916 60.0396C277.646 57.4537 269.743 62.8262 261.683 69.5727C248.152 80.9065 228.452 100.931 209.275 135.959C211.691 137.461 214.107 138.974 216.522 140.481C222.225 128.617 230.376 114.367 241.983 99.5734C251.064 87.9974 260.245 78.665 268.475 71.2982C268.824 70.9411 274.316 65.5758 278.607 67.3169C282.16 68.756 282.741 74.201 283.111 78.1343C283.676 84.116 283.518 96.2145 274.104 112.608C276.129 112.523 278.153 112.445 280.178 112.356Z" fill="#FFD18D"/>
<path d="M224.99 197.79L224.498 197.573L224.546 196.633L233.298 188.729L234.234 188.773L234.186 189.712L225.434 197.616L224.99 197.79Z" fill="#3B3C4D"/>
<path d="M233.742 189.882L233.087 189.287L233.679 188.559L246.665 187.185L247.39 187.776L246.798 188.501L233.811 189.876L233.742 189.882Z" fill="#3B3C4D"/>
<path d="M163.442 229.654L162.872 229.325L158.601 221.984L158.839 221.07L159.737 221.31L164.013 228.65L163.776 229.563L163.442 229.654Z" fill="#3B3C4D"/>
<path d="M223.964 151.029L223.309 150.427L222.865 145.858L223.457 145.137L224.176 145.732L224.62 150.301L224.028 151.022L223.964 151.029Z" fill="#3B3C4D"/>
<path d="M219.704 151.028L219.043 150.311L219.355 146.357L220.069 145.748L220.676 146.463L220.364 150.417L219.704 151.028Z" fill="#3B3C4D"/>
<path d="M157.275 229.947L156.619 229.187L157.206 225.221L157.962 224.659L158.517 225.418L157.925 229.382L157.275 229.947Z" fill="#3B3C4D"/>
<path d="M276.942 111.352L276.281 110.689V107.243L276.942 106.579L277.603 107.243V110.689L276.942 111.352Z" fill="#3B3C4D"/>
<path d="M115.555 291.603L115.116 291.437L115.058 290.498L160.81 238.576L161.746 238.524L161.804 239.457L116.051 291.379L115.555 291.603Z" fill="#3B3C4D"/>
<path d="M169.315 231.131L168.982 231.036L168.75 230.127L209.095 161.979L209.999 161.745L210.232 162.652L169.886 230.801L169.315 231.131Z" fill="#3B3C4D"/>
<path d="M245.989 343.454H293C292.773 341.895 292.202 339.654 290.595 337.629C288.359 334.819 285.41 334.033 281.25 332.739C277.968 331.715 273.226 330.164 267.338 327.941C266.81 326.555 266.022 324.958 265.092 324.972C263.67 324.989 263.315 328.748 261.465 331.12C259.637 333.45 255.593 335.398 245.989 334.019C245.545 334.744 243.901 337.649 244.821 340.998C245.106 342.028 245.561 342.851 245.989 343.454Z" fill="#F2ECEC" stroke="black" stroke-width="0.534933" stroke-miterlimit="10"/>
<path d="M244.504 344.72H293.386C293.888 344.72 294.301 344.305 294.301 343.801C294.301 343.301 293.888 342.887 293.386 342.887H244.504C243.997 342.887 243.59 343.301 243.59 343.801C243.59 344.305 243.997 344.72 244.504 344.72Z" fill="#5E5E5E"/>
<path d="M91.0654 303.12C96.9908 313.838 102.916 324.549 108.836 335.26C114.465 335.509 120.095 335.754 125.719 336.002C126.448 334.761 127.193 332.984 126.828 331.076C126.258 328.104 123.377 326.879 121.374 324.93C119.138 322.763 117.045 318.783 117.499 310.827C117.711 309.942 117.912 308.571 117.182 307.829C115.871 306.496 112.811 308.592 110.094 308.482C107.139 308.364 103.197 306.214 98.6821 297.584C97.8367 297.659 94.5332 298.02 92.3658 300.732C91.7002 301.565 91.3087 302.42 91.0654 303.12Z" fill="#F2ECEC" stroke="black" stroke-width="0.534933" stroke-miterlimit="10"/>
<path d="M108.207 335.102L109.243 336.895H125.883C126.401 336.895 126.824 336.518 126.824 335.999C126.824 335.479 126.401 335.102 125.883 335.102H108.207Z" fill="#5E5E5E"/>
<path d="M90.251 303.614L90.3461 304.039L108.206 335.1L109.242 336.893H111.357L110.326 335.1L91.9423 303.14L90.6789 302.817L90.251 303.614Z" fill="#5E5E5E"/>
<path d="M346.84 38.7771C346.307 42.0032 345.302 43.0399 344.414 43.3467C342.4 44.0373 341.29 40.8089 336.628 39.3592C333.06 38.2501 331.697 39.5152 327.595 37.8897C326.38 37.4026 325.793 37.0144 324.582 36.9293C322.294 36.7761 320.893 37.9477 319.593 37.0725C319.234 36.8336 319.133 36.6064 318.34 36.0419C317.505 35.4492 317.087 35.1506 316.796 35.1567C315.486 35.1943 315.671 38.9197 313.203 40.4689C312.515 40.9002 311.664 41.0058 309.968 41.207C308.207 41.4205 306.648 41.6051 305.929 40.7675C305.432 40.1825 305.538 39.372 305.712 38.2562C306.416 33.5002 306.791 31.1012 307.399 30.5124C309.106 28.8553 312.087 29.3386 313.641 29.6244C324.128 31.5529 343.992 37.8648 346.84 38.7771Z" fill="black"/>
<path d="M346.84 40.3954C347.765 37.4435 349.356 30.7192 346.106 24.6838C340.323 13.9449 322.5 11.0798 312.832 18.8613C307.858 22.8631 306.284 28.6746 305.733 31.6149C319.434 34.5469 333.134 37.4701 346.84 40.3954Z" fill="black"/>
<path d="M372.735 46.7323C370.911 46.5725 369.045 46.3818 367.158 46.1396C355.493 44.6567 345.074 41.7645 336.01 38.3244C330.121 36.4147 328.879 35.602 328.959 35.2249C329.254 33.8332 347.628 37.0516 349.821 37.4392C370.8 41.1447 372.623 44.2686 372.787 45.8571L372.735 46.7323Z" fill="black"/>
<path d="M314.73 161.022C314.582 152.833 314.444 144.642 314.302 136.446C305.226 133.369 300.3 132.546 299.528 133.973C299.047 134.871 300.183 136.643 302.943 139.303C302.62 141.144 302.07 145.748 304.312 150.804C307.335 157.641 313.271 160.396 314.73 161.022Z" fill="black"/>
<path d="M329.27 194.679C325.993 196.691 322.71 198.698 319.428 200.705C315.918 195.853 312.271 190.96 308.481 186.017C301.467 176.871 294.453 168.214 287.507 160.045C286.926 158.528 286.302 156.442 286.033 153.9C285.789 151.607 285.917 149.621 286.117 148.109C291.039 145.269 295.964 142.43 300.891 139.589C304.474 144.34 306.837 148.463 308.249 151.161C316.018 165.948 315.215 175.343 324.021 188.099C326.119 191.144 328.086 193.396 329.27 194.679Z" fill="#FEE9DD"/>
<path d="M273.855 119.366C274.479 121.05 275.135 122.822 275.895 124.755C278.39 131.373 281.594 139.393 285.563 148.389L301.521 142.456C298.423 128.205 295.304 113.911 292.207 99.6581C292.387 97.9812 293.428 85.3105 283.956 76.3514C278.422 71.1077 272.069 69.7951 269.383 69.4341C268.786 69.8593 267.919 70.6388 267.063 71.7126C262.845 77.0043 262.148 86.1233 272.486 115.503C272.899 116.756 273.374 118.039 273.855 119.366Z" fill="#FEE9DD"/>
<path d="M273.855 119.366C274.479 121.05 275.135 122.822 275.895 124.755C282.011 120.815 288.19 116.902 294.321 113.013L272.486 115.503C272.899 116.756 273.374 118.039 273.855 119.366Z" fill="#EACDBD"/>
<path d="M267.998 120.917C278.057 118.369 288.115 115.811 298.174 113.262C296.567 102.673 294.96 92.0886 293.354 81.4995C296.086 71.5949 290.8 62.3704 283.596 60.4585C278.691 59.1587 273.093 61.3022 269.097 65.5617C267.438 67.2055 265.165 69.8926 263.537 73.7076C261.28 79.0115 261.402 83.7719 261.629 86.1604C263.748 97.7464 265.879 109.335 267.998 120.917Z" fill="#F2ECEC"/>
<path d="M312.393 182.36C317.483 183.65 322.568 184.942 327.658 186.225C331.897 192.149 331.422 196.336 331.052 198.014C330.718 199.484 329.905 202.09 329.043 202.042C328.16 201.995 327.653 199.213 327.526 198.454C326.644 199.192 325.153 200.651 324.143 202.951C322.711 206.214 323.118 209.171 323.34 210.328C324.239 213.529 325.248 217.616 324.529 217.919C324.191 218.055 323.562 217.293 322.996 216.549C318.614 210.733 316.352 203.54 315.586 201.226C314.729 198.651 314.153 196.48 313.789 194.983C308.646 189.188 303.508 183.384 298.365 177.579C304.095 174.458 309.819 171.336 315.549 168.209C318.324 174.839 321.099 181.469 323.869 188.099L312.393 182.36Z" fill="black"/>
<path d="M296.151 100.461L295.622 99.9984L293.799 85.2361L294.259 84.6367L294.85 85.0989L296.679 99.8596L296.219 100.461H296.151Z" fill="#171930"/>
<path d="M266.011 114.479L265.483 114.01L262.364 88.4742L262.824 87.8848L263.416 88.3514L266.54 113.887L266.075 114.479H266.011Z" fill="#171930"/>
<path d="M285.584 150.233L285.056 149.654L285.372 145.891L285.944 145.412L286.425 145.987L286.113 149.75L285.584 150.233Z" fill="#171930"/>
</g>
<defs>
<clipPath id="clip0_1256_3196">
<rect width="482.5" height="344.719" fill="white" transform="translate(0.75)"/>
</clipPath>
</defs>
</svg>
