<svg width="32" height="35" viewBox="0 0 32 35" fill="none" xmlns="http://www.w3.org/2000/svg">
<g clip-path="url(#clip0_1242_3104)">
<path d="M31.9998 14.3185C31.9998 19.0254 27.7162 22.8411 22.432 22.8411C17.1479 22.8411 12.8643 19.0254 12.8643 14.3185C12.8643 9.61164 17.1479 0.891479 22.432 0.891479C27.7162 0.891479 31.9998 9.61164 31.9998 14.3185Z" fill="#FFD18D"/>
<path d="M22.4394 15.8461C22.4394 19.7093 19.3076 22.8411 15.4444 22.8411C11.5812 22.8411 8.4495 19.7093 8.4495 15.8461C8.4495 11.9829 7.56109 6.11755 11.4243 6.11755C15.2875 6.11755 22.4394 11.9829 22.4394 15.8461Z" fill="#FEB549"/>
<path d="M23.3968 25.586C23.3968 30.2928 19.1132 34.1085 13.829 34.1085C8.54491 34.1085 0 26.0316 0 21.3247C0 16.6178 8.54491 17.0634 13.829 17.0634C19.1132 17.0634 23.3968 20.8791 23.3968 25.586Z" fill="#FFD18D"/>
</g>
<defs>
<clipPath id="clip0_1242_3104">
<rect width="31.9998" height="33.2171" fill="white" transform="translate(0 0.891479)"/>
</clipPath>
</defs>
</svg>
