<svg width="26" height="23" viewBox="0 0 26 23" fill="none" xmlns="http://www.w3.org/2000/svg">
<g clip-path="url(#clip0_1256_3190)">
<path d="M7.54 0.0976562H18.46C22.62 0.0976562 26 2.95766 26 6.47766V15.7177C26 17.4097 25.2056 19.0325 23.7916 20.229C22.3776 21.4255 20.4597 22.0977 18.46 22.0977H7.54C3.38 22.0977 0 19.2377 0 15.7177V6.47766C0 4.78558 0.794391 3.1628 2.20841 1.96632C3.62244 0.769833 5.54027 0.0976563 7.54 0.0976562ZM7.28 2.29766C6.03879 2.29766 4.84841 2.71487 3.97074 3.45751C3.09307 4.20016 2.6 5.2074 2.6 6.25766V15.9377C2.6 18.1267 4.693 19.8977 7.28 19.8977H18.72C19.9612 19.8977 21.1516 19.4804 22.0293 18.7378C22.9069 17.9952 23.4 16.9879 23.4 15.9377V6.25766C23.4 4.06866 21.307 2.29766 18.72 2.29766H7.28ZM19.825 3.94766C20.256 3.94766 20.6693 4.09252 20.974 4.35038C21.2788 4.60825 21.45 4.95798 21.45 5.32266C21.45 5.68733 21.2788 6.03707 20.974 6.29493C20.6693 6.55279 20.256 6.69766 19.825 6.69766C19.394 6.69766 18.9807 6.55279 18.6759 6.29493C18.3712 6.03707 18.2 5.68733 18.2 5.32266C18.2 4.95798 18.3712 4.60825 18.6759 4.35038C18.9807 4.09252 19.394 3.94766 19.825 3.94766ZM13 5.59766C14.7239 5.59766 16.3772 6.17712 17.5962 7.20857C18.8152 8.24002 19.5 9.63897 19.5 11.0977C19.5 12.5563 18.8152 13.9553 17.5962 14.9867C16.3772 16.0182 14.7239 16.5977 13 16.5977C11.2761 16.5977 9.62279 16.0182 8.40381 14.9867C7.18482 13.9553 6.5 12.5563 6.5 11.0977C6.5 9.63897 7.18482 8.24002 8.40381 7.20857C9.62279 6.17712 11.2761 5.59766 13 5.59766ZM13 7.79766C11.9657 7.79766 10.9737 8.14533 10.2423 8.7642C9.51089 9.38307 9.1 10.2224 9.1 11.0977C9.1 11.9729 9.51089 12.8122 10.2423 13.4311C10.9737 14.05 11.9657 14.3977 13 14.3977C14.0343 14.3977 15.0263 14.05 15.7577 13.4311C16.4891 12.8122 16.9 11.9729 16.9 11.0977C16.9 10.2224 16.4891 9.38307 15.7577 8.7642C15.0263 8.14533 14.0343 7.79766 13 7.79766Z" fill="black"/>
</g>
<defs>
<clipPath id="clip0_1256_3190">
<rect width="26" height="22" fill="white" transform="translate(0 0.0976562)"/>
</clipPath>
</defs>
</svg>
