<svg width="86" height="91" viewBox="0 0 86 91" fill="none" xmlns="http://www.w3.org/2000/svg">
<g clip-path="url(#clip0_1272_3206)">
<path d="M86.0003 36.9498C86.0003 49.5996 74.4879 59.8543 60.2867 59.8543C46.0856 59.8543 34.5732 49.5996 34.5732 36.9498C34.5732 24.3001 46.0856 0.864502 60.2867 0.864502C74.4879 0.864502 86.0003 24.3001 86.0003 36.9498Z" fill="#FFD18D"/>
<path d="M60.3056 41.0553C60.3056 51.4377 51.889 59.8543 41.5066 59.8543C31.1242 59.8543 22.7077 51.4377 22.7077 41.0553C22.7077 30.673 20.3201 14.9097 30.7024 14.9097C41.0848 14.9097 60.3056 30.673 60.3056 41.0553Z" fill="#FEB549"/>
<path d="M62.8792 67.2312C62.8792 79.881 51.3669 90.1357 37.1657 90.1357C22.9646 90.1357 0 68.4287 0 55.779C0 43.1292 22.9646 44.3267 37.1657 44.3267C51.3669 44.3267 62.8792 54.5814 62.8792 67.2312Z" fill="#FFD18D"/>
</g>
<defs>
<clipPath id="clip0_1272_3206">
<rect width="85.9999" height="89.2712" fill="white" transform="translate(0 0.864502)"/>
</clipPath>
</defs>
</svg>
