<svg width="96" height="96" viewBox="0 0 96 96" fill="none" xmlns="http://www.w3.org/2000/svg">
<g clip-path="url(#clip0_1242_3124)">
<path d="M46.8285 0.602493L46.209 1.18498V8.51623V15.8475L46.6595 16.3697C47.4855 17.3137 48.7621 17.2535 49.5318 16.209C49.8321 15.8274 49.8697 15.1043 49.8697 8.49615V1.18498L49.3253 0.602493C48.5744 -0.200933 47.6545 -0.200933 46.8285 0.602493Z" fill="black"/>
<path d="M14.2202 15.0239C13.6758 15.5662 13.5632 15.8876 13.6195 16.8718C13.6383 17.4543 20.1337 24.5646 20.9784 24.9462C22.1611 25.4484 23.4001 24.5043 23.4001 23.0782C23.4001 22.2347 23.3438 22.1744 19.777 18.3581C16.3791 14.7226 16.1163 14.4816 15.4592 14.4816C14.9711 14.4816 14.6145 14.6423 14.2202 15.0239Z" fill="black"/>
<path d="M79.6238 14.8634C78.6289 15.5262 72.8093 21.9737 72.6779 22.5562C72.3212 24.1028 73.5414 25.4084 74.9682 25.0267C75.4938 24.8861 81.0506 19.2019 81.9892 17.816C82.7964 16.651 82.6275 15.3455 81.5762 14.763C80.8628 14.3814 80.2997 14.4014 79.6238 14.8634Z" fill="black"/>
<path d="M46.8469 20.4673C45.3076 21.9335 46.9408 24.5647 48.7993 23.6207C50.0008 23.0181 50.2448 21.4515 49.2874 20.4873C48.5177 19.704 47.6542 19.704 46.8469 20.4673Z" fill="black"/>
<path d="M23.7367 29.3451C22.9107 29.6062 21.9721 30.3092 21.484 31.0122C20.3201 32.6593 10.5394 48.9688 10.3329 49.6115C10.2015 50.0132 10.0889 50.656 10.0701 51.0577C10.0514 52.9056 9.73221 52.4838 27.7729 74.1361C37.1781 85.4443 45.2316 94.9649 45.6446 95.2662C46.5833 95.9692 48.01 96.1901 49.2303 95.8286C49.8685 95.6277 50.4317 95.226 51.2014 94.4427C53.2476 92.3337 85.199 53.7492 85.4994 53.0462C85.8936 52.062 85.9875 50.8769 85.7434 49.9128C85.5557 49.1295 75.0992 31.6148 74.2169 30.5703C73.9916 30.3092 73.3909 29.8874 72.8653 29.6263L71.9266 29.1443L48.0851 29.1644C34.9817 29.1644 24.0183 29.2447 23.7367 29.3451ZM43.5984 34.8084C38.9615 42.5012 35.9203 47.5226 35.8828 47.5829C35.8452 47.623 27.6978 34.246 27.266 33.4024C27.1534 33.2216 28.9368 33.1614 35.864 33.1614H44.6121L43.5984 34.8084ZM68.8291 33.2618C68.8291 33.4024 60.5878 47.0606 60.325 47.3619C60.1561 47.5427 59.3864 46.438 57.1149 42.6418C55.4628 39.9102 53.4917 36.6563 52.7408 35.411L51.3704 33.1614H60.0997C64.9056 33.1614 68.8291 33.2016 68.8291 33.2618ZM28.0733 42.1999L32.391 49.3303L27.9794 49.3906C25.5577 49.4107 21.5966 49.4107 19.1749 49.3906L14.7821 49.3303L19.1374 42.1598C21.5403 38.2029 23.549 34.9892 23.6241 35.0294C23.6992 35.0494 25.6891 38.2832 28.0733 42.1999ZM76.6198 41.738C78.8726 45.4739 80.8437 48.7278 80.9939 48.9688L81.2567 49.4308H72.4898C66.0695 49.4308 63.7417 49.3705 63.798 49.2098C63.9294 48.8081 72.3021 34.9691 72.4147 34.9691C72.471 34.9691 74.3671 38.0221 76.6198 41.738ZM52.3841 42.1999C54.7119 46.0765 56.6268 49.2902 56.6268 49.3303C56.6268 49.3906 52.7408 49.4308 47.9913 49.4308C43.2417 49.4308 39.3557 49.3906 39.3557 49.3303C39.3557 49.1295 47.8598 35.17 47.9913 35.17C48.0663 35.17 50.0375 38.3435 52.3841 42.1999ZM34.6438 54.0906C34.7376 54.4522 36.859 61.8437 39.3557 70.5207C41.8338 79.1977 43.9926 86.6896 44.1616 87.1917L44.4244 88.0956L43.9926 87.5935C43.3919 86.9105 16.2464 54.2312 15.9085 53.7893C15.6644 53.468 16.1713 53.4479 25.0508 53.4479H34.4373L34.6438 54.0906ZM57.5279 53.6889C57.4903 53.8295 55.3314 61.3014 52.7596 70.2596C50.1877 79.2378 48.0476 86.5892 47.9913 86.5892C47.9349 86.5892 45.7948 79.2378 43.223 70.2596C40.6511 61.3014 38.4922 53.8295 38.4547 53.6889C38.3983 53.5081 40.3883 53.4479 47.9913 53.4479C55.5943 53.4479 57.5842 53.5081 57.5279 53.6889ZM80.074 53.7893C79.7737 54.191 52.4404 87.0712 51.896 87.6939C51.5581 88.0956 51.5393 88.0956 51.727 87.493C51.8397 87.1516 53.9986 79.6596 56.5329 70.822C59.0672 61.9843 61.2449 54.4522 61.3387 54.0906L61.5452 53.4479H70.9317C79.8112 53.4479 80.3181 53.468 80.074 53.7893Z" fill="black"/>
<path d="M0.853284 49.732C-0.179223 50.3346 -0.29186 51.9414 0.609237 52.8654C1.04101 53.2872 1.28506 53.3474 3.14357 53.4077C4.26994 53.4679 5.4714 53.4278 5.82809 53.3675C7.38623 53.0462 7.98696 51.1782 6.89814 50.0132L6.35373 49.4307H3.83816C2.05475 49.4508 1.20997 49.5312 0.853284 49.732Z" fill="black"/>
<path d="M89.086 50.0132C87.9972 51.1782 88.5979 53.0462 90.156 53.3675C90.5127 53.4278 91.7142 53.4679 92.8405 53.4077C94.6991 53.3474 94.9431 53.2872 95.3749 52.8654C95.9568 52.2628 96.1633 51.379 95.863 50.6158C95.4687 49.6316 94.868 49.4307 92.1084 49.4307H89.6304L89.086 50.0132Z" fill="black"/>
</g>
<defs>
<clipPath id="clip0_1242_3124">
<rect width="96" height="96" fill="white"/>
</clipPath>
</defs>
</svg>
