<svg width="27" height="23" viewBox="0 0 27 23" fill="none" xmlns="http://www.w3.org/2000/svg">
<g clip-path="url(#clip0_1256_3165)">
<path d="M18.5387 2.66838C17.5255 2.66821 16.5528 3.06569 15.8297 3.77533C15.1066 4.48497 14.6909 5.45007 14.672 6.46305L14.6347 8.56305C14.6327 8.67591 14.6068 8.78708 14.5588 8.88924C14.5108 8.99139 14.4416 9.08223 14.356 9.15578C14.2704 9.22932 14.1701 9.28391 14.0619 9.31596C13.9537 9.34801 13.8399 9.35678 13.728 9.34172L11.6453 9.05772C8.908 8.68438 6.284 7.42438 3.76533 5.32705C2.96933 9.74038 4.52533 12.7977 8.276 15.1564L10.6053 16.6204C10.7158 16.6899 10.8076 16.7853 10.8727 16.8985C10.9379 17.0116 10.9743 17.1389 10.9789 17.2694C10.9835 17.3998 10.9561 17.5294 10.8991 17.6468C10.8422 17.7642 10.7573 17.8659 10.652 17.943L8.52933 19.495C9.792 19.575 10.9907 19.5191 11.9853 19.3217C18.276 18.0657 22.4587 13.3324 22.4587 5.52438C22.4587 4.88705 21.108 2.66838 18.5387 2.66838ZM12.0053 6.41505C12.0286 5.12978 12.4305 3.87994 13.1607 2.82201C13.891 1.76408 14.9171 0.945074 16.1106 0.467538C17.304 -0.00999916 18.6119 -0.124846 19.8703 0.137378C21.1288 0.399602 22.2819 1.02724 23.1853 1.94172C24.1333 1.93505 24.94 2.17505 26.7427 1.08038C26.2973 3.26705 26.076 4.21772 25.1253 5.52305C25.1253 15.711 18.8627 20.667 12.5067 21.935C8.15067 22.8044 1.81333 21.3764 0 19.4791C0.924 19.4084 4.684 19.0044 6.85733 17.4124C5.01733 16.199 -2.3 11.8924 2.50933 0.316382C4.76667 2.95238 7.056 4.74572 9.376 5.69905C10.9187 6.33238 11.2987 6.31905 12.0067 6.41638L12.0053 6.41505Z" fill="black"/>
</g>
<defs>
<clipPath id="clip0_1256_3165">
<rect width="26.7427" height="22.1958" fill="white"/>
</clipPath>
</defs>
</svg>
