<svg width="474" height="399" viewBox="0 0 474 399" fill="none" xmlns="http://www.w3.org/2000/svg">
<g clip-path="url(#clip0_1256_3187)">
<path d="M56.1614 321.595C-127.508 258.203 197.666 37.7791 273.627 4.63541C349.587 -28.5082 519.036 125.019 461.622 181.401C404.207 237.783 226.881 380.517 56.1614 321.595Z" fill="#D0EED4"/>
<path d="M227.546 91.5271C215.283 87.6705 203.764 115.152 189.591 112.902C181.178 111.566 174.21 100.154 173.745 91.3812C173.533 87.4474 174.759 86.8602 176.043 76.7933C177.198 67.7715 176.26 67.761 177.198 60.475C178.026 53.9944 179.268 45.0351 184.962 36.2106C188.079 31.377 190.926 29.0644 191.584 28.5556C193.328 27.1992 198.898 22.7505 205.965 23.0674C212.203 23.3481 216.473 27.095 218.482 28.8413C222.825 32.6298 225.186 38.4662 229.902 50.1433C230.569 51.7964 231.273 53.6309 231.719 56.1409C232.49 60.4701 231.879 63.3386 231.574 67.1168C231.154 72.355 231.574 76.2894 232.008 80.4053C233.085 90.6279 235.995 96.0794 234.597 96.8694C233.339 97.5762 231.501 92.7738 227.546 91.5271Z" fill="black"/>
<path d="M286.38 118.462C287.571 119.803 288.761 121.139 289.957 122.475C283.367 133.305 273.397 146.324 258.493 157.663C254.911 160.386 251.37 162.772 247.922 164.861C247.498 164.84 242.611 164.492 240.095 160.267C238.325 157.289 238.842 154.264 239.003 153.485C242.176 150.205 244.92 147.877 246.545 146.563C259.984 135.644 269.318 134.838 281.105 123.94C283.626 121.607 285.453 119.543 286.38 118.462Z" fill="#FEE9DD"/>
<path d="M288.663 129.21C283.082 135.986 277.502 142.769 271.916 149.551C270.218 147.909 267.904 145.289 266.03 141.557C264.58 138.678 263.84 136.018 263.441 134.001C269.411 129.09 275.379 124.179 281.353 119.268C283.056 118.758 284.764 118.249 286.467 117.735C287.203 121.56 287.927 125.385 288.663 129.21Z" fill="black"/>
<path d="M246.343 104.332C218.916 104.171 191.49 104.005 164.064 103.843C164.623 101.058 165.85 97.2954 168.904 94.3282C175.018 88.3876 182.7 91.3242 188.902 86.6573C192.179 84.1994 195.653 79.2309 196.103 68.2654L197.346 68.1717C199.861 68.0001 202.366 67.8235 204.867 67.647C207.368 67.8235 209.868 68.0001 212.379 68.1717L213.626 68.2654C214.082 79.2309 217.539 84.1994 220.816 86.6573C226.992 91.2929 234.4 88.4765 240.814 94.3282C244.179 97.4046 245.638 101.38 246.343 104.332Z" fill="#FEE9DD"/>
<path d="M212.228 72.1632C212.228 75.801 208.93 78.7425 204.862 78.7425C200.793 78.7425 197.495 75.801 197.495 72.1632C197.495 68.5358 200.793 65.5889 204.862 65.5889C208.93 65.5889 212.228 68.5358 212.228 72.1632Z" fill="#EACDBD"/>
<path d="M204.94 27.932C203.33 27.9216 201.938 28.0049 200.623 28.1607C193.386 29.0132 187.93 35.1714 187.93 42.4887V57.3519C188.303 59.2176 189.819 65.5425 195.658 70.0483C199.044 72.6674 202.487 73.6027 204.485 73.9717L204.863 73.9563L205.251 73.9717C207.239 73.6027 210.686 72.6674 214.072 70.0483C219.911 65.5425 221.428 59.2176 221.806 57.3519V42.4887C221.806 35.1714 216.345 29.0132 209.107 28.1607C207.793 28.0049 206.4 27.9216 204.94 27.932Z" fill="#FEE9DD"/>
<path d="M190.968 52.4407C190.968 55.4343 189.188 57.856 186.987 57.856C184.787 57.856 183.012 55.4343 183.012 52.4407C183.012 49.4471 184.787 47.0254 186.987 47.0254C189.188 47.0254 190.968 49.4471 190.968 52.4407Z" fill="#FEE9DD"/>
<path d="M226.718 52.4407C226.718 55.4343 224.938 57.856 222.737 57.856C220.542 57.856 218.762 55.4343 218.762 52.4407C218.762 49.4471 220.542 47.0254 222.737 47.0254C224.938 47.0254 226.718 49.4471 226.718 52.4407Z" fill="#FEE9DD"/>
<path d="M203.133 59.212C203.713 58.8847 204.287 58.8118 204.862 58.7959C205.442 58.8063 206.016 58.8792 206.591 59.212C206.016 59.5394 205.442 59.6123 204.862 59.6227C204.287 59.6123 203.713 59.5394 203.133 59.212Z" fill="#171930"/>
<path d="M229.442 102.518L230.379 102.809C230.871 103.204 231.047 103.958 230.788 104.69C212.39 104.69 194.002 104.69 175.604 104.69C175.387 104.103 175.527 103.469 175.951 103.1L177.064 102.809C184.389 100.886 190.11 100.928 194.018 101.344C197.207 101.676 198.035 102.139 201.56 102.31C207.83 102.612 210.568 101.416 215.677 101.078C218.845 100.865 223.54 100.938 229.442 102.518Z" fill="white"/>
<path d="M201.56 91.0122C202.32 91.9739 203.537 92.4311 204.712 92.1866C206.374 91.8439 207.005 90.3054 207.052 90.1914L201.56 91.0122Z" fill="#E88D60"/>
<path d="M207.409 93.8913C207.808 94.0788 208.434 94.3491 209.216 94.5931C211.845 95.4144 214.056 95.2532 215.589 95.1232C221.158 94.6501 226.304 93.8655 228.038 93.5952C224.042 93.7306 220.051 93.8704 216.054 94.0059L207.409 93.8913Z" fill="#E88D60"/>
<path d="M202.321 93.8913C201.923 94.0788 201.297 94.3491 200.515 94.5931C197.885 95.4144 195.675 95.2532 194.142 95.1232C188.572 94.6501 183.427 93.8655 181.692 93.5952C185.683 93.7306 189.68 93.8704 193.671 94.0059L202.321 93.8913Z" fill="#E88D60"/>
<path d="M199.676 281.782C193.117 280.53 186.559 279.277 180.005 278.025C176.169 267.979 172.302 255.403 169.755 240.643C167.462 227.334 166.778 215.381 166.83 205.382C178.4 208.485 190.291 211.062 202.497 213.047L203.579 213.219C203.895 218.779 204.071 224.553 204.066 230.525C204.061 249.364 202.285 266.56 199.676 281.782Z" fill="#FFB68D"/>
<path d="M199.841 283.658C199.841 289.728 194.664 294.333 189.187 294.349C184.984 294.364 181.029 291.667 179.186 287.499C179.372 285.904 179.533 284.271 179.673 282.598C179.807 281.044 179.916 279.516 180.004 278.025C180.304 277.583 183.669 272.89 189.187 272.968C194.488 273.041 199.841 277.49 199.841 283.658Z" fill="#FFB68D"/>
<path d="M198.703 379.728C195.882 379.022 193.065 378.315 190.244 377.608C190.286 375.747 190.296 372.832 190.084 369.283C188.458 341.884 176.956 331.064 176.262 309.533C176.096 304.42 176.485 296.904 179.352 287.66C186.18 286.568 193.009 285.482 199.842 284.39C200.215 304.399 199.572 319.933 198.863 330.758C198.475 336.739 197.704 346.847 197.89 360.796C197.994 368.742 198.377 375.296 198.703 379.728Z" fill="#FFB68D"/>
<path d="M201.141 395.403C194.043 395.346 186.936 395.294 179.839 395.242C179.326 394.483 178.793 393.418 179.026 392.3C179.435 390.326 181.982 389.474 183.416 388.709C185.807 387.442 188.582 384.578 190.244 377.609C193.008 377.879 195.772 378.149 198.542 378.425C199.36 381.511 200.09 384.381 200.815 387.239C201.239 388.912 201.721 390.877 201.467 393.444C201.384 394.27 201.25 394.946 201.141 395.403Z" fill="#FEE9DD"/>
<path d="M232.201 175.998C229.048 170.557 225.564 166.244 222.442 162.938C224.472 152.31 226.511 141.683 228.546 131.06C232.454 129.08 235.125 125.125 235.125 120.578C235.125 117.569 233.961 114.83 232.05 112.746C232.589 109.94 233.122 107.139 233.665 104.332C232.133 102.518 229.856 100.377 226.666 98.7819C216.525 93.7043 205.934 98.6102 204.226 99.4365C202.362 98.6102 191.771 93.7043 181.624 98.7819C178.441 100.377 176.163 102.518 174.631 104.332C175.169 107.139 175.713 109.94 176.246 112.746C174.335 114.83 173.171 117.569 173.171 120.578C173.171 125.125 175.842 129.08 179.75 131.06C181.785 141.683 183.819 152.31 185.854 162.938C182.727 166.244 179.248 170.557 176.101 175.998C169.459 187.457 167.476 198.433 166.829 205.382C172.922 207.902 180.641 210.423 189.757 211.914C194.762 212.73 199.411 213.104 203.578 213.219C203.765 210.812 204.526 210.812 204.718 213.219C208.89 213.104 213.528 212.73 218.539 211.914C227.661 210.423 235.374 207.902 241.467 205.382C240.825 198.433 238.837 187.457 232.201 175.998Z" fill="#FFB68D"/>
<path d="M205.091 68.7486C203.838 68.7174 202.845 68.4783 201.897 68.0474L201.644 67.356L202.332 67.1011C203.145 67.4755 204.009 67.6833 204.895 67.7091C205.873 67.7667 206.81 67.5589 207.716 67.1691L208.394 67.4443L208.119 68.1252C207.151 68.5408 206.132 68.7486 205.091 68.7486Z" fill="#171930"/>
<path d="M204.702 65.6565C201.721 65.6565 199.464 64.4508 198.356 63.6975L198.211 62.9804L198.93 62.8345C200.017 63.5725 202.254 64.7628 205.277 64.6016C207.684 64.4613 209.496 63.5051 210.593 62.7358L211.313 62.8608L211.189 63.5829C209.988 64.4355 207.989 65.4854 205.339 65.6357L204.702 65.6565Z" fill="#171930"/>
<path d="M208.689 64.5704C208.115 64.9289 206.67 65.7398 204.651 65.7349C202.772 65.7294 201.395 65.0123 200.815 64.6641C201.654 64.3368 202.979 63.9365 204.651 63.9004C206.417 63.8636 207.83 64.2535 208.689 64.5704Z" fill="white"/>
<path d="M209.139 64.518L208.626 64.8667C207.42 65.4172 206.586 64.1288 204.93 64.0712C203.196 64.0142 202.419 65.3657 200.882 64.8251L200.229 64.4873C200.493 64.0295 201.229 62.9231 202.632 62.377C203.434 62.0656 204.112 62.0705 204.65 62.0809C205.406 62.0859 206.799 62.1018 207.995 63.0684C208.585 63.5514 208.931 64.1079 209.139 64.518Z" fill="#E88D60"/>
<path d="M198.211 50.6003C198.237 51.8581 197.347 52.8872 196.213 52.8976C195.079 52.9026 194.137 51.8948 194.106 50.642C194.075 49.3793 194.971 48.3557 196.104 48.3453C197.238 48.3349 198.18 49.3432 198.211 50.6003Z" fill="#171930"/>
<path d="M199.775 52.4977L199.267 52.0925C199.112 51.3754 198.677 50.0656 197.518 49.3693C195.923 48.3972 193.066 48.8857 191.093 51.3441L190.369 51.422L190.286 50.6944C192.398 48.0441 195.732 47.0928 198.056 48.4805C199.542 49.3742 200.086 50.9856 200.282 51.8688L199.884 52.4873L199.775 52.4977Z" fill="#171930"/>
<path d="M210.696 50.6003C210.665 51.8581 211.56 52.8872 212.694 52.8976C213.828 52.9026 214.77 51.8948 214.801 50.642C214.827 49.3793 213.937 48.3557 212.803 48.3453C211.669 48.3349 210.727 49.3432 210.696 50.6003Z" fill="#171930"/>
<path d="M209.139 52.4979L208.632 51.8691C208.823 50.9858 209.367 49.3744 210.857 48.4807C213.177 47.0881 216.505 48.0443 218.628 50.6947L218.545 51.4222L217.815 51.3444C215.843 48.8859 213.001 48.3974 211.391 49.3695C210.231 50.0658 209.796 51.3756 209.641 52.0928L209.139 52.4979Z" fill="#171930"/>
<path d="M221.36 45.8718C219.989 45.2013 218.027 44.4112 215.594 43.9178C213.497 43.4967 211.685 43.4134 210.298 43.4446L210.644 42.5246C211.043 41.7296 211.613 41.2049 212.022 40.8984C213.678 41.2515 215.045 41.6309 216.039 41.9374C218.436 42.6705 219.062 43.0652 219.45 43.3613C220.548 44.1985 221.086 45.2166 221.36 45.8718Z" fill="black"/>
<path d="M211.106 40.6484L210.371 41.6616C209.936 42.4566 209.76 43.2933 209.848 43.33L210.599 42.1447L211.365 40.9083L211.598 40.6534L211.106 40.6484Z" fill="#F0892A"/>
<path d="M189.622 44.3487C190.978 43.642 192.909 42.7949 195.337 42.2236C197.413 41.74 199.225 41.6101 200.607 41.5997L200.245 40.6901C199.82 39.9055 199.225 39.3962 198.811 39.1001C197.165 39.5053 195.814 39.9263 194.835 40.2591C192.449 41.0591 191.843 41.4752 191.46 41.7817C190.388 42.6496 189.876 43.6892 189.622 44.3487Z" fill="black"/>
<path d="M199.722 38.8242L200.489 39.8215C200.949 40.5962 201.146 41.4329 201.058 41.4691L200.276 40.3051L199.469 39.094L199.226 38.8445L199.722 38.8242Z" fill="#F0892A"/>
<path d="M209.139 64.5181C209.403 64.9601 207.446 67.5693 204.868 67.6471C202.135 67.7299 199.96 64.9343 200.23 64.4874C200.437 64.1338 202.047 65.4069 204.852 65.3603C207.467 65.3241 208.927 64.1755 209.139 64.5181Z" fill="#E88D60"/>
<path d="M255.574 281.756C257.142 287.067 254.005 292.711 249.181 294.733C245.526 296.266 241.193 295.59 237.849 293.002C237.31 291.1 236.725 289.167 236.099 287.197C235.571 285.534 235.033 283.912 234.489 282.333C234.706 281.662 236.493 276.465 241.529 274.771C246.825 272.994 253.803 275.733 255.574 281.756Z" fill="#FFB68D"/>
<path d="M250.558 279.002C244.253 279.267 237.942 279.532 231.631 279.797C224.462 268.359 216.443 252.617 211.236 232.827C208.963 224.184 207.576 216.087 206.758 208.786C218.39 209.472 230.016 210.158 241.649 210.844C245.024 223.613 247.969 238.502 249.481 255.21C250.236 263.614 250.558 271.57 250.558 279.002Z" fill="#FFB68D"/>
<path d="M276.752 376.382C273.884 376.917 271.021 377.453 268.153 377.988C266.238 373.342 263.08 366.144 258.52 357.689C247.296 336.885 239.552 330.597 236.782 316.55C235.737 311.218 235.09 303.074 237.973 292.342C243.958 289.406 249.942 286.47 255.931 283.528C257.748 299.026 260.559 316.124 264.83 334.438C268.397 349.691 272.492 363.702 276.752 376.382Z" fill="#FFB68D"/>
<path d="M301.822 395.402H264.379C263.996 393.719 263.696 391.193 264.596 388.49C264.944 387.467 265.337 386.791 265.539 386.422C266.579 384.525 267.811 381.313 268.479 375.654C270.866 375.342 273.257 375.03 275.649 374.719C284.698 388.584 289.817 391.359 292.851 391.157C293.674 391.104 296.646 390.678 299.198 392.388C300.554 393.293 301.356 394.503 301.822 395.402Z" fill="#FFB68D"/>
<path d="M176.862 108.084C176.738 125.333 176.572 142.587 176.396 159.841C171.83 158.708 167.311 157.523 162.745 156.344C161.435 149.447 160.379 141.599 160.001 133.009C159.893 130.889 159.82 128.711 159.789 126.492C159.768 125.006 159.794 123.519 159.815 121.991C159.924 116.696 160.286 111.712 160.809 107.034C162.336 98.579 168.522 94.2602 172.011 95.1961C175.122 96.0739 177.747 101.479 176.862 108.084Z" fill="#FEE9DD"/>
<path d="M175.532 128.342C170.387 129.896 165.148 131.455 160.002 133.009C159.894 130.889 159.821 128.711 159.79 126.492L175.532 128.342Z" fill="#EACDBD"/>
<path d="M179.746 130.463C171.872 129.793 163.998 129.122 156.124 128.451C157.972 118.977 159.82 109.504 161.669 100.024C162.31 98.8913 164.221 95.8823 167.973 94.4272C169.501 93.8345 170.904 93.6684 171.955 93.6421C172.503 93.7879 175.537 94.6608 177.271 97.7739C178.845 100.601 178.275 103.345 178.125 103.984C178.668 112.809 179.207 121.638 179.746 130.463Z" fill="#F2ECEC"/>
<path d="M244.329 105.548C247.347 122.537 250.329 139.526 253.301 156.525C248.605 156.245 243.941 155.912 239.236 155.59C236.699 149.047 234.23 141.527 232.299 133.144C231.797 131.081 231.336 128.956 230.902 126.778C230.611 125.328 230.363 123.858 230.104 122.35C229.25 117.127 228.696 112.159 228.36 107.466C228.323 98.8705 233.614 93.4864 237.212 93.7721C240.432 94.0583 244.004 98.8962 244.329 105.548Z" fill="#FEE9DD"/>
<path d="M246.716 125.717C241.938 128.186 237.077 130.675 232.299 133.144C231.796 131.081 231.336 128.955 230.901 126.778L246.716 125.717Z" fill="#EACDBD"/>
<path d="M251.241 127.027C243.382 127.812 235.514 128.596 227.655 129.381C227.744 119.725 227.837 110.07 227.925 100.419C228.349 99.1819 229.68 95.8764 233.107 93.7508C234.504 92.8883 235.855 92.4672 236.88 92.249C237.444 92.2956 240.587 92.5922 242.859 95.3358C244.925 97.8305 244.863 100.632 244.832 101.287C246.964 109.867 249.102 118.447 251.241 127.027Z" fill="#F2ECEC"/>
<path d="M203.528 281.164C203.046 312.964 202.565 344.769 202.083 376.58C201.56 377.52 199.459 381.012 195.178 382.354C190.777 383.741 185.797 382.301 182.329 378.7C183.116 349.42 180.336 332.941 177.499 323.191C176.868 321.014 175.143 315.427 174.46 307.637C173.518 296.801 175.123 287.805 176.573 282.026C170.573 265.017 165.034 241.906 165.898 214.606C166.131 207.284 166.804 200.403 167.746 194.021C168.761 188.902 170.567 182.338 173.979 175.203C176.65 169.585 179.642 165.022 182.329 161.478C190.927 173.446 199.526 185.42 208.125 197.394C206.592 225.312 205.054 253.235 203.528 281.164Z" fill="#FFD18D"/>
<path d="M224.813 146.651H185.683C181.603 136.99 177.53 127.329 173.455 117.668C172.974 113.962 172.493 110.257 172.016 106.546C168.325 105.73 164.629 104.909 160.938 104.093C162.093 97.2435 164.883 94.0267 166.979 92.3951C169.93 90.0978 172.643 90.0512 180.791 87.9151C185.533 86.6727 189.353 85.4463 191.869 84.5942C193.991 85.9041 199.282 88.7776 206.545 88.6372C212.55 88.5232 217.017 86.403 219.181 85.1864C220.517 86.1223 222.557 87.38 225.248 88.3466C230.544 90.259 233.293 88.232 237.476 90.2278C240.675 91.7503 242.378 94.3694 243.418 95.9545C246.608 100.856 246.561 105.865 246.447 107.773C243.072 108.084 239.696 108.401 236.321 108.713C235.866 111.837 235.405 114.955 234.944 118.078C231.569 127.604 228.188 137.125 224.813 146.651Z" fill="#F2ECEC"/>
<path d="M200.934 223.675C203.299 224.511 205.665 225.348 208.031 226.18C211.049 240.596 216.101 257.403 224.715 275.093C227.438 280.68 230.28 285.877 233.158 290.695C232.33 298.288 232.113 307.444 233.541 317.651C237.569 346.39 252.245 366.466 260.589 376.195C263.421 379.022 267.459 380.144 271.14 379.085C275.452 377.837 277.347 374.132 277.663 373.498C271.264 345.575 264.871 317.651 258.477 289.728C253.56 260.713 248.631 231.699 243.709 202.689C243.18 198.392 242.16 193.335 240.256 187.858C236.104 175.962 229.623 167.542 224.907 162.439C227.723 152.939 230.534 143.444 233.35 133.939C234.339 132.13 236.27 127.983 235.845 122.578C235.617 119.704 234.799 117.402 234.085 115.843C229.612 113.39 223.763 110.885 216.665 109.482C195.555 105.319 178.239 113.868 171.97 117.376C172.073 121.482 172.42 125.935 173.119 130.665C174.962 143.158 178.668 153.542 182.329 161.478C188.53 182.208 194.726 202.944 200.934 223.675Z" fill="#FFD18D"/>
<path d="M169.495 90.5133C171.752 99.8317 174.004 109.145 176.261 118.463C178.901 117.21 181.537 115.958 184.171 114.71C183.887 105.2 183.596 95.6895 183.307 86.1841C178.71 87.6288 174.103 89.0685 169.495 90.5133Z" fill="#FFD18D"/>
<path d="M235.385 89.8635C233.123 99.3947 230.871 108.931 228.614 118.463C225.974 117.21 223.344 115.958 220.704 114.71C220.994 105.2 221.278 95.6895 221.568 86.1841C226.176 87.4106 230.778 88.6371 235.385 89.8635Z" fill="#FFD18D"/>
<path d="M184.533 117.859C184.533 119.881 182.897 121.518 180.889 121.518C178.875 121.518 177.239 119.881 177.239 117.859C177.239 115.838 178.875 114.201 180.889 114.201C182.897 114.201 184.533 115.838 184.533 117.859Z" fill="#4A4C57"/>
<path d="M227.308 119.279C227.308 121.3 225.677 122.943 223.664 122.943C221.655 122.943 220.02 121.3 220.02 119.279C220.02 117.262 221.655 115.62 223.664 115.62C225.677 115.62 227.308 117.262 227.308 119.279Z" fill="#4A4C57"/>
<path d="M206.571 226.315L206.027 226.019L206.224 225.12L209.599 222.942L210.495 223.134L210.298 224.033L206.923 226.211L206.571 226.315Z" fill="#2D2F5A"/>
<path d="M210.335 223.363L209.688 222.698L210.547 196.121L211.194 195.486L211.841 196.157L210.982 222.734L210.335 223.363Z" fill="#2D2F5A"/>
<path d="M180.936 287.296L180.48 287.114L177.317 283.996L177.312 283.076L178.228 283.065L181.391 286.184L181.396 287.103L180.936 287.296Z" fill="#2D2F5A"/>
<path d="M239.774 290.768L235.757 289.884L235.266 289.105L236.042 288.616L239.919 289.479L240.411 290.258L239.774 290.768Z" fill="#2D2F5A"/>
<path d="M205.815 168.016C204.148 168.016 202.471 167.938 200.798 167.782C194.747 167.221 188.872 165.645 183.328 163.104L183.012 162.247L183.866 161.919C189.28 164.404 195.016 165.937 200.923 166.488C207.249 167.08 213.554 166.524 219.683 164.846L220.475 165.303L220.025 166.098C215.366 167.371 210.608 168.016 205.815 168.016Z" fill="#2D2F5A"/>
<path d="M202.901 174.096C200.623 174.096 198.33 173.94 196.027 173.628L195.473 172.901L196.203 172.339C202.445 173.186 208.668 172.848 214.662 171.341C217.965 170.515 221.216 169.314 224.312 167.776L225.181 168.072L224.892 168.946C221.703 170.52 218.369 171.747 214.973 172.604C211.028 173.597 206.985 174.096 202.901 174.096Z" fill="#2D2F5A"/>
<path d="M236.42 284.791L235.871 284.484C231.797 277.879 228.169 270.921 225.088 263.801C220.17 252.45 216.542 240.482 214.3 228.222L214.818 227.469L215.573 227.989C217.794 240.149 221.397 252.024 226.269 263.281C229.333 270.343 232.931 277.25 236.969 283.803L236.756 284.698L236.42 284.791Z" fill="#2D2F5A"/>
<path d="M264.425 374.823L263.939 374.6C252.167 361.082 237.807 338.964 236.253 310.371C235.953 304.867 236.145 299.259 236.834 293.693L237.558 293.132L238.118 293.854C237.439 299.343 237.248 304.872 237.548 310.298C239.075 338.522 253.275 360.381 264.912 373.742L264.85 374.662L264.425 374.823Z" fill="#2D2F5A"/>
<path d="M148.597 107.32C146.914 107.923 145.232 108.531 143.55 109.139C144.197 121.805 146.785 138.024 154.498 155.128C156.346 159.233 158.334 163.027 160.369 166.514C160.773 166.774 165.074 169.44 170.034 167.434C175.096 165.376 176.303 160.278 176.396 159.841C173.761 156.198 171.67 153.153 170.277 151.084C161.705 138.377 155.264 128.248 150.637 114.664C149.524 111.4 148.897 108.713 148.597 107.32Z" fill="#FEE9DD"/>
<path d="M141.086 120.702C142.954 128.451 144.828 136.2 146.697 143.954C148.147 144.26 151.465 144.749 155.187 143.304C161.042 141.028 163.33 135.727 163.744 134.708C159.287 126.575 154.825 118.437 150.363 110.303C147.272 113.77 144.181 117.236 141.086 120.702Z" fill="black"/>
<path d="M146.791 102.114C146.796 102.446 146.864 104.697 148.505 105.882C150.332 107.207 153.479 106.734 155.509 104.276C155.736 102.249 156.409 101.443 157.02 101.09C157.59 100.768 158.242 100.757 158.605 100.181C158.894 99.7025 158.822 99.1049 158.703 98.6734C152.635 94.8223 146.574 90.9712 140.501 87.1152C139.741 88.4508 138.979 89.7815 138.219 91.1171C139.823 91.8655 144.162 94.1677 146.025 99.0111C146.45 100.108 146.677 101.163 146.791 102.114Z" fill="#8B8B8B"/>
<path d="M135.36 89.8591L139.719 92.3642L142.483 87.5202L138.12 85.0156L135.36 89.8591Z" fill="#5E5E5E"/>
<path d="M115.43 148.641C116.595 149.857 118.257 151.348 120.493 152.7C123.185 154.327 125.701 155.153 127.518 155.589C145.528 140.903 148.307 134.1 146.925 130.649C146.526 129.662 145.512 128.248 145.046 125.696C144.295 121.596 145.584 117.906 146.821 115.391C148.509 112.429 150.192 109.466 151.874 106.504C151.061 106.244 149.803 105.724 148.587 104.644C147.95 104.072 147.485 103.49 147.148 102.991C145.419 105.626 143.69 108.256 141.966 110.89C140.082 112.668 137.012 115.204 132.726 117.236C127.244 119.84 124.246 119.486 121.663 120.842C117.791 122.885 114.038 129.199 115.43 148.641Z" fill="#171930"/>
<path d="M144.688 102.498C144.461 103.921 144.228 105.346 144.005 106.764C146.236 108.204 148.472 109.638 150.704 111.073C151.812 109.191 152.92 107.305 154.027 105.418C150.911 104.447 147.805 103.475 144.688 102.498Z" fill="#5E5E5E"/>
<path d="M145.476 94.8892C145.243 97.2901 144.529 100.227 142.303 101.656C139.937 103.168 136.893 102.316 136.831 102.814C136.764 103.272 139.342 104.317 142.22 104.525C145.497 104.753 148.225 103.828 150.011 103.002L145.476 94.8892Z" fill="#5E5E5E"/>
<path d="M151.34 118.302C152.54 114.856 153.612 112.148 154.373 110.314C155.191 108.344 155.522 107.659 155.238 106.832C154.192 103.776 146.287 103.361 145.925 104.493C145.78 104.946 146.769 105.855 150.258 107.648C150.252 108.246 150.165 109.135 149.771 110.122C149.554 110.667 149.29 111.114 149.046 111.462C149.813 113.739 150.579 116.02 151.34 118.302Z" fill="black"/>
<path d="M145.346 101.089C145.346 103.074 144.726 104.691 143.959 104.691C143.188 104.691 142.566 103.074 142.566 101.089C142.566 99.1094 143.188 97.4985 143.959 97.4985C144.726 97.4985 145.346 99.1094 145.346 101.089Z" fill="black"/>
<path d="M145.501 105.782C146.884 106.582 147.691 107.772 147.308 108.437C146.925 109.108 145.496 108.999 144.109 108.198C142.726 107.398 141.914 106.208 142.297 105.537C142.685 104.872 144.119 104.977 145.501 105.782Z" fill="black"/>
<path d="M144.695 107.466C146.082 108.266 146.889 109.456 146.507 110.127C146.123 110.792 144.689 110.683 143.307 109.888C141.925 109.082 141.117 107.892 141.496 107.221C141.878 106.556 143.317 106.665 144.695 107.466Z" fill="black"/>
<path d="M143.679 109.238C145.066 110.033 145.874 111.228 145.49 111.893C145.103 112.558 143.674 112.449 142.287 111.649C140.909 110.849 140.097 109.659 140.479 108.994C140.863 108.323 142.297 108.432 143.679 109.238Z" fill="black"/>
<path d="M203.118 396.37H178.208C175.883 392.077 177.079 387.301 180.045 385.493C182.815 383.803 186.206 385.259 186.599 385.436C185.336 382.291 185.569 381.226 186.024 380.852C187.112 379.958 190.471 382.224 193.37 384.516C196.621 386.017 199.867 387.52 203.118 389.027C203.118 391.469 203.118 393.917 203.118 396.37Z" fill="#F2ECEC" stroke="#303030" stroke-width="0.528166" stroke-miterlimit="10"/>
<path d="M303.94 396.369H261.356C261.227 395.252 261.108 392.856 262.334 390.278C263.013 388.86 263.877 387.846 264.54 387.197C265.606 387.878 266.569 388.153 267.356 388.247C271.498 388.745 276.089 384.941 278.983 378.819C280.251 378.149 281.773 378.372 282.7 379.328C283.885 380.544 283.44 382.265 283.424 382.337C285.335 383.496 287.395 384.655 289.6 385.783C294.461 388.267 299.1 390.117 303.318 391.51C303.5 392.128 303.67 392.841 303.789 393.646C303.935 394.67 303.965 395.59 303.94 396.369Z" fill="#F0892A"/>
<path d="M287.493 374.719C285.583 374.719 284.04 373.17 284.04 371.252V92.1551C284.04 90.2378 285.583 88.689 287.493 88.689C289.398 88.689 290.946 90.2378 290.946 92.1551V371.252C290.946 373.17 289.398 374.719 287.493 374.719Z" fill="#ADADAD"/>
<path d="M323.481 387.586H253.658C254.238 382.031 257.106 379.246 259.772 377.722C265.767 374.287 273.019 375.966 279.314 372.183C282.974 369.979 284.449 367.058 285.117 364.855C286.923 365.016 288.735 365.172 290.536 365.333C292.043 369.168 294.849 373.305 300.466 375.129C305.823 376.865 310.032 375.296 314.997 377.125C318.418 378.388 321.954 381.173 323.481 387.586Z" fill="#ADADAD"/>
<path d="M324.92 395.979C322.321 396.614 320.152 396.806 318.599 396.858C315.938 396.941 316.274 396.567 314.157 396.749C312.392 396.894 311.031 397.248 309.933 396.421C309.4 396.016 309.482 395.761 309.011 395.496C307.842 394.841 306.558 396.006 304.668 396.551C302.147 397.268 301.474 396.047 297.856 396.255C295.78 396.38 295.495 396.811 293.197 397.237C287.818 398.23 286.42 396.416 280.415 397.019C276.404 397.424 277.02 398.235 274.292 398.157C270.657 398.058 268.794 396.593 264.549 397.128C263.281 397.284 263.275 397.435 262.101 397.612C258.43 398.152 255.148 397.164 252.627 395.979C252.969 393.184 253.316 390.383 253.657 387.586C276.745 387.586 299.838 387.586 322.932 387.586C323.594 390.383 324.257 393.184 324.92 395.979Z" fill="#5E5E5E"/>
<path d="M278.553 125.952C279.546 120.371 280.541 114.789 281.539 109.207C281.85 108.953 284.439 106.884 287.389 107.742C290.159 108.547 292.074 111.598 291.474 112.538C291.246 112.897 290.423 113.308 286.856 112.144C285.733 115.308 284.615 118.474 283.496 121.638C281.845 123.073 280.199 124.512 278.553 125.952Z" fill="black"/>
<path d="M296.284 116.295C296.615 117.397 294.968 118.863 292.613 119.569C290.252 120.276 288.083 119.954 287.752 118.852C287.426 117.756 289.067 116.285 291.428 115.583C293.783 114.877 295.957 115.194 296.284 116.295Z" fill="black"/>
<path d="M297.111 119.45C297.437 120.547 295.796 122.017 293.435 122.719C291.08 123.426 288.906 123.109 288.574 122.007C288.248 120.905 289.895 119.44 292.25 118.733C294.606 118.026 296.78 118.348 297.111 119.45Z" fill="black"/>
<path d="M297.318 122.802C297.639 123.898 295.998 125.369 293.643 126.076C291.287 126.777 289.108 126.46 288.776 125.358C288.456 124.257 290.096 122.791 292.452 122.085C294.807 121.377 296.987 121.7 297.318 122.802Z" fill="black"/>
<path d="M296.589 126.305C296.847 127.183 295.538 128.357 293.653 128.919C291.769 129.485 290.035 129.225 289.776 128.348C289.512 127.469 290.827 126.3 292.706 125.738C294.585 125.172 296.324 125.426 296.589 126.305Z" fill="black"/>
<path d="M206.203 27.947C203.935 34.6667 200.829 37.249 198.298 38.3198C195.031 39.702 192.329 38.7409 190.145 41.0584C187.551 43.808 188.374 48.3138 187.846 48.3242C187.416 48.3291 186.536 45.3618 186.759 41.911C187.08 37.1196 189.699 28.7782 196.781 26.7929C200.788 25.6706 204.437 27.084 206.203 27.947Z" fill="black"/>
<path d="M204.194 27.947C206.473 34.6667 209.573 37.249 212.104 38.3198C215.371 39.702 218.322 38.7146 220.263 41.0584C222.375 43.6156 221.257 47.5966 221.831 47.669C222.308 47.737 223.54 45.0186 223.638 41.911C223.819 36.4332 220.538 28.7316 213.621 26.7929C209.61 25.6706 205.96 27.084 204.194 27.947Z" fill="black"/>
</g>
<defs>
<clipPath id="clip0_1256_3187">
<rect width="472.551" height="398.162" fill="white" transform="translate(0.724609)"/>
</clipPath>
</defs>
</svg>
